<?xml version="1.0" encoding="utf-8" standalone="no"?>
<!DOCTYPE svg PUBLIC "-//W3C//DTD SVG 1.1//EN"
  "http://www.w3.org/Graphics/SVG/1.1/DTD/svg11.dtd">
<svg xmlns:xlink="http://www.w3.org/1999/xlink" width="735.627187pt" height="397.917813pt" viewBox="0 0 735.627187 397.917813" xmlns="http://www.w3.org/2000/svg" version="1.1">
 <metadata>
  <rdf:RDF xmlns:dc="http://purl.org/dc/elements/1.1/" xmlns:cc="http://creativecommons.org/ns#" xmlns:rdf="http://www.w3.org/1999/02/22-rdf-syntax-ns#">
   <cc:Work>
    <dc:type rdf:resource="http://purl.org/dc/dcmitype/StillImage"/>
    <dc:date>2025-09-29T10:24:46.841919</dc:date>
    <dc:format>image/svg+xml</dc:format>
    <dc:creator>
     <cc:Agent>
      <dc:title>Matplotlib v3.10.6, https://matplotlib.org/</dc:title>
     </cc:Agent>
    </dc:creator>
   </cc:Work>
  </rdf:RDF>
 </metadata>
 <defs>
  <style type="text/css">*{stroke-linejoin: round; stroke-linecap: butt}</style>
 </defs>
 <g id="figure_1">
  <g id="patch_1">
   <path d="M 0 397.917813 
L 735.627187 397.917813 
L 735.627187 0 
L 0 0 
z
" style="fill: #ffffff"/>
  </g>
  <g id="axes_1">
   <g id="patch_2">
    <path d="M 58.827188 354.958125 
L 728.427188 354.958125 
L 728.427188 22.318125 
L 58.827188 22.318125 
z
" style="fill: #ffffff"/>
   </g>
   <g id="matplotlib.axis_1">
    <g id="xtick_1">
     <g id="line2d_1">
      <path d="M 89.263551 354.958125 
L 89.263551 22.318125 
" clip-path="url(#pc804661e27)" style="fill: none; stroke: #cccccc; stroke-linecap: round"/>
     </g>
     <g id="text_1">
      <!-- 0 -->
      <g style="fill: #262626" transform="translate(85.764176 372.816406) scale(0.11 -0.11)">
       <defs>
        <path id="DejaVuSans-30" d="M 2034 4250 
Q 1547 4250 1301 3770 
Q 1056 3291 1056 2328 
Q 1056 1369 1301 889 
Q 1547 409 2034 409 
Q 2525 409 2770 889 
Q 3016 1369 3016 2328 
Q 3016 3291 2770 3770 
Q 2525 4250 2034 4250 
z
M 2034 4750 
Q 2819 4750 3233 4129 
Q 3647 3509 3647 2328 
Q 3647 1150 3233 529 
Q 2819 -91 2034 -91 
Q 1250 -91 836 529 
Q 422 1150 422 2328 
Q 422 3509 836 4129 
Q 1250 4750 2034 4750 
z
" transform="scale(0.015625)"/>
       </defs>
       <use xlink:href="#DejaVuSans-30"/>
      </g>
     </g>
    </g>
    <g id="xtick_2">
     <g id="line2d_2">
      <path d="M 237.733618 354.958125 
L 237.733618 22.318125 
" clip-path="url(#pc804661e27)" style="fill: none; stroke: #cccccc; stroke-linecap: round"/>
     </g>
     <g id="text_2">
      <!-- 10 -->
      <g style="fill: #262626" transform="translate(230.734868 372.816406) scale(0.11 -0.11)">
       <defs>
        <path id="DejaVuSans-31" d="M 794 531 
L 1825 531 
L 1825 4091 
L 703 3866 
L 703 4441 
L 1819 4666 
L 2450 4666 
L 2450 531 
L 3481 531 
L 3481 0 
L 794 0 
L 794 531 
z
" transform="scale(0.015625)"/>
       </defs>
       <use xlink:href="#DejaVuSans-31"/>
       <use xlink:href="#DejaVuSans-30" transform="translate(63.623047 0)"/>
      </g>
     </g>
    </g>
    <g id="xtick_3">
     <g id="line2d_3">
      <path d="M 386.203684 354.958125 
L 386.203684 22.318125 
" clip-path="url(#pc804661e27)" style="fill: none; stroke: #cccccc; stroke-linecap: round"/>
     </g>
     <g id="text_3">
      <!-- 20 -->
      <g style="fill: #262626" transform="translate(379.204934 372.816406) scale(0.11 -0.11)">
       <defs>
        <path id="DejaVuSans-32" d="M 1228 531 
L 3431 531 
L 3431 0 
L 469 0 
L 469 531 
Q 828 903 1448 1529 
Q 2069 2156 2228 2338 
Q 2531 2678 2651 2914 
Q 2772 3150 2772 3378 
Q 2772 3750 2511 3984 
Q 2250 4219 1831 4219 
Q 1534 4219 1204 4116 
Q 875 4013 500 3803 
L 500 4441 
Q 881 4594 1212 4672 
Q 1544 4750 1819 4750 
Q 2544 4750 2975 4387 
Q 3406 4025 3406 3419 
Q 3406 3131 3298 2873 
Q 3191 2616 2906 2266 
Q 2828 2175 2409 1742 
Q 1991 1309 1228 531 
z
" transform="scale(0.015625)"/>
       </defs>
       <use xlink:href="#DejaVuSans-32"/>
       <use xlink:href="#DejaVuSans-30" transform="translate(63.623047 0)"/>
      </g>
     </g>
    </g>
    <g id="xtick_4">
     <g id="line2d_4">
      <path d="M 534.673751 354.958125 
L 534.673751 22.318125 
" clip-path="url(#pc804661e27)" style="fill: none; stroke: #cccccc; stroke-linecap: round"/>
     </g>
     <g id="text_4">
      <!-- 30 -->
      <g style="fill: #262626" transform="translate(527.675001 372.816406) scale(0.11 -0.11)">
       <defs>
        <path id="DejaVuSans-33" d="M 2597 2516 
Q 3050 2419 3304 2112 
Q 3559 1806 3559 1356 
Q 3559 666 3084 287 
Q 2609 -91 1734 -91 
Q 1441 -91 1130 -33 
Q 819 25 488 141 
L 488 750 
Q 750 597 1062 519 
Q 1375 441 1716 441 
Q 2309 441 2620 675 
Q 2931 909 2931 1356 
Q 2931 1769 2642 2001 
Q 2353 2234 1838 2234 
L 1294 2234 
L 1294 2753 
L 1863 2753 
Q 2328 2753 2575 2939 
Q 2822 3125 2822 3475 
Q 2822 3834 2567 4026 
Q 2313 4219 1838 4219 
Q 1578 4219 1281 4162 
Q 984 4106 628 3988 
L 628 4550 
Q 988 4650 1302 4700 
Q 1616 4750 1894 4750 
Q 2613 4750 3031 4423 
Q 3450 4097 3450 3541 
Q 3450 3153 3228 2886 
Q 3006 2619 2597 2516 
z
" transform="scale(0.015625)"/>
       </defs>
       <use xlink:href="#DejaVuSans-33"/>
       <use xlink:href="#DejaVuSans-30" transform="translate(63.623047 0)"/>
      </g>
     </g>
    </g>
    <g id="xtick_5">
     <g id="line2d_5">
      <path d="M 683.143817 354.958125 
L 683.143817 22.318125 
" clip-path="url(#pc804661e27)" style="fill: none; stroke: #cccccc; stroke-linecap: round"/>
     </g>
     <g id="text_5">
      <!-- 40 -->
      <g style="fill: #262626" transform="translate(676.145067 372.816406) scale(0.11 -0.11)">
       <defs>
        <path id="DejaVuSans-34" d="M 2419 4116 
L 825 1625 
L 2419 1625 
L 2419 4116 
z
M 2253 4666 
L 3047 4666 
L 3047 1625 
L 3713 1625 
L 3713 1100 
L 3047 1100 
L 3047 0 
L 2419 0 
L 2419 1100 
L 313 1100 
L 313 1709 
L 2253 4666 
z
" transform="scale(0.015625)"/>
       </defs>
       <use xlink:href="#DejaVuSans-34"/>
       <use xlink:href="#DejaVuSans-30" transform="translate(63.623047 0)"/>
      </g>
     </g>
    </g>
    <g id="text_6">
     <!-- Time (fs) -->
     <g style="fill: #262626" transform="translate(367.120313 388.222188) scale(0.12 -0.12)">
      <defs>
       <path id="DejaVuSans-54" d="M -19 4666 
L 3928 4666 
L 3928 4134 
L 2272 4134 
L 2272 0 
L 1638 0 
L 1638 4134 
L -19 4134 
L -19 4666 
z
" transform="scale(0.015625)"/>
       <path id="DejaVuSans-69" d="M 603 3500 
L 1178 3500 
L 1178 0 
L 603 0 
L 603 3500 
z
M 603 4863 
L 1178 4863 
L 1178 4134 
L 603 4134 
L 603 4863 
z
" transform="scale(0.015625)"/>
       <path id="DejaVuSans-6d" d="M 3328 2828 
Q 3544 3216 3844 3400 
Q 4144 3584 4550 3584 
Q 5097 3584 5394 3201 
Q 5691 2819 5691 2113 
L 5691 0 
L 5113 0 
L 5113 2094 
Q 5113 2597 4934 2840 
Q 4756 3084 4391 3084 
Q 3944 3084 3684 2787 
Q 3425 2491 3425 1978 
L 3425 0 
L 2847 0 
L 2847 2094 
Q 2847 2600 2669 2842 
Q 2491 3084 2119 3084 
Q 1678 3084 1418 2786 
Q 1159 2488 1159 1978 
L 1159 0 
L 581 0 
L 581 3500 
L 1159 3500 
L 1159 2956 
Q 1356 3278 1631 3431 
Q 1906 3584 2284 3584 
Q 2666 3584 2933 3390 
Q 3200 3197 3328 2828 
z
" transform="scale(0.015625)"/>
       <path id="DejaVuSans-65" d="M 3597 1894 
L 3597 1613 
L 953 1613 
Q 991 1019 1311 708 
Q 1631 397 2203 397 
Q 2534 397 2845 478 
Q 3156 559 3463 722 
L 3463 178 
Q 3153 47 2828 -22 
Q 2503 -91 2169 -91 
Q 1331 -91 842 396 
Q 353 884 353 1716 
Q 353 2575 817 3079 
Q 1281 3584 2069 3584 
Q 2775 3584 3186 3129 
Q 3597 2675 3597 1894 
z
M 3022 2063 
Q 3016 2534 2758 2815 
Q 2500 3097 2075 3097 
Q 1594 3097 1305 2825 
Q 1016 2553 972 2059 
L 3022 2063 
z
" transform="scale(0.015625)"/>
       <path id="DejaVuSans-20" transform="scale(0.015625)"/>
       <path id="DejaVuSans-28" d="M 1984 4856 
Q 1566 4138 1362 3434 
Q 1159 2731 1159 2009 
Q 1159 1288 1364 580 
Q 1569 -128 1984 -844 
L 1484 -844 
Q 1016 -109 783 600 
Q 550 1309 550 2009 
Q 550 2706 781 3412 
Q 1013 4119 1484 4856 
L 1984 4856 
z
" transform="scale(0.015625)"/>
       <path id="DejaVuSans-66" d="M 2375 4863 
L 2375 4384 
L 1825 4384 
Q 1516 4384 1395 4259 
Q 1275 4134 1275 3809 
L 1275 3500 
L 2222 3500 
L 2222 3053 
L 1275 3053 
L 1275 0 
L 697 0 
L 697 3053 
L 147 3053 
L 147 3500 
L 697 3500 
L 697 3744 
Q 697 4328 969 4595 
Q 1241 4863 1831 4863 
L 2375 4863 
z
" transform="scale(0.015625)"/>
       <path id="DejaVuSans-73" d="M 2834 3397 
L 2834 2853 
Q 2591 2978 2328 3040 
Q 2066 3103 1784 3103 
Q 1356 3103 1142 2972 
Q 928 2841 928 2578 
Q 928 2378 1081 2264 
Q 1234 2150 1697 2047 
L 1894 2003 
Q 2506 1872 2764 1633 
Q 3022 1394 3022 966 
Q 3022 478 2636 193 
Q 2250 -91 1575 -91 
Q 1294 -91 989 -36 
Q 684 19 347 128 
L 347 722 
Q 666 556 975 473 
Q 1284 391 1588 391 
Q 1994 391 2212 530 
Q 2431 669 2431 922 
Q 2431 1156 2273 1281 
Q 2116 1406 1581 1522 
L 1381 1569 
Q 847 1681 609 1914 
Q 372 2147 372 2553 
Q 372 3047 722 3315 
Q 1072 3584 1716 3584 
Q 2034 3584 2315 3537 
Q 2597 3491 2834 3397 
z
" transform="scale(0.015625)"/>
       <path id="DejaVuSans-29" d="M 513 4856 
L 1013 4856 
Q 1481 4119 1714 3412 
Q 1947 2706 1947 2009 
Q 1947 1309 1714 600 
Q 1481 -109 1013 -844 
L 513 -844 
Q 928 -128 1133 580 
Q 1338 1288 1338 2009 
Q 1338 2731 1133 3434 
Q 928 4138 513 4856 
z
" transform="scale(0.015625)"/>
      </defs>
      <use xlink:href="#DejaVuSans-54"/>
      <use xlink:href="#DejaVuSans-69" transform="translate(57.958984 0)"/>
      <use xlink:href="#DejaVuSans-6d" transform="translate(85.742188 0)"/>
      <use xlink:href="#DejaVuSans-65" transform="translate(183.154297 0)"/>
      <use xlink:href="#DejaVuSans-20" transform="translate(244.677734 0)"/>
      <use xlink:href="#DejaVuSans-28" transform="translate(276.464844 0)"/>
      <use xlink:href="#DejaVuSans-66" transform="translate(315.478516 0)"/>
      <use xlink:href="#DejaVuSans-73" transform="translate(350.683594 0)"/>
      <use xlink:href="#DejaVuSans-29" transform="translate(402.783203 0)"/>
     </g>
    </g>
   </g>
   <g id="matplotlib.axis_2">
    <g id="ytick_1">
     <g id="line2d_6">
      <path d="M 58.827188 348.849454 
L 728.427188 348.849454 
" clip-path="url(#pc804661e27)" style="fill: none; stroke: #cccccc; stroke-linecap: round"/>
     </g>
     <g id="text_7">
      <!-- 0.30 -->
      <g style="fill: #262626" transform="translate(24.835 353.028595) scale(0.11 -0.11)">
       <defs>
        <path id="DejaVuSans-2e" d="M 684 794 
L 1344 794 
L 1344 0 
L 684 0 
L 684 794 
z
" transform="scale(0.015625)"/>
       </defs>
       <use xlink:href="#DejaVuSans-30"/>
       <use xlink:href="#DejaVuSans-2e" transform="translate(63.623047 0)"/>
       <use xlink:href="#DejaVuSans-33" transform="translate(95.410156 0)"/>
       <use xlink:href="#DejaVuSans-30" transform="translate(159.033203 0)"/>
      </g>
     </g>
    </g>
    <g id="ytick_2">
     <g id="line2d_7">
      <path d="M 58.827188 311.801172 
L 728.427188 311.801172 
" clip-path="url(#pc804661e27)" style="fill: none; stroke: #cccccc; stroke-linecap: round"/>
     </g>
     <g id="text_8">
      <!-- 0.32 -->
      <g style="fill: #262626" transform="translate(24.835 315.980313) scale(0.11 -0.11)">
       <use xlink:href="#DejaVuSans-30"/>
       <use xlink:href="#DejaVuSans-2e" transform="translate(63.623047 0)"/>
       <use xlink:href="#DejaVuSans-33" transform="translate(95.410156 0)"/>
       <use xlink:href="#DejaVuSans-32" transform="translate(159.033203 0)"/>
      </g>
     </g>
    </g>
    <g id="ytick_3">
     <g id="line2d_8">
      <path d="M 58.827188 274.75289 
L 728.427188 274.75289 
" clip-path="url(#pc804661e27)" style="fill: none; stroke: #cccccc; stroke-linecap: round"/>
     </g>
     <g id="text_9">
      <!-- 0.34 -->
      <g style="fill: #262626" transform="translate(24.835 278.932031) scale(0.11 -0.11)">
       <use xlink:href="#DejaVuSans-30"/>
       <use xlink:href="#DejaVuSans-2e" transform="translate(63.623047 0)"/>
       <use xlink:href="#DejaVuSans-33" transform="translate(95.410156 0)"/>
       <use xlink:href="#DejaVuSans-34" transform="translate(159.033203 0)"/>
      </g>
     </g>
    </g>
    <g id="ytick_4">
     <g id="line2d_9">
      <path d="M 58.827188 237.704608 
L 728.427188 237.704608 
" clip-path="url(#pc804661e27)" style="fill: none; stroke: #cccccc; stroke-linecap: round"/>
     </g>
     <g id="text_10">
      <!-- 0.36 -->
      <g style="fill: #262626" transform="translate(24.835 241.883749) scale(0.11 -0.11)">
       <defs>
        <path id="DejaVuSans-36" d="M 2113 2584 
Q 1688 2584 1439 2293 
Q 1191 2003 1191 1497 
Q 1191 994 1439 701 
Q 1688 409 2113 409 
Q 2538 409 2786 701 
Q 3034 994 3034 1497 
Q 3034 2003 2786 2293 
Q 2538 2584 2113 2584 
z
M 3366 4563 
L 3366 3988 
Q 3128 4100 2886 4159 
Q 2644 4219 2406 4219 
Q 1781 4219 1451 3797 
Q 1122 3375 1075 2522 
Q 1259 2794 1537 2939 
Q 1816 3084 2150 3084 
Q 2853 3084 3261 2657 
Q 3669 2231 3669 1497 
Q 3669 778 3244 343 
Q 2819 -91 2113 -91 
Q 1303 -91 875 529 
Q 447 1150 447 2328 
Q 447 3434 972 4092 
Q 1497 4750 2381 4750 
Q 2619 4750 2861 4703 
Q 3103 4656 3366 4563 
z
" transform="scale(0.015625)"/>
       </defs>
       <use xlink:href="#DejaVuSans-30"/>
       <use xlink:href="#DejaVuSans-2e" transform="translate(63.623047 0)"/>
       <use xlink:href="#DejaVuSans-33" transform="translate(95.410156 0)"/>
       <use xlink:href="#DejaVuSans-36" transform="translate(159.033203 0)"/>
      </g>
     </g>
    </g>
    <g id="ytick_5">
     <g id="line2d_10">
      <path d="M 58.827188 200.656327 
L 728.427188 200.656327 
" clip-path="url(#pc804661e27)" style="fill: none; stroke: #cccccc; stroke-linecap: round"/>
     </g>
     <g id="text_11">
      <!-- 0.38 -->
      <g style="fill: #262626" transform="translate(24.835 204.835467) scale(0.11 -0.11)">
       <defs>
        <path id="DejaVuSans-38" d="M 2034 2216 
Q 1584 2216 1326 1975 
Q 1069 1734 1069 1313 
Q 1069 891 1326 650 
Q 1584 409 2034 409 
Q 2484 409 2743 651 
Q 3003 894 3003 1313 
Q 3003 1734 2745 1975 
Q 2488 2216 2034 2216 
z
M 1403 2484 
Q 997 2584 770 2862 
Q 544 3141 544 3541 
Q 544 4100 942 4425 
Q 1341 4750 2034 4750 
Q 2731 4750 3128 4425 
Q 3525 4100 3525 3541 
Q 3525 3141 3298 2862 
Q 3072 2584 2669 2484 
Q 3125 2378 3379 2068 
Q 3634 1759 3634 1313 
Q 3634 634 3220 271 
Q 2806 -91 2034 -91 
Q 1263 -91 848 271 
Q 434 634 434 1313 
Q 434 1759 690 2068 
Q 947 2378 1403 2484 
z
M 1172 3481 
Q 1172 3119 1398 2916 
Q 1625 2713 2034 2713 
Q 2441 2713 2670 2916 
Q 2900 3119 2900 3481 
Q 2900 3844 2670 4047 
Q 2441 4250 2034 4250 
Q 1625 4250 1398 4047 
Q 1172 3844 1172 3481 
z
" transform="scale(0.015625)"/>
       </defs>
       <use xlink:href="#DejaVuSans-30"/>
       <use xlink:href="#DejaVuSans-2e" transform="translate(63.623047 0)"/>
       <use xlink:href="#DejaVuSans-33" transform="translate(95.410156 0)"/>
       <use xlink:href="#DejaVuSans-38" transform="translate(159.033203 0)"/>
      </g>
     </g>
    </g>
    <g id="ytick_6">
     <g id="line2d_11">
      <path d="M 58.827188 163.608045 
L 728.427188 163.608045 
" clip-path="url(#pc804661e27)" style="fill: none; stroke: #cccccc; stroke-linecap: round"/>
     </g>
     <g id="text_12">
      <!-- 0.40 -->
      <g style="fill: #262626" transform="translate(24.835 167.787185) scale(0.11 -0.11)">
       <use xlink:href="#DejaVuSans-30"/>
       <use xlink:href="#DejaVuSans-2e" transform="translate(63.623047 0)"/>
       <use xlink:href="#DejaVuSans-34" transform="translate(95.410156 0)"/>
       <use xlink:href="#DejaVuSans-30" transform="translate(159.033203 0)"/>
      </g>
     </g>
    </g>
    <g id="ytick_7">
     <g id="line2d_12">
      <path d="M 58.827188 126.559763 
L 728.427188 126.559763 
" clip-path="url(#pc804661e27)" style="fill: none; stroke: #cccccc; stroke-linecap: round"/>
     </g>
     <g id="text_13">
      <!-- 0.42 -->
      <g style="fill: #262626" transform="translate(24.835 130.738903) scale(0.11 -0.11)">
       <use xlink:href="#DejaVuSans-30"/>
       <use xlink:href="#DejaVuSans-2e" transform="translate(63.623047 0)"/>
       <use xlink:href="#DejaVuSans-34" transform="translate(95.410156 0)"/>
       <use xlink:href="#DejaVuSans-32" transform="translate(159.033203 0)"/>
      </g>
     </g>
    </g>
    <g id="ytick_8">
     <g id="line2d_13">
      <path d="M 58.827188 89.511481 
L 728.427188 89.511481 
" clip-path="url(#pc804661e27)" style="fill: none; stroke: #cccccc; stroke-linecap: round"/>
     </g>
     <g id="text_14">
      <!-- 0.44 -->
      <g style="fill: #262626" transform="translate(24.835 93.690621) scale(0.11 -0.11)">
       <use xlink:href="#DejaVuSans-30"/>
       <use xlink:href="#DejaVuSans-2e" transform="translate(63.623047 0)"/>
       <use xlink:href="#DejaVuSans-34" transform="translate(95.410156 0)"/>
       <use xlink:href="#DejaVuSans-34" transform="translate(159.033203 0)"/>
      </g>
     </g>
    </g>
    <g id="ytick_9">
     <g id="line2d_14">
      <path d="M 58.827188 52.463199 
L 728.427188 52.463199 
" clip-path="url(#pc804661e27)" style="fill: none; stroke: #cccccc; stroke-linecap: round"/>
     </g>
     <g id="text_15">
      <!-- 0.46 -->
      <g style="fill: #262626" transform="translate(24.835 56.642339) scale(0.11 -0.11)">
       <use xlink:href="#DejaVuSans-30"/>
       <use xlink:href="#DejaVuSans-2e" transform="translate(63.623047 0)"/>
       <use xlink:href="#DejaVuSans-34" transform="translate(95.410156 0)"/>
       <use xlink:href="#DejaVuSans-36" transform="translate(159.033203 0)"/>
      </g>
     </g>
    </g>
    <g id="text_16">
     <!-- Force Magnitude Difference (eV/Å) -->
     <g style="fill: #262626" transform="translate(18.339375 291.9975) rotate(-90) scale(0.12 -0.12)">
      <defs>
       <path id="DejaVuSans-46" d="M 628 4666 
L 3309 4666 
L 3309 4134 
L 1259 4134 
L 1259 2759 
L 3109 2759 
L 3109 2228 
L 1259 2228 
L 1259 0 
L 628 0 
L 628 4666 
z
" transform="scale(0.015625)"/>
       <path id="DejaVuSans-6f" d="M 1959 3097 
Q 1497 3097 1228 2736 
Q 959 2375 959 1747 
Q 959 1119 1226 758 
Q 1494 397 1959 397 
Q 2419 397 2687 759 
Q 2956 1122 2956 1747 
Q 2956 2369 2687 2733 
Q 2419 3097 1959 3097 
z
M 1959 3584 
Q 2709 3584 3137 3096 
Q 3566 2609 3566 1747 
Q 3566 888 3137 398 
Q 2709 -91 1959 -91 
Q 1206 -91 779 398 
Q 353 888 353 1747 
Q 353 2609 779 3096 
Q 1206 3584 1959 3584 
z
" transform="scale(0.015625)"/>
       <path id="DejaVuSans-72" d="M 2631 2963 
Q 2534 3019 2420 3045 
Q 2306 3072 2169 3072 
Q 1681 3072 1420 2755 
Q 1159 2438 1159 1844 
L 1159 0 
L 581 0 
L 581 3500 
L 1159 3500 
L 1159 2956 
Q 1341 3275 1631 3429 
Q 1922 3584 2338 3584 
Q 2397 3584 2469 3576 
Q 2541 3569 2628 3553 
L 2631 2963 
z
" transform="scale(0.015625)"/>
       <path id="DejaVuSans-63" d="M 3122 3366 
L 3122 2828 
Q 2878 2963 2633 3030 
Q 2388 3097 2138 3097 
Q 1578 3097 1268 2742 
Q 959 2388 959 1747 
Q 959 1106 1268 751 
Q 1578 397 2138 397 
Q 2388 397 2633 464 
Q 2878 531 3122 666 
L 3122 134 
Q 2881 22 2623 -34 
Q 2366 -91 2075 -91 
Q 1284 -91 818 406 
Q 353 903 353 1747 
Q 353 2603 823 3093 
Q 1294 3584 2113 3584 
Q 2378 3584 2631 3529 
Q 2884 3475 3122 3366 
z
" transform="scale(0.015625)"/>
       <path id="DejaVuSans-4d" d="M 628 4666 
L 1569 4666 
L 2759 1491 
L 3956 4666 
L 4897 4666 
L 4897 0 
L 4281 0 
L 4281 4097 
L 3078 897 
L 2444 897 
L 1241 4097 
L 1241 0 
L 628 0 
L 628 4666 
z
" transform="scale(0.015625)"/>
       <path id="DejaVuSans-61" d="M 2194 1759 
Q 1497 1759 1228 1600 
Q 959 1441 959 1056 
Q 959 750 1161 570 
Q 1363 391 1709 391 
Q 2188 391 2477 730 
Q 2766 1069 2766 1631 
L 2766 1759 
L 2194 1759 
z
M 3341 1997 
L 3341 0 
L 2766 0 
L 2766 531 
Q 2569 213 2275 61 
Q 1981 -91 1556 -91 
Q 1019 -91 701 211 
Q 384 513 384 1019 
Q 384 1609 779 1909 
Q 1175 2209 1959 2209 
L 2766 2209 
L 2766 2266 
Q 2766 2663 2505 2880 
Q 2244 3097 1772 3097 
Q 1472 3097 1187 3025 
Q 903 2953 641 2809 
L 641 3341 
Q 956 3463 1253 3523 
Q 1550 3584 1831 3584 
Q 2591 3584 2966 3190 
Q 3341 2797 3341 1997 
z
" transform="scale(0.015625)"/>
       <path id="DejaVuSans-67" d="M 2906 1791 
Q 2906 2416 2648 2759 
Q 2391 3103 1925 3103 
Q 1463 3103 1205 2759 
Q 947 2416 947 1791 
Q 947 1169 1205 825 
Q 1463 481 1925 481 
Q 2391 481 2648 825 
Q 2906 1169 2906 1791 
z
M 3481 434 
Q 3481 -459 3084 -895 
Q 2688 -1331 1869 -1331 
Q 1566 -1331 1297 -1286 
Q 1028 -1241 775 -1147 
L 775 -588 
Q 1028 -725 1275 -790 
Q 1522 -856 1778 -856 
Q 2344 -856 2625 -561 
Q 2906 -266 2906 331 
L 2906 616 
Q 2728 306 2450 153 
Q 2172 0 1784 0 
Q 1141 0 747 490 
Q 353 981 353 1791 
Q 353 2603 747 3093 
Q 1141 3584 1784 3584 
Q 2172 3584 2450 3431 
Q 2728 3278 2906 2969 
L 2906 3500 
L 3481 3500 
L 3481 434 
z
" transform="scale(0.015625)"/>
       <path id="DejaVuSans-6e" d="M 3513 2113 
L 3513 0 
L 2938 0 
L 2938 2094 
Q 2938 2591 2744 2837 
Q 2550 3084 2163 3084 
Q 1697 3084 1428 2787 
Q 1159 2491 1159 1978 
L 1159 0 
L 581 0 
L 581 3500 
L 1159 3500 
L 1159 2956 
Q 1366 3272 1645 3428 
Q 1925 3584 2291 3584 
Q 2894 3584 3203 3211 
Q 3513 2838 3513 2113 
z
" transform="scale(0.015625)"/>
       <path id="DejaVuSans-74" d="M 1172 4494 
L 1172 3500 
L 2356 3500 
L 2356 3053 
L 1172 3053 
L 1172 1153 
Q 1172 725 1289 603 
Q 1406 481 1766 481 
L 2356 481 
L 2356 0 
L 1766 0 
Q 1100 0 847 248 
Q 594 497 594 1153 
L 594 3053 
L 172 3053 
L 172 3500 
L 594 3500 
L 594 4494 
L 1172 4494 
z
" transform="scale(0.015625)"/>
       <path id="DejaVuSans-75" d="M 544 1381 
L 544 3500 
L 1119 3500 
L 1119 1403 
Q 1119 906 1312 657 
Q 1506 409 1894 409 
Q 2359 409 2629 706 
Q 2900 1003 2900 1516 
L 2900 3500 
L 3475 3500 
L 3475 0 
L 2900 0 
L 2900 538 
Q 2691 219 2414 64 
Q 2138 -91 1772 -91 
Q 1169 -91 856 284 
Q 544 659 544 1381 
z
M 1991 3584 
L 1991 3584 
z
" transform="scale(0.015625)"/>
       <path id="DejaVuSans-64" d="M 2906 2969 
L 2906 4863 
L 3481 4863 
L 3481 0 
L 2906 0 
L 2906 525 
Q 2725 213 2448 61 
Q 2172 -91 1784 -91 
Q 1150 -91 751 415 
Q 353 922 353 1747 
Q 353 2572 751 3078 
Q 1150 3584 1784 3584 
Q 2172 3584 2448 3432 
Q 2725 3281 2906 2969 
z
M 947 1747 
Q 947 1113 1208 752 
Q 1469 391 1925 391 
Q 2381 391 2643 752 
Q 2906 1113 2906 1747 
Q 2906 2381 2643 2742 
Q 2381 3103 1925 3103 
Q 1469 3103 1208 2742 
Q 947 2381 947 1747 
z
" transform="scale(0.015625)"/>
       <path id="DejaVuSans-44" d="M 1259 4147 
L 1259 519 
L 2022 519 
Q 2988 519 3436 956 
Q 3884 1394 3884 2338 
Q 3884 3275 3436 3711 
Q 2988 4147 2022 4147 
L 1259 4147 
z
M 628 4666 
L 1925 4666 
Q 3281 4666 3915 4102 
Q 4550 3538 4550 2338 
Q 4550 1131 3912 565 
Q 3275 0 1925 0 
L 628 0 
L 628 4666 
z
" transform="scale(0.015625)"/>
       <path id="DejaVuSans-56" d="M 1831 0 
L 50 4666 
L 709 4666 
L 2188 738 
L 3669 4666 
L 4325 4666 
L 2547 0 
L 1831 0 
z
" transform="scale(0.015625)"/>
       <path id="DejaVuSans-2f" d="M 1625 4666 
L 2156 4666 
L 531 -594 
L 0 -594 
L 1625 4666 
z
" transform="scale(0.015625)"/>
       <path id="DejaVuSans-c5" d="M 2663 5081 
Q 2663 5278 2523 5417 
Q 2384 5556 2188 5556 
Q 1988 5556 1852 5420 
Q 1716 5284 1716 5081 
Q 1716 4884 1853 4746 
Q 1991 4609 2188 4609 
Q 2384 4609 2523 4746 
Q 2663 4884 2663 5081 
z
M 2188 4044 
L 1338 1722 
L 3041 1722 
L 2188 4044 
z
M 1716 4366 
Q 1525 4494 1428 4673 
Q 1331 4853 1331 5081 
Q 1331 5441 1579 5691 
Q 1828 5941 2188 5941 
Q 2544 5941 2795 5689 
Q 3047 5438 3047 5081 
Q 3047 4863 2948 4678 
Q 2850 4494 2663 4366 
L 4325 0 
L 3669 0 
L 3244 1197 
L 1141 1197 
L 716 0 
L 50 0 
L 1716 4366 
z
" transform="scale(0.015625)"/>
      </defs>
      <use xlink:href="#DejaVuSans-46"/>
      <use xlink:href="#DejaVuSans-6f" transform="translate(53.894531 0)"/>
      <use xlink:href="#DejaVuSans-72" transform="translate(115.076172 0)"/>
      <use xlink:href="#DejaVuSans-63" transform="translate(153.939453 0)"/>
      <use xlink:href="#DejaVuSans-65" transform="translate(208.919922 0)"/>
      <use xlink:href="#DejaVuSans-20" transform="translate(270.443359 0)"/>
      <use xlink:href="#DejaVuSans-4d" transform="translate(302.230469 0)"/>
      <use xlink:href="#DejaVuSans-61" transform="translate(388.509766 0)"/>
      <use xlink:href="#DejaVuSans-67" transform="translate(449.789062 0)"/>
      <use xlink:href="#DejaVuSans-6e" transform="translate(513.265625 0)"/>
      <use xlink:href="#DejaVuSans-69" transform="translate(576.644531 0)"/>
      <use xlink:href="#DejaVuSans-74" transform="translate(604.427734 0)"/>
      <use xlink:href="#DejaVuSans-75" transform="translate(643.636719 0)"/>
      <use xlink:href="#DejaVuSans-64" transform="translate(707.015625 0)"/>
      <use xlink:href="#DejaVuSans-65" transform="translate(770.492188 0)"/>
      <use xlink:href="#DejaVuSans-20" transform="translate(832.015625 0)"/>
      <use xlink:href="#DejaVuSans-44" transform="translate(863.802734 0)"/>
      <use xlink:href="#DejaVuSans-69" transform="translate(940.804688 0)"/>
      <use xlink:href="#DejaVuSans-66" transform="translate(968.587891 0)"/>
      <use xlink:href="#DejaVuSans-66" transform="translate(1003.792969 0)"/>
      <use xlink:href="#DejaVuSans-65" transform="translate(1038.998047 0)"/>
      <use xlink:href="#DejaVuSans-72" transform="translate(1100.521484 0)"/>
      <use xlink:href="#DejaVuSans-65" transform="translate(1139.384766 0)"/>
      <use xlink:href="#DejaVuSans-6e" transform="translate(1200.908203 0)"/>
      <use xlink:href="#DejaVuSans-63" transform="translate(1264.287109 0)"/>
      <use xlink:href="#DejaVuSans-65" transform="translate(1319.267578 0)"/>
      <use xlink:href="#DejaVuSans-20" transform="translate(1380.791016 0)"/>
      <use xlink:href="#DejaVuSans-28" transform="translate(1412.578125 0)"/>
      <use xlink:href="#DejaVuSans-65" transform="translate(1451.591797 0)"/>
      <use xlink:href="#DejaVuSans-56" transform="translate(1513.115234 0)"/>
      <use xlink:href="#DejaVuSans-2f" transform="translate(1581.523438 0)"/>
      <use xlink:href="#DejaVuSans-c5" transform="translate(1615.214844 0)"/>
      <use xlink:href="#DejaVuSans-29" transform="translate(1683.623047 0)"/>
     </g>
    </g>
   </g>
   <g id="FillBetweenPolyCollection_1">
    <defs>
     <path id="m94320b21c7" d="M 89.263551 -250.343497 
L 89.263551 -107.443977 
L 104.110558 -103.792992 
L 118.957564 -113.139548 
L 133.804571 -104.64712 
L 148.651578 -108.466896 
L 163.498584 -110.084396 
L 178.345591 -128.643933 
L 193.192598 -140.2334 
L 208.039604 -131.880426 
L 222.886611 -130.300061 
L 237.733618 -122.786386 
L 252.580624 -119.787336 
L 267.427631 -117.943205 
L 282.274638 -108.673869 
L 297.121644 -98.413331 
L 311.968651 -99.445219 
L 326.815658 -100.936545 
L 341.662664 -93.721281 
L 356.509671 -91.733634 
L 371.356678 -90.729052 
L 386.203684 -93.190053 
L 401.050691 -83.367103 
L 415.897697 -69.555857 
L 430.744704 -66.546179 
L 445.591711 -89.315638 
L 460.438717 -107.464845 
L 475.285724 -116.243211 
L 490.132731 -117.799131 
L 504.979737 -129.021854 
L 519.826744 -131.401552 
L 534.673751 -127.191079 
L 549.520757 -102.180051 
L 564.367764 -91.067805 
L 579.214771 -98.746309 
L 594.061777 -110.927238 
L 608.908784 -123.200819 
L 623.755791 -112.137446 
L 638.602797 -111.691957 
L 653.449804 -96.64303 
L 668.296811 -88.886279 
L 683.143817 -101.987157 
L 697.990824 -101.343487 
L 697.990824 -229.709554 
L 697.990824 -229.709554 
L 683.143817 -244.177809 
L 668.296811 -234.186634 
L 653.449804 -246.748138 
L 638.602797 -252.223455 
L 623.755791 -259.636073 
L 608.908784 -269.153627 
L 594.061777 -261.252159 
L 579.214771 -246.531479 
L 564.367764 -227.893144 
L 549.520757 -234.508333 
L 534.673751 -260.507413 
L 519.826744 -280.914352 
L 504.979737 -276.556087 
L 490.132731 -261.775524 
L 475.285724 -254.484044 
L 460.438717 -232.628274 
L 445.591711 -211.1003 
L 430.744704 -192.584983 
L 415.897697 -201.479427 
L 401.050691 -212.748289 
L 386.203684 -220.185429 
L 371.356678 -233.441026 
L 356.509671 -230.910944 
L 341.662664 -234.29459 
L 326.815658 -241.991364 
L 311.968651 -240.631295 
L 297.121644 -240.777257 
L 282.274638 -251.617378 
L 267.427631 -249.372199 
L 252.580624 -236.10937 
L 237.733618 -235.899332 
L 222.886611 -240.552787 
L 208.039604 -241.253153 
L 193.192598 -249.379474 
L 178.345591 -251.545926 
L 163.498584 -242.882797 
L 148.651578 -250.823102 
L 133.804571 -247.768956 
L 118.957564 -252.233141 
L 104.110558 -248.37418 
L 89.263551 -250.343497 
z
" style="stroke: #4c72b0; stroke-opacity: 0.2"/>
    </defs>
    <g clip-path="url(#pc804661e27)">
     <use xlink:href="#m94320b21c7" x="0" y="397.917813" style="fill: #4c72b0; fill-opacity: 0.2; stroke: #4c72b0; stroke-opacity: 0.2"/>
    </g>
   </g>
   <g id="FillBetweenPolyCollection_2">
    <defs>
     <path id="m0448e2218b" d="M 89.263551 -244.979338 
L 89.263551 -118.004898 
L 104.110558 -113.965013 
L 118.957564 -107.020505 
L 133.804571 -107.575485 
L 148.651578 -103.108494 
L 163.498584 -110.866484 
L 178.345591 -126.389026 
L 193.192598 -135.31347 
L 208.039604 -127.739779 
L 222.886611 -120.826642 
L 237.733618 -110.94533 
L 252.580624 -109.816612 
L 267.427631 -116.953814 
L 282.274638 -104.74406 
L 297.121644 -98.582054 
L 311.968651 -102.791641 
L 326.815658 -102.106671 
L 341.662664 -95.048025 
L 356.509671 -101.95597 
L 371.356678 -95.336005 
L 386.203684 -95.68579 
L 401.050691 -89.228949 
L 415.897697 -75.701744 
L 430.744704 -73.152027 
L 445.591711 -90.236445 
L 460.438717 -115.125237 
L 475.285724 -124.543476 
L 490.132731 -134.929828 
L 504.979737 -138.803546 
L 519.826744 -143.361888 
L 534.673751 -132.516032 
L 549.520757 -110.869517 
L 564.367764 -92.192103 
L 579.214771 -96.932551 
L 594.061777 -111.224431 
L 608.908784 -115.835868 
L 623.755791 -109.788363 
L 638.602797 -98.611904 
L 653.449804 -93.220677 
L 668.296811 -84.571713 
L 683.143817 -88.563304 
L 697.990824 -82.203469 
L 697.990824 -205.302136 
L 697.990824 -205.302136 
L 683.143817 -223.586134 
L 668.296811 -225.768411 
L 653.449804 -227.002108 
L 638.602797 -243.45531 
L 623.755791 -250.747816 
L 608.908784 -252.548549 
L 594.061777 -258.820365 
L 579.214771 -241.626351 
L 564.367764 -227.168966 
L 549.520757 -236.023758 
L 534.673751 -266.665685 
L 519.826744 -287.769455 
L 504.979737 -280.649464 
L 490.132731 -272.043143 
L 475.285724 -261.737841 
L 460.438717 -246.989505 
L 445.591711 -222.920207 
L 430.744704 -207.421849 
L 415.897697 -204.16918 
L 401.050691 -218.563455 
L 386.203684 -235.86075 
L 371.356678 -236.175473 
L 356.509671 -240.027081 
L 341.662664 -238.579297 
L 326.815658 -254.227423 
L 311.968651 -243.946912 
L 297.121644 -247.62275 
L 282.274638 -256.102308 
L 267.427631 -252.864934 
L 252.580624 -241.156004 
L 237.733618 -237.822105 
L 222.886611 -240.73842 
L 208.039604 -244.522297 
L 193.192598 -255.506986 
L 178.345591 -250.508742 
L 163.498584 -238.82344 
L 148.651578 -236.49877 
L 133.804571 -239.769856 
L 118.957564 -246.582775 
L 104.110558 -248.233961 
L 89.263551 -244.979338 
z
" style="stroke: #dd8452; stroke-opacity: 0.2"/>
    </defs>
    <g clip-path="url(#pc804661e27)">
     <use xlink:href="#m0448e2218b" x="0" y="397.917813" style="fill: #dd8452; fill-opacity: 0.2; stroke: #dd8452; stroke-opacity: 0.2"/>
    </g>
   </g>
   <g id="FillBetweenPolyCollection_3">
    <defs>
     <path id="mf194bf2a7c" d="M 89.263551 -316.49298 
L 89.263551 -159.129352 
L 104.110558 -142.234205 
L 118.957564 -144.405544 
L 133.804571 -145.117771 
L 148.651578 -148.582436 
L 163.498584 -146.138705 
L 178.345591 -166.729629 
L 193.192598 -169.99728 
L 208.039604 -156.381932 
L 222.886611 -147.520625 
L 237.733618 -143.395701 
L 252.580624 -149.348616 
L 267.427631 -156.653136 
L 282.274638 -156.104579 
L 297.121644 -154.222213 
L 311.968651 -156.865108 
L 326.815658 -156.077327 
L 341.662664 -152.799886 
L 356.509671 -152.738357 
L 371.356678 -154.057451 
L 386.203684 -146.588019 
L 401.050691 -134.49542 
L 415.897697 -119.208769 
L 430.744704 -129.812277 
L 445.591711 -162.658542 
L 460.438717 -178.535347 
L 475.285724 -191.671159 
L 490.132731 -204.146995 
L 504.979737 -202.830725 
L 519.826744 -206.500861 
L 534.673751 -183.001559 
L 549.520757 -163.210202 
L 564.367764 -156.563899 
L 579.214771 -150.438985 
L 594.061777 -165.735779 
L 608.908784 -167.619558 
L 623.755791 -164.295781 
L 638.602797 -159.025612 
L 653.449804 -142.993755 
L 668.296811 -136.644143 
L 683.143817 -143.9375 
L 697.990824 -145.171571 
L 697.990824 -270.811888 
L 697.990824 -270.811888 
L 683.143817 -277.478462 
L 668.296811 -280.364753 
L 653.449804 -284.728445 
L 638.602797 -303.641125 
L 623.755791 -314.945484 
L 608.908784 -319.838175 
L 594.061777 -320.315612 
L 579.214771 -311.776691 
L 564.367764 -297.474882 
L 549.520757 -302.681182 
L 534.673751 -333.475683 
L 519.826744 -360.479687 
L 504.979737 -360.307388 
L 490.132731 -350.994794 
L 475.285724 -338.818472 
L 460.438717 -315.323726 
L 445.591711 -299.614548 
L 430.744704 -272.73465 
L 415.897697 -259.463721 
L 401.050691 -272.31973 
L 386.203684 -279.525976 
L 371.356678 -293.851583 
L 356.509671 -292.82778 
L 341.662664 -292.798173 
L 326.815658 -301.97193 
L 311.968651 -307.494363 
L 297.121644 -307.329441 
L 282.274638 -313.202754 
L 267.427631 -314.283623 
L 252.580624 -299.393153 
L 237.733618 -287.400852 
L 222.886611 -289.831041 
L 208.039604 -294.635805 
L 193.192598 -301.684798 
L 178.345591 -297.904671 
L 163.498584 -285.297704 
L 148.651578 -282.587731 
L 133.804571 -290.286883 
L 118.957564 -291.537784 
L 104.110558 -300.310416 
L 89.263551 -316.49298 
z
" style="stroke: #55a868; stroke-opacity: 0.2"/>
    </defs>
    <g clip-path="url(#pc804661e27)">
     <use xlink:href="#mf194bf2a7c" x="0" y="397.917813" style="fill: #55a868; fill-opacity: 0.2; stroke: #55a868; stroke-opacity: 0.2"/>
    </g>
   </g>
   <g id="FillBetweenPolyCollection_4">
    <defs>
     <path id="m7bdef0fdcf" d="M 89.263551 -290.939055 
L 89.263551 -147.794383 
L 104.110558 -150.419078 
L 118.957564 -144.653979 
L 133.804571 -137.553598 
L 148.651578 -137.992467 
L 163.498584 -134.644431 
L 178.345591 -143.945796 
L 193.192598 -137.592095 
L 208.039604 -118.711395 
L 222.886611 -107.739968 
L 237.733618 -90.012531 
L 252.580624 -87.149486 
L 267.427631 -85.848779 
L 282.274638 -91.30889 
L 297.121644 -91.746122 
L 311.968651 -100.411951 
L 326.815658 -100.09848 
L 341.662664 -91.494835 
L 356.509671 -98.958654 
L 371.356678 -100.376714 
L 386.203684 -89.621621 
L 401.050691 -77.03713 
L 415.897697 -60.494986 
L 430.744704 -60.634139 
L 445.591711 -80.202073 
L 460.438717 -99.331132 
L 475.285724 -124.302191 
L 490.132731 -136.105868 
L 504.979737 -141.922262 
L 519.826744 -151.972931 
L 534.673751 -132.686027 
L 549.520757 -108.923412 
L 564.367764 -89.273031 
L 579.214771 -96.346109 
L 594.061777 -93.106132 
L 608.908784 -96.326826 
L 623.755791 -90.658727 
L 638.602797 -82.853125 
L 653.449804 -73.372915 
L 668.296811 -79.28417 
L 683.143817 -92.618295 
L 697.990824 -80.439004 
L 697.990824 -206.175249 
L 697.990824 -206.175249 
L 683.143817 -218.60632 
L 668.296811 -207.229354 
L 653.449804 -214.918919 
L 638.602797 -221.542514 
L 623.755791 -233.069794 
L 608.908784 -239.040548 
L 594.061777 -231.193726 
L 579.214771 -225.477585 
L 564.367764 -208.591556 
L 549.520757 -224.965417 
L 534.673751 -246.940065 
L 519.826744 -272.209145 
L 504.979737 -271.247828 
L 490.132731 -264.323124 
L 475.285724 -260.360366 
L 460.438717 -233.676375 
L 445.591711 -212.129387 
L 430.744704 -192.839204 
L 415.897697 -194.219202 
L 401.050691 -206.086457 
L 386.203684 -215.434911 
L 371.356678 -218.968189 
L 356.509671 -225.154662 
L 341.662664 -224.706348 
L 326.815658 -231.820455 
L 311.968651 -239.230572 
L 297.121644 -226.654187 
L 282.274638 -234.462219 
L 267.427631 -226.408523 
L 252.580624 -217.016898 
L 237.733618 -230.519183 
L 222.886611 -225.973391 
L 208.039604 -244.492661 
L 193.192598 -260.324392 
L 178.345591 -262.44464 
L 163.498584 -269.519776 
L 148.651578 -263.582125 
L 133.804571 -272.075358 
L 118.957564 -276.375811 
L 104.110558 -286.557793 
L 89.263551 -290.939055 
z
" style="stroke: #c44e52; stroke-opacity: 0.2"/>
    </defs>
    <g clip-path="url(#pc804661e27)">
     <use xlink:href="#m7bdef0fdcf" x="0" y="397.917813" style="fill: #c44e52; fill-opacity: 0.2; stroke: #c44e52; stroke-opacity: 0.2"/>
    </g>
   </g>
   <g id="FillBetweenPolyCollection_5">
    <defs>
     <path id="m171174cb45" d="M 89.263551 -260.200276 
L 89.263551 -106.360861 
L 104.110558 -108.931939 
L 118.957564 -111.93815 
L 133.804571 -111.62111 
L 148.651578 -104.95894 
L 163.498584 -110.176257 
L 178.345591 -122.01617 
L 193.192598 -137.053854 
L 208.039604 -137.175975 
L 222.886611 -126.81588 
L 237.733618 -122.751736 
L 252.580624 -117.556754 
L 267.427631 -121.439555 
L 282.274638 -100.094356 
L 297.121644 -102.704257 
L 311.968651 -94.805736 
L 326.815658 -95.027615 
L 341.662664 -91.082689 
L 356.509671 -95.107318 
L 371.356678 -90.038771 
L 386.203684 -87.077879 
L 401.050691 -84.265015 
L 415.897697 -68.064173 
L 430.744704 -70.248071 
L 445.591711 -91.562944 
L 460.438717 -107.05318 
L 475.285724 -113.896206 
L 490.132731 -124.334301 
L 504.979737 -131.731517 
L 519.826744 -132.363336 
L 534.673751 -118.744341 
L 549.520757 -102.387945 
L 564.367764 -90.71552 
L 579.214771 -94.859079 
L 594.061777 -111.523199 
L 608.908784 -125.124407 
L 623.755791 -117.009865 
L 638.602797 -109.084706 
L 653.449804 -99.562252 
L 668.296811 -91.096013 
L 683.143817 -99.978273 
L 697.990824 -104.620932 
L 697.990824 -231.486063 
L 697.990824 -231.486063 
L 683.143817 -241.116695 
L 668.296811 -232.34205 
L 653.449804 -243.893994 
L 638.602797 -252.020309 
L 623.755791 -265.935011 
L 608.908784 -265.870595 
L 594.061777 -259.550317 
L 579.214771 -247.536993 
L 564.367764 -230.935456 
L 549.520757 -230.170378 
L 534.673751 -259.256637 
L 519.826744 -281.821823 
L 504.979737 -270.324319 
L 490.132731 -261.632529 
L 475.285724 -248.424572 
L 460.438717 -233.115966 
L 445.591711 -211.89316 
L 430.744704 -192.833741 
L 415.897697 -195.666474 
L 401.050691 -213.088143 
L 386.203684 -226.842454 
L 371.356678 -227.458201 
L 356.509671 -230.723422 
L 341.662664 -231.709737 
L 326.815658 -241.596154 
L 311.968651 -238.975279 
L 297.121644 -248.651587 
L 282.274638 -241.577729 
L 267.427631 -252.454452 
L 252.580624 -235.572178 
L 237.733618 -233.392423 
L 222.886611 -234.068463 
L 208.039604 -242.979497 
L 193.192598 -256.796334 
L 178.345591 -250.518397 
L 163.498584 -243.547028 
L 148.651578 -241.625234 
L 133.804571 -242.504903 
L 118.957564 -248.648697 
L 104.110558 -251.672243 
L 89.263551 -260.200276 
z
" style="stroke: #8172b3; stroke-opacity: 0.2"/>
    </defs>
    <g clip-path="url(#pc804661e27)">
     <use xlink:href="#m171174cb45" x="0" y="397.917813" style="fill: #8172b3; fill-opacity: 0.2; stroke: #8172b3; stroke-opacity: 0.2"/>
    </g>
   </g>
   <g id="FillBetweenPolyCollection_6">
    <defs>
     <path id="m9f4e153c7e" d="M 89.263551 -251.603864 
L 89.263551 -112.843109 
L 104.110558 -111.933678 
L 118.957564 -111.191951 
L 133.804571 -106.115923 
L 148.651578 -109.177377 
L 163.498584 -111.334821 
L 178.345591 -122.867513 
L 193.192598 -131.94112 
L 208.039604 -131.226654 
L 222.886611 -121.697261 
L 237.733618 -117.094996 
L 252.580624 -108.538696 
L 267.427631 -108.192613 
L 282.274638 -103.202579 
L 297.121644 -98.377231 
L 311.968651 -97.122271 
L 326.815658 -105.586446 
L 341.662664 -94.060684 
L 356.509671 -103.880364 
L 371.356678 -97.257383 
L 386.203684 -99.240066 
L 401.050691 -89.742702 
L 415.897697 -69.264908 
L 430.744704 -72.3157 
L 445.591711 -95.52373 
L 460.438717 -115.52611 
L 475.285724 -124.476857 
L 490.132731 -134.284152 
L 504.979737 -138.298734 
L 519.826744 -144.960306 
L 534.673751 -133.684183 
L 549.520757 -110.551528 
L 564.367764 -90.457581 
L 579.214771 -98.834187 
L 594.061777 -109.215408 
L 608.908784 -116.571955 
L 623.755791 -113.997053 
L 638.602797 -102.99217 
L 653.449804 -94.968273 
L 668.296811 -83.099717 
L 683.143817 -85.456341 
L 697.990824 -81.971809 
L 697.990824 -214.250876 
L 697.990824 -214.250876 
L 683.143817 -226.897304 
L 668.296811 -224.430952 
L 653.449804 -235.804412 
L 638.602797 -241.535259 
L 623.755791 -249.399429 
L 608.908784 -251.504946 
L 594.061777 -251.73997 
L 579.214771 -239.579579 
L 564.367764 -222.754678 
L 549.520757 -238.375593 
L 534.673751 -263.69097 
L 519.826744 -285.599531 
L 504.979737 -281.473433 
L 490.132731 -275.564203 
L 475.285724 -260.805135 
L 460.438717 -245.189297 
L 445.591711 -222.320803 
L 430.744704 -201.708585 
L 415.897697 -199.62283 
L 401.050691 -215.98444 
L 386.203684 -232.71576 
L 371.356678 -236.61939 
L 356.509671 -237.190949 
L 341.662664 -240.955666 
L 326.815658 -245.472387 
L 311.968651 -241.008453 
L 297.121644 -248.844462 
L 282.274638 -254.584805 
L 267.427631 -248.635116 
L 252.580624 -241.251625 
L 237.733618 -239.693826 
L 222.886611 -241.944495 
L 208.039604 -246.655798 
L 193.192598 -253.073432 
L 178.345591 -246.467217 
L 163.498584 -242.413751 
L 148.651578 -236.432595 
L 133.804571 -239.764505 
L 118.957564 -246.889705 
L 104.110558 -244.859731 
L 89.263551 -251.603864 
z
" style="stroke: #937860; stroke-opacity: 0.2"/>
    </defs>
    <g clip-path="url(#pc804661e27)">
     <use xlink:href="#m9f4e153c7e" x="0" y="397.917813" style="fill: #937860; fill-opacity: 0.2; stroke: #937860; stroke-opacity: 0.2"/>
    </g>
   </g>
   <g id="FillBetweenPolyCollection_7">
    <defs>
     <path id="m5235253dcb" d="M 89.263551 -237.638073 
L 89.263551 -105.22435 
L 104.110558 -105.40468 
L 118.957564 -102.564815 
L 133.804571 -93.591307 
L 148.651578 -96.064534 
L 163.498584 -98.487517 
L 178.345591 -101.724432 
L 193.192598 -108.468072 
L 208.039604 -110.277458 
L 222.886611 -102.058483 
L 237.733618 -92.980256 
L 252.580624 -95.619957 
L 267.427631 -106.326697 
L 282.274638 -103.009996 
L 297.121644 -99.563435 
L 311.968651 -103.809293 
L 326.815658 -98.752997 
L 341.662664 -87.071899 
L 356.509671 -87.422057 
L 371.356678 -89.501823 
L 386.203684 -87.080829 
L 401.050691 -78.359379 
L 415.897697 -58.079687 
L 430.744704 -67.357592 
L 445.591711 -89.22774 
L 460.438717 -102.109615 
L 475.285724 -118.742232 
L 490.132731 -124.08414 
L 504.979737 -128.110194 
L 519.826744 -130.893495 
L 534.673751 -113.875912 
L 549.520757 -79.435646 
L 564.367764 -61.531685 
L 579.214771 -83.598366 
L 594.061777 -95.849356 
L 608.908784 -103.736197 
L 623.755791 -104.885438 
L 638.602797 -100.562579 
L 653.449804 -91.578867 
L 668.296811 -94.16057 
L 683.143817 -99.128475 
L 697.990824 -92.311286 
L 697.990824 -218.993422 
L 697.990824 -218.993422 
L 683.143817 -229.134789 
L 668.296811 -229.332306 
L 653.449804 -233.355002 
L 638.602797 -233.663305 
L 623.755791 -239.158241 
L 608.908784 -244.53849 
L 594.061777 -246.045968 
L 579.214771 -230.844486 
L 564.367764 -204.433735 
L 549.520757 -217.624078 
L 534.673751 -248.207435 
L 519.826744 -268.627073 
L 504.979737 -267.744571 
L 490.132731 -260.42877 
L 475.285724 -250.994002 
L 460.438717 -234.869719 
L 445.591711 -215.908377 
L 430.744704 -194.599305 
L 415.897697 -199.0694 
L 401.050691 -218.267472 
L 386.203684 -221.652162 
L 371.356678 -238.603338 
L 356.509671 -231.25694 
L 341.662664 -242.395671 
L 326.815658 -249.976574 
L 311.968651 -250.182492 
L 297.121644 -248.231791 
L 282.274638 -260.014081 
L 267.427631 -249.874187 
L 252.580624 -235.311474 
L 237.733618 -235.508122 
L 222.886611 -230.100776 
L 208.039604 -239.90064 
L 193.192598 -236.591473 
L 178.345591 -238.247394 
L 163.498584 -229.970496 
L 148.651578 -228.871585 
L 133.804571 -237.893982 
L 118.957564 -228.54435 
L 104.110558 -237.912828 
L 89.263551 -237.638073 
z
" style="stroke: #da8bc3; stroke-opacity: 0.2"/>
    </defs>
    <g clip-path="url(#pc804661e27)">
     <use xlink:href="#m5235253dcb" x="0" y="397.917813" style="fill: #da8bc3; fill-opacity: 0.2; stroke: #da8bc3; stroke-opacity: 0.2"/>
    </g>
   </g>
   <g id="FillBetweenPolyCollection_8">
    <defs>
     <path id="m2cd3809921" d="M 89.263551 -277.9099 
L 89.263551 -133.681201 
L 104.110558 -122.216563 
L 118.957564 -124.668219 
L 133.804571 -123.65679 
L 148.651578 -128.073629 
L 163.498584 -124.581251 
L 178.345591 -125.189176 
L 193.192598 -135.742977 
L 208.039604 -136.387117 
L 222.886611 -126.020136 
L 237.733618 -126.822023 
L 252.580624 -136.291839 
L 267.427631 -138.077485 
L 282.274638 -129.206992 
L 297.121644 -124.899604 
L 311.968651 -122.548824 
L 326.815658 -119.609752 
L 341.662664 -118.231397 
L 356.509671 -118.01865 
L 371.356678 -113.151552 
L 386.203684 -109.799492 
L 401.050691 -102.524734 
L 415.897697 -87.016048 
L 430.744704 -85.516128 
L 445.591711 -99.740692 
L 460.438717 -116.402149 
L 475.285724 -134.325069 
L 490.132731 -138.544957 
L 504.979737 -140.331248 
L 519.826744 -148.671584 
L 534.673751 -136.190895 
L 549.520757 -116.364095 
L 564.367764 -97.237797 
L 579.214771 -103.764473 
L 594.061777 -105.658717 
L 608.908784 -114.48002 
L 623.755791 -109.132989 
L 638.602797 -104.385627 
L 653.449804 -99.078791 
L 668.296811 -90.082368 
L 683.143817 -98.789388 
L 697.990824 -90.644165 
L 697.990824 -216.855716 
L 697.990824 -216.855716 
L 683.143817 -236.737376 
L 668.296811 -240.076915 
L 653.449804 -241.529988 
L 638.602797 -246.737537 
L 623.755791 -258.965888 
L 608.908784 -258.087511 
L 594.061777 -255.524091 
L 579.214771 -251.628935 
L 564.367764 -234.065975 
L 549.520757 -246.94449 
L 534.673751 -266.795527 
L 519.826744 -280.927706 
L 504.979737 -284.373302 
L 490.132731 -274.71627 
L 475.285724 -260.315748 
L 460.438717 -241.579901 
L 445.591711 -227.498001 
L 430.744704 -212.727134 
L 415.897697 -209.690113 
L 401.050691 -233.790387 
L 386.203684 -241.607545 
L 371.356678 -242.246511 
L 356.509671 -258.247036 
L 341.662664 -255.039551 
L 326.815658 -251.432767 
L 311.968651 -265.079513 
L 297.121644 -264.853732 
L 282.274638 -260.793665 
L 267.427631 -261.019868 
L 252.580624 -249.620139 
L 237.733618 -241.192423 
L 222.886611 -246.447741 
L 208.039604 -252.990727 
L 193.192598 -260.179973 
L 178.345591 -263.62781 
L 163.498584 -266.689916 
L 148.651578 -259.088734 
L 133.804571 -268.192396 
L 118.957564 -265.795909 
L 104.110558 -268.656718 
L 89.263551 -277.9099 
z
" style="stroke: #8c8c8c; stroke-opacity: 0.2"/>
    </defs>
    <g clip-path="url(#pc804661e27)">
     <use xlink:href="#m2cd3809921" x="0" y="397.917813" style="fill: #8c8c8c; fill-opacity: 0.2; stroke: #8c8c8c; stroke-opacity: 0.2"/>
    </g>
   </g>
   <g id="FillBetweenPolyCollection_9">
    <defs>
     <path id="me88c5b8b08" d="M 89.263551 -266.183409 
L 89.263551 -131.881187 
L 104.110558 -128.724047 
L 118.957564 -124.799574 
L 133.804571 -113.764448 
L 148.651578 -117.733879 
L 163.498584 -120.317574 
L 178.345591 -127.755963 
L 193.192598 -133.036373 
L 208.039604 -131.45696 
L 222.886611 -126.662214 
L 237.733618 -129.270507 
L 252.580624 -134.866365 
L 267.427631 -138.09176 
L 282.274638 -134.429578 
L 297.121644 -132.184065 
L 311.968651 -133.458129 
L 326.815658 -130.356938 
L 341.662664 -121.73866 
L 356.509671 -125.095017 
L 371.356678 -118.28097 
L 386.203684 -125.526824 
L 401.050691 -113.100267 
L 415.897697 -103.338154 
L 430.744704 -99.516446 
L 445.591711 -117.143699 
L 460.438717 -128.680973 
L 475.285724 -134.774109 
L 490.132731 -143.860831 
L 504.979737 -147.037846 
L 519.826744 -152.170014 
L 534.673751 -140.40288 
L 549.520757 -121.571814 
L 564.367764 -102.148309 
L 579.214771 -116.729428 
L 594.061777 -125.501733 
L 608.908784 -124.278433 
L 623.755791 -127.727254 
L 638.602797 -116.581101 
L 653.449804 -110.403272 
L 668.296811 -101.56342 
L 683.143817 -117.66485 
L 697.990824 -108.126282 
L 697.990824 -248.518209 
L 697.990824 -248.518209 
L 683.143817 -260.540964 
L 668.296811 -259.802466 
L 653.449804 -263.799102 
L 638.602797 -264.299859 
L 623.755791 -280.253409 
L 608.908784 -280.26545 
L 594.061777 -286.989799 
L 579.214771 -270.836163 
L 564.367764 -260.673794 
L 549.520757 -271.840369 
L 534.673751 -293.882798 
L 519.826744 -309.417647 
L 504.979737 -309.987913 
L 490.132731 -293.656248 
L 475.285724 -284.440374 
L 460.438717 -266.322701 
L 445.591711 -248.840415 
L 430.744704 -233.291167 
L 415.897697 -237.127254 
L 401.050691 -254.366825 
L 386.203684 -262.96569 
L 371.356678 -272.594001 
L 356.509671 -275.784061 
L 341.662664 -265.859359 
L 326.815658 -275.50654 
L 311.968651 -280.885552 
L 297.121644 -280.529374 
L 282.274638 -280.484404 
L 267.427631 -278.674241 
L 252.580624 -258.665648 
L 237.733618 -258.386293 
L 222.886611 -256.356907 
L 208.039604 -260.143753 
L 193.192598 -256.457701 
L 178.345591 -264.211021 
L 163.498584 -257.934048 
L 148.651578 -261.107964 
L 133.804571 -260.559613 
L 118.957564 -272.03424 
L 104.110558 -266.814296 
L 89.263551 -266.183409 
z
" style="stroke: #ccb974; stroke-opacity: 0.2"/>
    </defs>
    <g clip-path="url(#pc804661e27)">
     <use xlink:href="#me88c5b8b08" x="0" y="397.917813" style="fill: #ccb974; fill-opacity: 0.2; stroke: #ccb974; stroke-opacity: 0.2"/>
    </g>
   </g>
   <g id="line2d_15">
    <path d="M 89.263551 218.662933 
L 104.110558 221.146382 
L 118.957564 219.217044 
L 133.804571 222.690455 
L 148.651578 223.436129 
L 163.498584 221.214774 
L 178.345591 207.787506 
L 193.192598 203.838648 
L 208.039604 207.979492 
L 222.886611 215.594976 
L 237.733618 221.299888 
L 252.580624 221.045862 
L 267.427631 215.002831 
L 282.274638 222.047997 
L 297.121644 225.344986 
L 311.968651 228.832059 
L 326.815658 232.942826 
L 341.662664 238.100703 
L 356.509671 235.716179 
L 371.356678 238.687962 
L 386.203684 240.820216 
L 401.050691 249.071292 
L 415.897697 264.942584 
L 430.744704 267.766032 
L 445.591711 247.547702 
L 460.438717 228.666772 
L 475.285724 214.705121 
L 490.132731 203.884279 
L 504.979737 196.101015 
L 519.826744 192.311996 
L 534.673751 205.486662 
L 549.520757 227.564346 
L 564.367764 238.086008 
L 579.214771 222.735419 
L 594.061777 211.772713 
L 608.908784 206.923655 
L 623.755791 209.433407 
L 638.602797 217.764242 
L 653.449804 228.281909 
L 668.296811 232.549949 
L 683.143817 227.979644 
L 697.990824 231.497363 
" clip-path="url(#pc804661e27)" style="fill: none; stroke: #4c72b0; stroke-width: 1.5; stroke-linecap: round"/>
   </g>
   <g id="line2d_16">
    <path d="M 89.263551 215.887665 
L 104.110558 219.520568 
L 118.957564 219.99934 
L 133.804571 226.09897 
L 148.651578 226.409103 
L 163.498584 222.678129 
L 178.345591 210.119224 
L 193.192598 205.361006 
L 208.039604 209.802728 
L 222.886611 217.632939 
L 237.733618 222.76136 
L 252.580624 222.148976 
L 267.427631 216.809704 
L 282.274638 220.714516 
L 297.121644 222.318557 
L 311.968651 223.113574 
L 326.815658 226.143718 
L 341.662664 231.810949 
L 356.509671 229.998417 
L 371.356678 233.122001 
L 386.203684 235.361377 
L 401.050691 244.270507 
L 415.897697 261.667277 
L 430.744704 260.002722 
L 445.591711 238.382653 
L 460.438717 219.552419 
L 475.285724 205.418387 
L 490.132731 194.788219 
L 504.979737 186.577953 
L 519.826744 183.63256 
L 534.673751 200.105885 
L 549.520757 226.154957 
L 564.367764 241.977753 
L 579.214771 228.739903 
L 594.061777 217.439559 
L 608.908784 214.516979 
L 623.755791 218.097381 
L 638.602797 226.664849 
L 653.449804 238.046584 
L 668.296811 242.929425 
L 683.143817 243.52774 
L 697.990824 253.193664 
" clip-path="url(#pc804661e27)" style="fill: none; stroke: #dd8452; stroke-width: 1.5; stroke-linecap: round"/>
   </g>
   <g id="line2d_17">
    <path d="M 89.263551 167.266206 
L 104.110558 175.427524 
L 118.957564 177.892069 
L 133.804571 184.819854 
L 148.651578 183.505791 
L 163.498584 178.292168 
L 178.345591 163.293828 
L 193.192598 161.357209 
L 208.039604 170.892292 
L 222.886611 180.923879 
L 237.733618 179.212394 
L 252.580624 168.740663 
L 267.427631 163.104601 
L 282.274638 165.466677 
L 297.121644 164.419633 
L 311.968651 164.694784 
L 326.815658 168.060777 
L 341.662664 173.560121 
L 356.509671 176.153299 
L 371.356678 181.518599 
L 386.203684 185.541298 
L 401.050691 195.650158 
L 415.897697 209.741812 
L 430.744704 196.452029 
L 445.591711 168.155121 
L 460.438717 148.648679 
L 475.285724 133.614835 
L 490.132731 124.589695 
L 504.979737 118.820739 
L 519.826744 117.780634 
L 534.673751 137.301459 
L 549.520757 163.284736 
L 564.367764 173.587243 
L 579.214771 164.362836 
L 594.061777 156.17098 
L 608.908784 156.331064 
L 623.755791 160.825766 
L 638.602797 169.516658 
L 653.449804 184.483285 
L 668.296811 188.642923 
L 683.143817 188.163885 
L 697.990824 191.100973 
" clip-path="url(#pc804661e27)" style="fill: none; stroke: #55a868; stroke-width: 1.5; stroke-linecap: round"/>
   </g>
   <g id="line2d_18">
    <path d="M 89.263551 179.7706 
L 104.110558 183.553772 
L 118.957564 186.764323 
L 133.804571 195.563744 
L 148.651578 195.599284 
L 163.498584 197.346264 
L 178.345591 196.689379 
L 193.192598 200.297676 
L 208.039604 214.58744 
L 222.886611 229.995958 
L 237.733618 237.71076 
L 252.580624 242.209153 
L 267.427631 238.688722 
L 282.274638 237.513515 
L 297.121644 235.72261 
L 311.968651 232.478609 
L 326.815658 236.129556 
L 341.662664 241.184515 
L 356.509671 236.743609 
L 371.356678 238.74361 
L 386.203684 242.043678 
L 401.050691 253.228208 
L 415.897697 272.832557 
L 430.744704 271.168209 
L 445.591711 250.319117 
L 460.438717 229.84532 
L 475.285724 209.114203 
L 490.132731 195.448548 
L 504.979737 190.012246 
L 519.826744 188.565446 
L 534.673751 205.965133 
L 549.520757 234.52355 
L 564.367764 251.240032 
L 579.214771 237.838174 
L 594.061777 235.289642 
L 608.908784 233.82564 
L 623.755791 237.787635 
L 638.602797 247.117899 
L 653.449804 257.877904 
L 668.296811 253.643606 
L 683.143817 244.281226 
L 697.990824 254.578469 
" clip-path="url(#pc804661e27)" style="fill: none; stroke: #c44e52; stroke-width: 1.5; stroke-linecap: round"/>
   </g>
   <g id="line2d_19">
    <path d="M 89.263551 219.028063 
L 104.110558 221.002771 
L 118.957564 219.802821 
L 133.804571 222.118927 
L 148.651578 222.989338 
L 163.498584 221.561558 
L 178.345591 208.056127 
L 193.192598 204.201222 
L 208.039604 208.179479 
L 222.886611 216.365172 
L 237.733618 220.973472 
L 252.580624 221.439517 
L 267.427631 214.960918 
L 282.274638 222.145013 
L 297.121644 225.598708 
L 311.968651 228.994304 
L 326.815658 232.699981 
L 341.662664 238.367211 
L 356.509671 235.469808 
L 371.356678 238.855214 
L 386.203684 241.021931 
L 401.050691 249.454769 
L 415.897697 265.033012 
L 430.744704 267.790569 
L 445.591711 248.135329 
L 460.438717 229.105246 
L 475.285724 214.616036 
L 490.132731 203.871542 
L 504.979737 196.305674 
L 519.826744 191.905017 
L 534.673751 205.704995 
L 549.520757 227.453485 
L 564.367764 238.035805 
L 579.214771 223.57883 
L 594.061777 211.926893 
L 608.908784 206.81473 
L 623.755791 208.883712 
L 638.602797 217.714147 
L 653.449804 228.314021 
L 668.296811 232.312517 
L 683.143817 228.408167 
L 697.990824 231.648291 
" clip-path="url(#pc804661e27)" style="fill: none; stroke: #8172b3; stroke-width: 1.5; stroke-linecap: round"/>
   </g>
   <g id="line2d_20">
    <path d="M 89.263551 216.163169 
L 104.110558 219.512591 
L 118.957564 220.436585 
L 133.804571 225.709562 
L 148.651578 226.032646 
L 163.498584 223.084276 
L 178.345591 210.32397 
L 193.192598 205.848572 
L 208.039604 209.943455 
L 222.886611 218.464616 
L 237.733618 222.437618 
L 252.580624 222.643008 
L 267.427631 217.090112 
L 282.274638 221.105698 
L 297.121644 222.72591 
L 311.968651 223.445343 
L 326.815658 226.084492 
L 341.662664 231.978463 
L 356.509671 229.893961 
L 371.356678 233.278184 
L 386.203684 235.583566 
L 401.050691 244.857871 
L 415.897697 261.974676 
L 430.744704 260.08549 
L 445.591711 239.12361 
L 460.438717 220.055555 
L 475.285724 205.364503 
L 490.132731 194.760879 
L 504.979737 187.028611 
L 519.826744 183.56244 
L 534.673751 200.312051 
L 549.520757 225.946239 
L 564.367764 241.977626 
L 579.214771 229.728464 
L 594.061777 217.738916 
L 608.908784 214.477096 
L 623.755791 217.660288 
L 638.602797 226.869048 
L 653.449804 237.916164 
L 668.296811 242.888972 
L 683.143817 243.778871 
L 697.990824 253.326282 
" clip-path="url(#pc804661e27)" style="fill: none; stroke: #937860; stroke-width: 1.5; stroke-linecap: round"/>
   </g>
   <g id="line2d_21">
    <path d="M 89.263551 223.412541 
L 104.110558 226.75502 
L 118.957564 229.043947 
L 133.804571 236.204265 
L 148.651578 236.050463 
L 163.498584 233.541146 
L 178.345591 229.271986 
L 193.192598 223.844149 
L 208.039604 226.615384 
L 222.886611 233.857538 
L 237.733618 235.874432 
L 252.580624 233.441265 
L 267.427631 222.762751 
L 282.274638 220.847311 
L 297.121644 221.774601 
L 311.968651 221.442904 
L 326.815658 225.231462 
L 341.662664 233.688497 
L 356.509671 234.223942 
L 371.356678 237.519747 
L 386.203684 239.829791 
L 401.050691 250.199244 
L 415.897697 269.457858 
L 430.744704 265.209478 
L 445.591711 246.73347 
L 460.438717 230.071507 
L 475.285724 213.086625 
L 490.132731 203.90594 
L 504.979737 198.896739 
L 519.826744 197.735173 
L 534.673751 216.516835 
L 549.520757 247.010067 
L 564.367764 260.934633 
L 579.214771 240.56039 
L 594.061777 226.129717 
L 608.908784 222.696504 
L 623.755791 226.036475 
L 638.602797 232.639679 
L 653.449804 238.965746 
L 668.296811 235.044683 
L 683.143817 233.240804 
L 697.990824 241.055977 
" clip-path="url(#pc804661e27)" style="fill: none; stroke: #da8bc3; stroke-width: 1.5; stroke-linecap: round"/>
   </g>
   <g id="line2d_22">
    <path d="M 89.263551 196.74273 
L 104.110558 201.043544 
L 118.957564 200.606543 
L 133.804571 206.165939 
L 148.651578 207.427605 
L 163.498584 206.612004 
L 178.345591 202.223826 
L 193.192598 200.717836 
L 208.039604 205.710674 
L 222.886611 211.908273 
L 237.733618 211.398648 
L 252.580624 207.83503 
L 267.427631 199.643957 
L 282.274638 204.903561 
L 297.121644 206.413082 
L 311.968651 208.317648 
L 326.815658 211.133284 
L 341.662664 215.642707 
L 356.509671 213.190052 
L 371.356678 217.352779 
L 386.203684 220.869996 
L 401.050691 230.690483 
L 415.897697 247.160377 
L 430.744704 250.08436 
L 445.591711 233.521562 
L 460.438717 216.884413 
L 475.285724 205.206901 
L 490.132731 194.513298 
L 504.979737 186.483879 
L 519.826744 181.199799 
L 534.673751 193.686434 
L 549.520757 218.391827 
L 564.367764 233.722889 
L 579.214771 221.242946 
L 594.061777 215.405005 
L 608.908784 212.478193 
L 623.755791 215.297412 
L 638.602797 222.280226 
L 653.449804 231.411013 
L 668.296811 236.133686 
L 683.143817 232.474674 
L 697.990824 243.132518 
" clip-path="url(#pc804661e27)" style="fill: none; stroke: #8c8c8c; stroke-width: 1.5; stroke-linecap: round"/>
   </g>
   <g id="line2d_23">
    <path d="M 89.263551 195.935516 
L 104.110558 200.082433 
L 118.957564 201.229424 
L 133.804571 209.362444 
L 148.651578 209.991497 
L 163.498584 206.736513 
L 178.345591 202.733357 
L 193.192598 199.37096 
L 208.039604 201.182954 
L 222.886611 204.90398 
L 237.733618 204.600045 
L 252.580624 198.570053 
L 267.427631 188.814431 
L 282.274638 191.718562 
L 297.121644 192.83481 
L 311.968651 193.816639 
L 326.815658 196.504918 
L 341.662664 201.919359 
L 356.509671 199.069238 
L 371.356678 201.944504 
L 386.203684 204.729394 
L 401.050691 213.610782 
L 415.897697 230.494235 
L 430.744704 230.063354 
L 445.591711 214.737828 
L 460.438717 200.866269 
L 475.285724 190.137574 
L 490.132731 179.859163 
L 504.979737 171.1374 
L 519.826744 165.535292 
L 534.673751 178.628441 
L 549.520757 203.072247 
L 564.367764 217.153976 
L 579.214771 202.912203 
L 594.061777 194.605478 
L 608.908784 193.223059 
L 623.755791 197.779372 
L 638.602797 205.443752 
L 653.449804 213.313939 
L 668.296811 214.545882 
L 683.143817 211.265969 
L 697.990824 220.815402 
" clip-path="url(#pc804661e27)" style="fill: none; stroke: #ccb974; stroke-width: 1.5; stroke-linecap: round"/>
   </g>
   <g id="line2d_24"/>
   <g id="line2d_25"/>
   <g id="line2d_26"/>
   <g id="line2d_27"/>
   <g id="line2d_28"/>
   <g id="line2d_29"/>
   <g id="line2d_30"/>
   <g id="line2d_31"/>
   <g id="line2d_32"/>
   <g id="patch_3">
    <path d="M 58.827188 354.958125 
L 58.827188 22.318125 
" style="fill: none; stroke: #cccccc; stroke-width: 1.25; stroke-linejoin: miter; stroke-linecap: square"/>
   </g>
   <g id="patch_4">
    <path d="M 728.427188 354.958125 
L 728.427188 22.318125 
" style="fill: none; stroke: #cccccc; stroke-width: 1.25; stroke-linejoin: miter; stroke-linecap: square"/>
   </g>
   <g id="patch_5">
    <path d="M 58.827188 354.958125 
L 728.427188 354.958125 
" style="fill: none; stroke: #cccccc; stroke-width: 1.25; stroke-linejoin: miter; stroke-linecap: square"/>
   </g>
   <g id="patch_6">
    <path d="M 58.827188 22.318125 
L 728.427188 22.318125 
" style="fill: none; stroke: #cccccc; stroke-width: 1.25; stroke-linejoin: miter; stroke-linecap: square"/>
   </g>
   <g id="text_17">
    <!-- Magnitude of Force Difference from DFT Over Frames by Method -->
    <g style="fill: #262626" transform="translate(199.93875 16.318125) scale(0.12 -0.12)">
     <defs>
      <path id="DejaVuSans-4f" d="M 2522 4238 
Q 1834 4238 1429 3725 
Q 1025 3213 1025 2328 
Q 1025 1447 1429 934 
Q 1834 422 2522 422 
Q 3209 422 3611 934 
Q 4013 1447 4013 2328 
Q 4013 3213 3611 3725 
Q 3209 4238 2522 4238 
z
M 2522 4750 
Q 3503 4750 4090 4092 
Q 4678 3434 4678 2328 
Q 4678 1225 4090 567 
Q 3503 -91 2522 -91 
Q 1538 -91 948 565 
Q 359 1222 359 2328 
Q 359 3434 948 4092 
Q 1538 4750 2522 4750 
z
" transform="scale(0.015625)"/>
      <path id="DejaVuSans-76" d="M 191 3500 
L 800 3500 
L 1894 563 
L 2988 3500 
L 3597 3500 
L 2284 0 
L 1503 0 
L 191 3500 
z
" transform="scale(0.015625)"/>
      <path id="DejaVuSans-62" d="M 3116 1747 
Q 3116 2381 2855 2742 
Q 2594 3103 2138 3103 
Q 1681 3103 1420 2742 
Q 1159 2381 1159 1747 
Q 1159 1113 1420 752 
Q 1681 391 2138 391 
Q 2594 391 2855 752 
Q 3116 1113 3116 1747 
z
M 1159 2969 
Q 1341 3281 1617 3432 
Q 1894 3584 2278 3584 
Q 2916 3584 3314 3078 
Q 3713 2572 3713 1747 
Q 3713 922 3314 415 
Q 2916 -91 2278 -91 
Q 1894 -91 1617 61 
Q 1341 213 1159 525 
L 1159 0 
L 581 0 
L 581 4863 
L 1159 4863 
L 1159 2969 
z
" transform="scale(0.015625)"/>
      <path id="DejaVuSans-79" d="M 2059 -325 
Q 1816 -950 1584 -1140 
Q 1353 -1331 966 -1331 
L 506 -1331 
L 506 -850 
L 844 -850 
Q 1081 -850 1212 -737 
Q 1344 -625 1503 -206 
L 1606 56 
L 191 3500 
L 800 3500 
L 1894 763 
L 2988 3500 
L 3597 3500 
L 2059 -325 
z
" transform="scale(0.015625)"/>
      <path id="DejaVuSans-68" d="M 3513 2113 
L 3513 0 
L 2938 0 
L 2938 2094 
Q 2938 2591 2744 2837 
Q 2550 3084 2163 3084 
Q 1697 3084 1428 2787 
Q 1159 2491 1159 1978 
L 1159 0 
L 581 0 
L 581 4863 
L 1159 4863 
L 1159 2956 
Q 1366 3272 1645 3428 
Q 1925 3584 2291 3584 
Q 2894 3584 3203 3211 
Q 3513 2838 3513 2113 
z
" transform="scale(0.015625)"/>
     </defs>
     <use xlink:href="#DejaVuSans-4d"/>
     <use xlink:href="#DejaVuSans-61" transform="translate(86.279297 0)"/>
     <use xlink:href="#DejaVuSans-67" transform="translate(147.558594 0)"/>
     <use xlink:href="#DejaVuSans-6e" transform="translate(211.035156 0)"/>
     <use xlink:href="#DejaVuSans-69" transform="translate(274.414062 0)"/>
     <use xlink:href="#DejaVuSans-74" transform="translate(302.197266 0)"/>
     <use xlink:href="#DejaVuSans-75" transform="translate(341.40625 0)"/>
     <use xlink:href="#DejaVuSans-64" transform="translate(404.785156 0)"/>
     <use xlink:href="#DejaVuSans-65" transform="translate(468.261719 0)"/>
     <use xlink:href="#DejaVuSans-20" transform="translate(529.785156 0)"/>
     <use xlink:href="#DejaVuSans-6f" transform="translate(561.572266 0)"/>
     <use xlink:href="#DejaVuSans-66" transform="translate(622.753906 0)"/>
     <use xlink:href="#DejaVuSans-20" transform="translate(657.958984 0)"/>
     <use xlink:href="#DejaVuSans-46" transform="translate(689.746094 0)"/>
     <use xlink:href="#DejaVuSans-6f" transform="translate(743.640625 0)"/>
     <use xlink:href="#DejaVuSans-72" transform="translate(804.822266 0)"/>
     <use xlink:href="#DejaVuSans-63" transform="translate(843.685547 0)"/>
     <use xlink:href="#DejaVuSans-65" transform="translate(898.666016 0)"/>
     <use xlink:href="#DejaVuSans-20" transform="translate(960.189453 0)"/>
     <use xlink:href="#DejaVuSans-44" transform="translate(991.976562 0)"/>
     <use xlink:href="#DejaVuSans-69" transform="translate(1068.978516 0)"/>
     <use xlink:href="#DejaVuSans-66" transform="translate(1096.761719 0)"/>
     <use xlink:href="#DejaVuSans-66" transform="translate(1131.966797 0)"/>
     <use xlink:href="#DejaVuSans-65" transform="translate(1167.171875 0)"/>
     <use xlink:href="#DejaVuSans-72" transform="translate(1228.695312 0)"/>
     <use xlink:href="#DejaVuSans-65" transform="translate(1267.558594 0)"/>
     <use xlink:href="#DejaVuSans-6e" transform="translate(1329.082031 0)"/>
     <use xlink:href="#DejaVuSans-63" transform="translate(1392.460938 0)"/>
     <use xlink:href="#DejaVuSans-65" transform="translate(1447.441406 0)"/>
     <use xlink:href="#DejaVuSans-20" transform="translate(1508.964844 0)"/>
     <use xlink:href="#DejaVuSans-66" transform="translate(1540.751953 0)"/>
     <use xlink:href="#DejaVuSans-72" transform="translate(1575.957031 0)"/>
     <use xlink:href="#DejaVuSans-6f" transform="translate(1614.820312 0)"/>
     <use xlink:href="#DejaVuSans-6d" transform="translate(1676.001953 0)"/>
     <use xlink:href="#DejaVuSans-20" transform="translate(1773.414062 0)"/>
     <use xlink:href="#DejaVuSans-44" transform="translate(1805.201172 0)"/>
     <use xlink:href="#DejaVuSans-46" transform="translate(1882.203125 0)"/>
     <use xlink:href="#DejaVuSans-54" transform="translate(1937.972656 0)"/>
     <use xlink:href="#DejaVuSans-20" transform="translate(1999.056641 0)"/>
     <use xlink:href="#DejaVuSans-4f" transform="translate(2030.84375 0)"/>
     <use xlink:href="#DejaVuSans-76" transform="translate(2109.554688 0)"/>
     <use xlink:href="#DejaVuSans-65" transform="translate(2168.734375 0)"/>
     <use xlink:href="#DejaVuSans-72" transform="translate(2230.257812 0)"/>
     <use xlink:href="#DejaVuSans-20" transform="translate(2271.371094 0)"/>
     <use xlink:href="#DejaVuSans-46" transform="translate(2303.158203 0)"/>
     <use xlink:href="#DejaVuSans-72" transform="translate(2353.427734 0)"/>
     <use xlink:href="#DejaVuSans-61" transform="translate(2394.541016 0)"/>
     <use xlink:href="#DejaVuSans-6d" transform="translate(2455.820312 0)"/>
     <use xlink:href="#DejaVuSans-65" transform="translate(2553.232422 0)"/>
     <use xlink:href="#DejaVuSans-73" transform="translate(2614.755859 0)"/>
     <use xlink:href="#DejaVuSans-20" transform="translate(2666.855469 0)"/>
     <use xlink:href="#DejaVuSans-62" transform="translate(2698.642578 0)"/>
     <use xlink:href="#DejaVuSans-79" transform="translate(2762.119141 0)"/>
     <use xlink:href="#DejaVuSans-20" transform="translate(2821.298828 0)"/>
     <use xlink:href="#DejaVuSans-4d" transform="translate(2853.085938 0)"/>
     <use xlink:href="#DejaVuSans-65" transform="translate(2939.365234 0)"/>
     <use xlink:href="#DejaVuSans-74" transform="translate(3000.888672 0)"/>
     <use xlink:href="#DejaVuSans-68" transform="translate(3040.097656 0)"/>
     <use xlink:href="#DejaVuSans-6f" transform="translate(3103.476562 0)"/>
     <use xlink:href="#DejaVuSans-64" transform="translate(3164.658203 0)"/>
    </g>
   </g>
   <g id="legend_1">
    <g id="patch_7">
     <path d="M 309.054375 196.29875 
L 478.2 196.29875 
Q 480.4 196.29875 480.4 194.09875 
L 480.4 30.018125 
Q 480.4 27.818125 478.2 27.818125 
L 309.054375 27.818125 
Q 306.854375 27.818125 306.854375 30.018125 
L 306.854375 194.09875 
Q 306.854375 196.29875 309.054375 196.29875 
z
" style="fill: #ffffff; opacity: 0.8; stroke: #cccccc; stroke-linejoin: miter"/>
    </g>
    <g id="text_18">
     <!-- method -->
     <g style="fill: #262626" transform="translate(370.455938 41.33625) scale(0.12 -0.12)">
      <use xlink:href="#DejaVuSans-6d"/>
      <use xlink:href="#DejaVuSans-65" transform="translate(97.412109 0)"/>
      <use xlink:href="#DejaVuSans-74" transform="translate(158.935547 0)"/>
      <use xlink:href="#DejaVuSans-68" transform="translate(198.144531 0)"/>
      <use xlink:href="#DejaVuSans-6f" transform="translate(261.523438 0)"/>
      <use xlink:href="#DejaVuSans-64" transform="translate(322.705078 0)"/>
     </g>
    </g>
    <g id="line2d_33">
     <path d="M 311.254375 53.840156 
L 322.254375 53.840156 
L 333.254375 53.840156 
" style="fill: none; stroke: #4c72b0; stroke-width: 1.5; stroke-linecap: round"/>
    </g>
    <g id="text_19">
     <!-- ML_MACE_MP_64 -->
     <g style="fill: #262626" transform="translate(342.054375 57.690156) scale(0.11 -0.11)">
      <defs>
       <path id="DejaVuSans-4c" d="M 628 4666 
L 1259 4666 
L 1259 531 
L 3531 531 
L 3531 0 
L 628 0 
L 628 4666 
z
" transform="scale(0.015625)"/>
       <path id="DejaVuSans-5f" d="M 3263 -1063 
L 3263 -1509 
L -63 -1509 
L -63 -1063 
L 3263 -1063 
z
" transform="scale(0.015625)"/>
       <path id="DejaVuSans-41" d="M 2188 4044 
L 1331 1722 
L 3047 1722 
L 2188 4044 
z
M 1831 4666 
L 2547 4666 
L 4325 0 
L 3669 0 
L 3244 1197 
L 1141 1197 
L 716 0 
L 50 0 
L 1831 4666 
z
" transform="scale(0.015625)"/>
       <path id="DejaVuSans-43" d="M 4122 4306 
L 4122 3641 
Q 3803 3938 3442 4084 
Q 3081 4231 2675 4231 
Q 1875 4231 1450 3742 
Q 1025 3253 1025 2328 
Q 1025 1406 1450 917 
Q 1875 428 2675 428 
Q 3081 428 3442 575 
Q 3803 722 4122 1019 
L 4122 359 
Q 3791 134 3420 21 
Q 3050 -91 2638 -91 
Q 1578 -91 968 557 
Q 359 1206 359 2328 
Q 359 3453 968 4101 
Q 1578 4750 2638 4750 
Q 3056 4750 3426 4639 
Q 3797 4528 4122 4306 
z
" transform="scale(0.015625)"/>
       <path id="DejaVuSans-45" d="M 628 4666 
L 3578 4666 
L 3578 4134 
L 1259 4134 
L 1259 2753 
L 3481 2753 
L 3481 2222 
L 1259 2222 
L 1259 531 
L 3634 531 
L 3634 0 
L 628 0 
L 628 4666 
z
" transform="scale(0.015625)"/>
       <path id="DejaVuSans-50" d="M 1259 4147 
L 1259 2394 
L 2053 2394 
Q 2494 2394 2734 2622 
Q 2975 2850 2975 3272 
Q 2975 3691 2734 3919 
Q 2494 4147 2053 4147 
L 1259 4147 
z
M 628 4666 
L 2053 4666 
Q 2838 4666 3239 4311 
Q 3641 3956 3641 3272 
Q 3641 2581 3239 2228 
Q 2838 1875 2053 1875 
L 1259 1875 
L 1259 0 
L 628 0 
L 628 4666 
z
" transform="scale(0.015625)"/>
      </defs>
      <use xlink:href="#DejaVuSans-4d"/>
      <use xlink:href="#DejaVuSans-4c" transform="translate(86.279297 0)"/>
      <use xlink:href="#DejaVuSans-5f" transform="translate(141.992188 0)"/>
      <use xlink:href="#DejaVuSans-4d" transform="translate(191.992188 0)"/>
      <use xlink:href="#DejaVuSans-41" transform="translate(278.271484 0)"/>
      <use xlink:href="#DejaVuSans-43" transform="translate(344.929688 0)"/>
      <use xlink:href="#DejaVuSans-45" transform="translate(414.753906 0)"/>
      <use xlink:href="#DejaVuSans-5f" transform="translate(477.9375 0)"/>
      <use xlink:href="#DejaVuSans-4d" transform="translate(527.9375 0)"/>
      <use xlink:href="#DejaVuSans-50" transform="translate(614.216797 0)"/>
      <use xlink:href="#DejaVuSans-5f" transform="translate(674.519531 0)"/>
      <use xlink:href="#DejaVuSans-36" transform="translate(724.519531 0)"/>
      <use xlink:href="#DejaVuSans-34" transform="translate(788.142578 0)"/>
     </g>
    </g>
    <g id="line2d_34">
     <path d="M 311.254375 70.292031 
L 322.254375 70.292031 
L 333.254375 70.292031 
" style="fill: none; stroke: #dd8452; stroke-width: 1.5; stroke-linecap: round"/>
    </g>
    <g id="text_20">
     <!-- ML_MACE_OMAT_64 -->
     <g style="fill: #262626" transform="translate(342.054375 74.142031) scale(0.11 -0.11)">
      <use xlink:href="#DejaVuSans-4d"/>
      <use xlink:href="#DejaVuSans-4c" transform="translate(86.279297 0)"/>
      <use xlink:href="#DejaVuSans-5f" transform="translate(141.992188 0)"/>
      <use xlink:href="#DejaVuSans-4d" transform="translate(191.992188 0)"/>
      <use xlink:href="#DejaVuSans-41" transform="translate(278.271484 0)"/>
      <use xlink:href="#DejaVuSans-43" transform="translate(344.929688 0)"/>
      <use xlink:href="#DejaVuSans-45" transform="translate(414.753906 0)"/>
      <use xlink:href="#DejaVuSans-5f" transform="translate(477.9375 0)"/>
      <use xlink:href="#DejaVuSans-4f" transform="translate(527.9375 0)"/>
      <use xlink:href="#DejaVuSans-4d" transform="translate(606.648438 0)"/>
      <use xlink:href="#DejaVuSans-41" transform="translate(692.927734 0)"/>
      <use xlink:href="#DejaVuSans-54" transform="translate(753.585938 0)"/>
      <use xlink:href="#DejaVuSans-5f" transform="translate(814.669922 0)"/>
      <use xlink:href="#DejaVuSans-36" transform="translate(864.669922 0)"/>
      <use xlink:href="#DejaVuSans-34" transform="translate(928.292969 0)"/>
     </g>
    </g>
    <g id="line2d_35">
     <path d="M 311.254375 86.743906 
L 322.254375 86.743906 
L 333.254375 86.743906 
" style="fill: none; stroke: #55a868; stroke-width: 1.5; stroke-linecap: round"/>
    </g>
    <g id="text_21">
     <!-- ML_ORB_CONSERVATIVE -->
     <g style="fill: #262626" transform="translate(342.054375 90.593906) scale(0.11 -0.11)">
      <defs>
       <path id="DejaVuSans-52" d="M 2841 2188 
Q 3044 2119 3236 1894 
Q 3428 1669 3622 1275 
L 4263 0 
L 3584 0 
L 2988 1197 
Q 2756 1666 2539 1819 
Q 2322 1972 1947 1972 
L 1259 1972 
L 1259 0 
L 628 0 
L 628 4666 
L 2053 4666 
Q 2853 4666 3247 4331 
Q 3641 3997 3641 3322 
Q 3641 2881 3436 2590 
Q 3231 2300 2841 2188 
z
M 1259 4147 
L 1259 2491 
L 2053 2491 
Q 2509 2491 2742 2702 
Q 2975 2913 2975 3322 
Q 2975 3731 2742 3939 
Q 2509 4147 2053 4147 
L 1259 4147 
z
" transform="scale(0.015625)"/>
       <path id="DejaVuSans-42" d="M 1259 2228 
L 1259 519 
L 2272 519 
Q 2781 519 3026 730 
Q 3272 941 3272 1375 
Q 3272 1813 3026 2020 
Q 2781 2228 2272 2228 
L 1259 2228 
z
M 1259 4147 
L 1259 2741 
L 2194 2741 
Q 2656 2741 2882 2914 
Q 3109 3088 3109 3444 
Q 3109 3797 2882 3972 
Q 2656 4147 2194 4147 
L 1259 4147 
z
M 628 4666 
L 2241 4666 
Q 2963 4666 3353 4366 
Q 3744 4066 3744 3513 
Q 3744 3084 3544 2831 
Q 3344 2578 2956 2516 
Q 3422 2416 3680 2098 
Q 3938 1781 3938 1306 
Q 3938 681 3513 340 
Q 3088 0 2303 0 
L 628 0 
L 628 4666 
z
" transform="scale(0.015625)"/>
       <path id="DejaVuSans-4e" d="M 628 4666 
L 1478 4666 
L 3547 763 
L 3547 4666 
L 4159 4666 
L 4159 0 
L 3309 0 
L 1241 3903 
L 1241 0 
L 628 0 
L 628 4666 
z
" transform="scale(0.015625)"/>
       <path id="DejaVuSans-53" d="M 3425 4513 
L 3425 3897 
Q 3066 4069 2747 4153 
Q 2428 4238 2131 4238 
Q 1616 4238 1336 4038 
Q 1056 3838 1056 3469 
Q 1056 3159 1242 3001 
Q 1428 2844 1947 2747 
L 2328 2669 
Q 3034 2534 3370 2195 
Q 3706 1856 3706 1288 
Q 3706 609 3251 259 
Q 2797 -91 1919 -91 
Q 1588 -91 1214 -16 
Q 841 59 441 206 
L 441 856 
Q 825 641 1194 531 
Q 1563 422 1919 422 
Q 2459 422 2753 634 
Q 3047 847 3047 1241 
Q 3047 1584 2836 1778 
Q 2625 1972 2144 2069 
L 1759 2144 
Q 1053 2284 737 2584 
Q 422 2884 422 3419 
Q 422 4038 858 4394 
Q 1294 4750 2059 4750 
Q 2388 4750 2728 4690 
Q 3069 4631 3425 4513 
z
" transform="scale(0.015625)"/>
       <path id="DejaVuSans-49" d="M 628 4666 
L 1259 4666 
L 1259 0 
L 628 0 
L 628 4666 
z
" transform="scale(0.015625)"/>
      </defs>
      <use xlink:href="#DejaVuSans-4d"/>
      <use xlink:href="#DejaVuSans-4c" transform="translate(86.279297 0)"/>
      <use xlink:href="#DejaVuSans-5f" transform="translate(141.992188 0)"/>
      <use xlink:href="#DejaVuSans-4f" transform="translate(191.992188 0)"/>
      <use xlink:href="#DejaVuSans-52" transform="translate(270.703125 0)"/>
      <use xlink:href="#DejaVuSans-42" transform="translate(340.185547 0)"/>
      <use xlink:href="#DejaVuSans-5f" transform="translate(408.789062 0)"/>
      <use xlink:href="#DejaVuSans-43" transform="translate(458.789062 0)"/>
      <use xlink:href="#DejaVuSans-4f" transform="translate(528.613281 0)"/>
      <use xlink:href="#DejaVuSans-4e" transform="translate(607.324219 0)"/>
      <use xlink:href="#DejaVuSans-53" transform="translate(682.128906 0)"/>
      <use xlink:href="#DejaVuSans-45" transform="translate(745.605469 0)"/>
      <use xlink:href="#DejaVuSans-52" transform="translate(808.789062 0)"/>
      <use xlink:href="#DejaVuSans-56" transform="translate(872.771484 0)"/>
      <use xlink:href="#DejaVuSans-41" transform="translate(934.804688 0)"/>
      <use xlink:href="#DejaVuSans-54" transform="translate(995.462891 0)"/>
      <use xlink:href="#DejaVuSans-49" transform="translate(1056.546875 0)"/>
      <use xlink:href="#DejaVuSans-56" transform="translate(1086.039062 0)"/>
      <use xlink:href="#DejaVuSans-45" transform="translate(1154.447266 0)"/>
     </g>
    </g>
    <g id="line2d_36">
     <path d="M 311.254375 103.195781 
L 322.254375 103.195781 
L 333.254375 103.195781 
" style="fill: none; stroke: #c44e52; stroke-width: 1.5; stroke-linecap: round"/>
    </g>
    <g id="text_22">
     <!-- ML_ORB_DIRECT -->
     <g style="fill: #262626" transform="translate(342.054375 107.045781) scale(0.11 -0.11)">
      <use xlink:href="#DejaVuSans-4d"/>
      <use xlink:href="#DejaVuSans-4c" transform="translate(86.279297 0)"/>
      <use xlink:href="#DejaVuSans-5f" transform="translate(141.992188 0)"/>
      <use xlink:href="#DejaVuSans-4f" transform="translate(191.992188 0)"/>
      <use xlink:href="#DejaVuSans-52" transform="translate(270.703125 0)"/>
      <use xlink:href="#DejaVuSans-42" transform="translate(340.185547 0)"/>
      <use xlink:href="#DejaVuSans-5f" transform="translate(408.789062 0)"/>
      <use xlink:href="#DejaVuSans-44" transform="translate(458.789062 0)"/>
      <use xlink:href="#DejaVuSans-49" transform="translate(535.791016 0)"/>
      <use xlink:href="#DejaVuSans-52" transform="translate(565.283203 0)"/>
      <use xlink:href="#DejaVuSans-45" transform="translate(634.765625 0)"/>
      <use xlink:href="#DejaVuSans-43" transform="translate(697.949219 0)"/>
      <use xlink:href="#DejaVuSans-54" transform="translate(767.773438 0)"/>
     </g>
    </g>
    <g id="line2d_37">
     <path d="M 311.254375 119.647656 
L 322.254375 119.647656 
L 333.254375 119.647656 
" style="fill: none; stroke: #8172b3; stroke-width: 1.5; stroke-linecap: round"/>
    </g>
    <g id="text_23">
     <!-- ML_MACE_MP -->
     <g style="fill: #262626" transform="translate(342.054375 123.497656) scale(0.11 -0.11)">
      <use xlink:href="#DejaVuSans-4d"/>
      <use xlink:href="#DejaVuSans-4c" transform="translate(86.279297 0)"/>
      <use xlink:href="#DejaVuSans-5f" transform="translate(141.992188 0)"/>
      <use xlink:href="#DejaVuSans-4d" transform="translate(191.992188 0)"/>
      <use xlink:href="#DejaVuSans-41" transform="translate(278.271484 0)"/>
      <use xlink:href="#DejaVuSans-43" transform="translate(344.929688 0)"/>
      <use xlink:href="#DejaVuSans-45" transform="translate(414.753906 0)"/>
      <use xlink:href="#DejaVuSans-5f" transform="translate(477.9375 0)"/>
      <use xlink:href="#DejaVuSans-4d" transform="translate(527.9375 0)"/>
      <use xlink:href="#DejaVuSans-50" transform="translate(614.216797 0)"/>
     </g>
    </g>
    <g id="line2d_38">
     <path d="M 311.254375 136.099531 
L 322.254375 136.099531 
L 333.254375 136.099531 
" style="fill: none; stroke: #937860; stroke-width: 1.5; stroke-linecap: round"/>
    </g>
    <g id="text_24">
     <!-- ML_MACE_OMAT -->
     <g style="fill: #262626" transform="translate(342.054375 139.949531) scale(0.11 -0.11)">
      <use xlink:href="#DejaVuSans-4d"/>
      <use xlink:href="#DejaVuSans-4c" transform="translate(86.279297 0)"/>
      <use xlink:href="#DejaVuSans-5f" transform="translate(141.992188 0)"/>
      <use xlink:href="#DejaVuSans-4d" transform="translate(191.992188 0)"/>
      <use xlink:href="#DejaVuSans-41" transform="translate(278.271484 0)"/>
      <use xlink:href="#DejaVuSans-43" transform="translate(344.929688 0)"/>
      <use xlink:href="#DejaVuSans-45" transform="translate(414.753906 0)"/>
      <use xlink:href="#DejaVuSans-5f" transform="translate(477.9375 0)"/>
      <use xlink:href="#DejaVuSans-4f" transform="translate(527.9375 0)"/>
      <use xlink:href="#DejaVuSans-4d" transform="translate(606.648438 0)"/>
      <use xlink:href="#DejaVuSans-41" transform="translate(692.927734 0)"/>
      <use xlink:href="#DejaVuSans-54" transform="translate(753.585938 0)"/>
     </g>
    </g>
    <g id="line2d_39">
     <path d="M 311.254375 152.551406 
L 322.254375 152.551406 
L 333.254375 152.551406 
" style="fill: none; stroke: #da8bc3; stroke-width: 1.5; stroke-linecap: round"/>
    </g>
    <g id="text_25">
     <!-- ML_NeqIP_cuEq -->
     <g style="fill: #262626" transform="translate(342.054375 156.401406) scale(0.11 -0.11)">
      <defs>
       <path id="DejaVuSans-71" d="M 947 1747 
Q 947 1113 1208 752 
Q 1469 391 1925 391 
Q 2381 391 2643 752 
Q 2906 1113 2906 1747 
Q 2906 2381 2643 2742 
Q 2381 3103 1925 3103 
Q 1469 3103 1208 2742 
Q 947 2381 947 1747 
z
M 2906 525 
Q 2725 213 2448 61 
Q 2172 -91 1784 -91 
Q 1150 -91 751 415 
Q 353 922 353 1747 
Q 353 2572 751 3078 
Q 1150 3584 1784 3584 
Q 2172 3584 2448 3432 
Q 2725 3281 2906 2969 
L 2906 3500 
L 3481 3500 
L 3481 -1331 
L 2906 -1331 
L 2906 525 
z
" transform="scale(0.015625)"/>
      </defs>
      <use xlink:href="#DejaVuSans-4d"/>
      <use xlink:href="#DejaVuSans-4c" transform="translate(86.279297 0)"/>
      <use xlink:href="#DejaVuSans-5f" transform="translate(141.992188 0)"/>
      <use xlink:href="#DejaVuSans-4e" transform="translate(191.992188 0)"/>
      <use xlink:href="#DejaVuSans-65" transform="translate(266.796875 0)"/>
      <use xlink:href="#DejaVuSans-71" transform="translate(328.320312 0)"/>
      <use xlink:href="#DejaVuSans-49" transform="translate(391.796875 0)"/>
      <use xlink:href="#DejaVuSans-50" transform="translate(421.289062 0)"/>
      <use xlink:href="#DejaVuSans-5f" transform="translate(481.591797 0)"/>
      <use xlink:href="#DejaVuSans-63" transform="translate(531.591797 0)"/>
      <use xlink:href="#DejaVuSans-75" transform="translate(586.572266 0)"/>
      <use xlink:href="#DejaVuSans-45" transform="translate(649.951172 0)"/>
      <use xlink:href="#DejaVuSans-71" transform="translate(713.134766 0)"/>
     </g>
    </g>
    <g id="line2d_40">
     <path d="M 311.254375 169.003281 
L 322.254375 169.003281 
L 333.254375 169.003281 
" style="fill: none; stroke: #8c8c8c; stroke-width: 1.5; stroke-linecap: round"/>
    </g>
    <g id="text_26">
     <!-- ML_MatterSim_1M -->
     <g style="fill: #262626" transform="translate(342.054375 172.853281) scale(0.11 -0.11)">
      <use xlink:href="#DejaVuSans-4d"/>
      <use xlink:href="#DejaVuSans-4c" transform="translate(86.279297 0)"/>
      <use xlink:href="#DejaVuSans-5f" transform="translate(141.992188 0)"/>
      <use xlink:href="#DejaVuSans-4d" transform="translate(191.992188 0)"/>
      <use xlink:href="#DejaVuSans-61" transform="translate(278.271484 0)"/>
      <use xlink:href="#DejaVuSans-74" transform="translate(339.550781 0)"/>
      <use xlink:href="#DejaVuSans-74" transform="translate(378.759766 0)"/>
      <use xlink:href="#DejaVuSans-65" transform="translate(417.96875 0)"/>
      <use xlink:href="#DejaVuSans-72" transform="translate(479.492188 0)"/>
      <use xlink:href="#DejaVuSans-53" transform="translate(520.605469 0)"/>
      <use xlink:href="#DejaVuSans-69" transform="translate(584.082031 0)"/>
      <use xlink:href="#DejaVuSans-6d" transform="translate(611.865234 0)"/>
      <use xlink:href="#DejaVuSans-5f" transform="translate(709.277344 0)"/>
      <use xlink:href="#DejaVuSans-31" transform="translate(759.277344 0)"/>
      <use xlink:href="#DejaVuSans-4d" transform="translate(822.900391 0)"/>
     </g>
    </g>
    <g id="line2d_41">
     <path d="M 311.254375 185.455156 
L 322.254375 185.455156 
L 333.254375 185.455156 
" style="fill: none; stroke: #ccb974; stroke-width: 1.5; stroke-linecap: round"/>
    </g>
    <g id="text_27">
     <!-- ML_MatterSim_5M -->
     <g style="fill: #262626" transform="translate(342.054375 189.305156) scale(0.11 -0.11)">
      <defs>
       <path id="DejaVuSans-35" d="M 691 4666 
L 3169 4666 
L 3169 4134 
L 1269 4134 
L 1269 2991 
Q 1406 3038 1543 3061 
Q 1681 3084 1819 3084 
Q 2600 3084 3056 2656 
Q 3513 2228 3513 1497 
Q 3513 744 3044 326 
Q 2575 -91 1722 -91 
Q 1428 -91 1123 -41 
Q 819 9 494 109 
L 494 744 
Q 775 591 1075 516 
Q 1375 441 1709 441 
Q 2250 441 2565 725 
Q 2881 1009 2881 1497 
Q 2881 1984 2565 2268 
Q 2250 2553 1709 2553 
Q 1456 2553 1204 2497 
Q 953 2441 691 2322 
L 691 4666 
z
" transform="scale(0.015625)"/>
      </defs>
      <use xlink:href="#DejaVuSans-4d"/>
      <use xlink:href="#DejaVuSans-4c" transform="translate(86.279297 0)"/>
      <use xlink:href="#DejaVuSans-5f" transform="translate(141.992188 0)"/>
      <use xlink:href="#DejaVuSans-4d" transform="translate(191.992188 0)"/>
      <use xlink:href="#DejaVuSans-61" transform="translate(278.271484 0)"/>
      <use xlink:href="#DejaVuSans-74" transform="translate(339.550781 0)"/>
      <use xlink:href="#DejaVuSans-74" transform="translate(378.759766 0)"/>
      <use xlink:href="#DejaVuSans-65" transform="translate(417.96875 0)"/>
      <use xlink:href="#DejaVuSans-72" transform="translate(479.492188 0)"/>
      <use xlink:href="#DejaVuSans-53" transform="translate(520.605469 0)"/>
      <use xlink:href="#DejaVuSans-69" transform="translate(584.082031 0)"/>
      <use xlink:href="#DejaVuSans-6d" transform="translate(611.865234 0)"/>
      <use xlink:href="#DejaVuSans-5f" transform="translate(709.277344 0)"/>
      <use xlink:href="#DejaVuSans-35" transform="translate(759.277344 0)"/>
      <use xlink:href="#DejaVuSans-4d" transform="translate(822.900391 0)"/>
     </g>
    </g>
   </g>
  </g>
 </g>
 <defs>
  <clipPath id="pc804661e27">
   <rect x="58.827188" y="22.318125" width="669.6" height="332.64"/>
  </clipPath>
 </defs>
</svg>
