<?xml version="1.0" encoding="utf-8" standalone="no"?>
<!DOCTYPE svg PUBLIC "-//W3C//DTD SVG 1.1//EN"
  "http://www.w3.org/Graphics/SVG/1.1/DTD/svg11.dtd">
<svg xmlns:xlink="http://www.w3.org/1999/xlink" width="726.607187pt" height="397.917813pt" viewBox="0 0 726.607187 397.917813" xmlns="http://www.w3.org/2000/svg" version="1.1">
 <metadata>
  <rdf:RDF xmlns:dc="http://purl.org/dc/elements/1.1/" xmlns:cc="http://creativecommons.org/ns#" xmlns:rdf="http://www.w3.org/1999/02/22-rdf-syntax-ns#">
   <cc:Work>
    <dc:type rdf:resource="http://purl.org/dc/dcmitype/StillImage"/>
    <dc:date>2025-09-29T10:25:15.504124</dc:date>
    <dc:format>image/svg+xml</dc:format>
    <dc:creator>
     <cc:Agent>
      <dc:title>Matplotlib v3.10.6, https://matplotlib.org/</dc:title>
     </cc:Agent>
    </dc:creator>
   </cc:Work>
  </rdf:RDF>
 </metadata>
 <defs>
  <style type="text/css">*{stroke-linejoin: round; stroke-linecap: butt}</style>
 </defs>
 <g id="figure_1">
  <g id="patch_1">
   <path d="M 0 397.917813 
L 726.607187 397.917813 
L 726.607187 0 
L 0 0 
z
" style="fill: #ffffff"/>
  </g>
  <g id="axes_1">
   <g id="patch_2">
    <path d="M 49.807188 354.958125 
L 719.407188 354.958125 
L 719.407188 22.318125 
L 49.807188 22.318125 
z
" style="fill: #ffffff"/>
   </g>
   <g id="matplotlib.axis_1">
    <g id="xtick_1">
     <g id="line2d_1">
      <path d="M 80.243551 354.958125 
L 80.243551 22.318125 
" clip-path="url(#p41f416c6d0)" style="fill: none; stroke: #cccccc; stroke-linecap: round"/>
     </g>
     <g id="text_1">
      <!-- 0 -->
      <g style="fill: #262626" transform="translate(76.744176 372.816406) scale(0.11 -0.11)">
       <defs>
        <path id="DejaVuSans-30" d="M 2034 4250 
Q 1547 4250 1301 3770 
Q 1056 3291 1056 2328 
Q 1056 1369 1301 889 
Q 1547 409 2034 409 
Q 2525 409 2770 889 
Q 3016 1369 3016 2328 
Q 3016 3291 2770 3770 
Q 2525 4250 2034 4250 
z
M 2034 4750 
Q 2819 4750 3233 4129 
Q 3647 3509 3647 2328 
Q 3647 1150 3233 529 
Q 2819 -91 2034 -91 
Q 1250 -91 836 529 
Q 422 1150 422 2328 
Q 422 3509 836 4129 
Q 1250 4750 2034 4750 
z
" transform="scale(0.015625)"/>
       </defs>
       <use xlink:href="#DejaVuSans-30"/>
      </g>
     </g>
    </g>
    <g id="xtick_2">
     <g id="line2d_2">
      <path d="M 228.713618 354.958125 
L 228.713618 22.318125 
" clip-path="url(#p41f416c6d0)" style="fill: none; stroke: #cccccc; stroke-linecap: round"/>
     </g>
     <g id="text_2">
      <!-- 10 -->
      <g style="fill: #262626" transform="translate(221.714868 372.816406) scale(0.11 -0.11)">
       <defs>
        <path id="DejaVuSans-31" d="M 794 531 
L 1825 531 
L 1825 4091 
L 703 3866 
L 703 4441 
L 1819 4666 
L 2450 4666 
L 2450 531 
L 3481 531 
L 3481 0 
L 794 0 
L 794 531 
z
" transform="scale(0.015625)"/>
       </defs>
       <use xlink:href="#DejaVuSans-31"/>
       <use xlink:href="#DejaVuSans-30" transform="translate(63.623047 0)"/>
      </g>
     </g>
    </g>
    <g id="xtick_3">
     <g id="line2d_3">
      <path d="M 377.183684 354.958125 
L 377.183684 22.318125 
" clip-path="url(#p41f416c6d0)" style="fill: none; stroke: #cccccc; stroke-linecap: round"/>
     </g>
     <g id="text_3">
      <!-- 20 -->
      <g style="fill: #262626" transform="translate(370.184934 372.816406) scale(0.11 -0.11)">
       <defs>
        <path id="DejaVuSans-32" d="M 1228 531 
L 3431 531 
L 3431 0 
L 469 0 
L 469 531 
Q 828 903 1448 1529 
Q 2069 2156 2228 2338 
Q 2531 2678 2651 2914 
Q 2772 3150 2772 3378 
Q 2772 3750 2511 3984 
Q 2250 4219 1831 4219 
Q 1534 4219 1204 4116 
Q 875 4013 500 3803 
L 500 4441 
Q 881 4594 1212 4672 
Q 1544 4750 1819 4750 
Q 2544 4750 2975 4387 
Q 3406 4025 3406 3419 
Q 3406 3131 3298 2873 
Q 3191 2616 2906 2266 
Q 2828 2175 2409 1742 
Q 1991 1309 1228 531 
z
" transform="scale(0.015625)"/>
       </defs>
       <use xlink:href="#DejaVuSans-32"/>
       <use xlink:href="#DejaVuSans-30" transform="translate(63.623047 0)"/>
      </g>
     </g>
    </g>
    <g id="xtick_4">
     <g id="line2d_4">
      <path d="M 525.653751 354.958125 
L 525.653751 22.318125 
" clip-path="url(#p41f416c6d0)" style="fill: none; stroke: #cccccc; stroke-linecap: round"/>
     </g>
     <g id="text_4">
      <!-- 30 -->
      <g style="fill: #262626" transform="translate(518.655001 372.816406) scale(0.11 -0.11)">
       <defs>
        <path id="DejaVuSans-33" d="M 2597 2516 
Q 3050 2419 3304 2112 
Q 3559 1806 3559 1356 
Q 3559 666 3084 287 
Q 2609 -91 1734 -91 
Q 1441 -91 1130 -33 
Q 819 25 488 141 
L 488 750 
Q 750 597 1062 519 
Q 1375 441 1716 441 
Q 2309 441 2620 675 
Q 2931 909 2931 1356 
Q 2931 1769 2642 2001 
Q 2353 2234 1838 2234 
L 1294 2234 
L 1294 2753 
L 1863 2753 
Q 2328 2753 2575 2939 
Q 2822 3125 2822 3475 
Q 2822 3834 2567 4026 
Q 2313 4219 1838 4219 
Q 1578 4219 1281 4162 
Q 984 4106 628 3988 
L 628 4550 
Q 988 4650 1302 4700 
Q 1616 4750 1894 4750 
Q 2613 4750 3031 4423 
Q 3450 4097 3450 3541 
Q 3450 3153 3228 2886 
Q 3006 2619 2597 2516 
z
" transform="scale(0.015625)"/>
       </defs>
       <use xlink:href="#DejaVuSans-33"/>
       <use xlink:href="#DejaVuSans-30" transform="translate(63.623047 0)"/>
      </g>
     </g>
    </g>
    <g id="xtick_5">
     <g id="line2d_5">
      <path d="M 674.123817 354.958125 
L 674.123817 22.318125 
" clip-path="url(#p41f416c6d0)" style="fill: none; stroke: #cccccc; stroke-linecap: round"/>
     </g>
     <g id="text_5">
      <!-- 40 -->
      <g style="fill: #262626" transform="translate(667.125067 372.816406) scale(0.11 -0.11)">
       <defs>
        <path id="DejaVuSans-34" d="M 2419 4116 
L 825 1625 
L 2419 1625 
L 2419 4116 
z
M 2253 4666 
L 3047 4666 
L 3047 1625 
L 3713 1625 
L 3713 1100 
L 3047 1100 
L 3047 0 
L 2419 0 
L 2419 1100 
L 313 1100 
L 313 1709 
L 2253 4666 
z
" transform="scale(0.015625)"/>
       </defs>
       <use xlink:href="#DejaVuSans-34"/>
       <use xlink:href="#DejaVuSans-30" transform="translate(63.623047 0)"/>
      </g>
     </g>
    </g>
    <g id="text_6">
     <!-- Time (fs) -->
     <g style="fill: #262626" transform="translate(358.100313 388.222188) scale(0.12 -0.12)">
      <defs>
       <path id="DejaVuSans-54" d="M -19 4666 
L 3928 4666 
L 3928 4134 
L 2272 4134 
L 2272 0 
L 1638 0 
L 1638 4134 
L -19 4134 
L -19 4666 
z
" transform="scale(0.015625)"/>
       <path id="DejaVuSans-69" d="M 603 3500 
L 1178 3500 
L 1178 0 
L 603 0 
L 603 3500 
z
M 603 4863 
L 1178 4863 
L 1178 4134 
L 603 4134 
L 603 4863 
z
" transform="scale(0.015625)"/>
       <path id="DejaVuSans-6d" d="M 3328 2828 
Q 3544 3216 3844 3400 
Q 4144 3584 4550 3584 
Q 5097 3584 5394 3201 
Q 5691 2819 5691 2113 
L 5691 0 
L 5113 0 
L 5113 2094 
Q 5113 2597 4934 2840 
Q 4756 3084 4391 3084 
Q 3944 3084 3684 2787 
Q 3425 2491 3425 1978 
L 3425 0 
L 2847 0 
L 2847 2094 
Q 2847 2600 2669 2842 
Q 2491 3084 2119 3084 
Q 1678 3084 1418 2786 
Q 1159 2488 1159 1978 
L 1159 0 
L 581 0 
L 581 3500 
L 1159 3500 
L 1159 2956 
Q 1356 3278 1631 3431 
Q 1906 3584 2284 3584 
Q 2666 3584 2933 3390 
Q 3200 3197 3328 2828 
z
" transform="scale(0.015625)"/>
       <path id="DejaVuSans-65" d="M 3597 1894 
L 3597 1613 
L 953 1613 
Q 991 1019 1311 708 
Q 1631 397 2203 397 
Q 2534 397 2845 478 
Q 3156 559 3463 722 
L 3463 178 
Q 3153 47 2828 -22 
Q 2503 -91 2169 -91 
Q 1331 -91 842 396 
Q 353 884 353 1716 
Q 353 2575 817 3079 
Q 1281 3584 2069 3584 
Q 2775 3584 3186 3129 
Q 3597 2675 3597 1894 
z
M 3022 2063 
Q 3016 2534 2758 2815 
Q 2500 3097 2075 3097 
Q 1594 3097 1305 2825 
Q 1016 2553 972 2059 
L 3022 2063 
z
" transform="scale(0.015625)"/>
       <path id="DejaVuSans-20" transform="scale(0.015625)"/>
       <path id="DejaVuSans-28" d="M 1984 4856 
Q 1566 4138 1362 3434 
Q 1159 2731 1159 2009 
Q 1159 1288 1364 580 
Q 1569 -128 1984 -844 
L 1484 -844 
Q 1016 -109 783 600 
Q 550 1309 550 2009 
Q 550 2706 781 3412 
Q 1013 4119 1484 4856 
L 1984 4856 
z
" transform="scale(0.015625)"/>
       <path id="DejaVuSans-66" d="M 2375 4863 
L 2375 4384 
L 1825 4384 
Q 1516 4384 1395 4259 
Q 1275 4134 1275 3809 
L 1275 3500 
L 2222 3500 
L 2222 3053 
L 1275 3053 
L 1275 0 
L 697 0 
L 697 3053 
L 147 3053 
L 147 3500 
L 697 3500 
L 697 3744 
Q 697 4328 969 4595 
Q 1241 4863 1831 4863 
L 2375 4863 
z
" transform="scale(0.015625)"/>
       <path id="DejaVuSans-73" d="M 2834 3397 
L 2834 2853 
Q 2591 2978 2328 3040 
Q 2066 3103 1784 3103 
Q 1356 3103 1142 2972 
Q 928 2841 928 2578 
Q 928 2378 1081 2264 
Q 1234 2150 1697 2047 
L 1894 2003 
Q 2506 1872 2764 1633 
Q 3022 1394 3022 966 
Q 3022 478 2636 193 
Q 2250 -91 1575 -91 
Q 1294 -91 989 -36 
Q 684 19 347 128 
L 347 722 
Q 666 556 975 473 
Q 1284 391 1588 391 
Q 1994 391 2212 530 
Q 2431 669 2431 922 
Q 2431 1156 2273 1281 
Q 2116 1406 1581 1522 
L 1381 1569 
Q 847 1681 609 1914 
Q 372 2147 372 2553 
Q 372 3047 722 3315 
Q 1072 3584 1716 3584 
Q 2034 3584 2315 3537 
Q 2597 3491 2834 3397 
z
" transform="scale(0.015625)"/>
       <path id="DejaVuSans-29" d="M 513 4856 
L 1013 4856 
Q 1481 4119 1714 3412 
Q 1947 2706 1947 2009 
Q 1947 1309 1714 600 
Q 1481 -109 1013 -844 
L 513 -844 
Q 928 -128 1133 580 
Q 1338 1288 1338 2009 
Q 1338 2731 1133 3434 
Q 928 4138 513 4856 
z
" transform="scale(0.015625)"/>
      </defs>
      <use xlink:href="#DejaVuSans-54"/>
      <use xlink:href="#DejaVuSans-69" transform="translate(57.958984 0)"/>
      <use xlink:href="#DejaVuSans-6d" transform="translate(85.742188 0)"/>
      <use xlink:href="#DejaVuSans-65" transform="translate(183.154297 0)"/>
      <use xlink:href="#DejaVuSans-20" transform="translate(244.677734 0)"/>
      <use xlink:href="#DejaVuSans-28" transform="translate(276.464844 0)"/>
      <use xlink:href="#DejaVuSans-66" transform="translate(315.478516 0)"/>
      <use xlink:href="#DejaVuSans-73" transform="translate(350.683594 0)"/>
      <use xlink:href="#DejaVuSans-29" transform="translate(402.783203 0)"/>
     </g>
    </g>
   </g>
   <g id="matplotlib.axis_2">
    <g id="ytick_1">
     <g id="line2d_6">
      <path d="M 49.807188 343.25696 
L 719.407188 343.25696 
" clip-path="url(#p41f416c6d0)" style="fill: none; stroke: #cccccc; stroke-linecap: round"/>
     </g>
     <g id="text_7">
      <!-- 0.4 -->
      <g style="fill: #262626" transform="translate(22.81375 347.436101) scale(0.11 -0.11)">
       <defs>
        <path id="DejaVuSans-2e" d="M 684 794 
L 1344 794 
L 1344 0 
L 684 0 
L 684 794 
z
" transform="scale(0.015625)"/>
       </defs>
       <use xlink:href="#DejaVuSans-30"/>
       <use xlink:href="#DejaVuSans-2e" transform="translate(63.623047 0)"/>
       <use xlink:href="#DejaVuSans-34" transform="translate(95.410156 0)"/>
      </g>
     </g>
    </g>
    <g id="ytick_2">
     <g id="line2d_7">
      <path d="M 49.807188 269.584116 
L 719.407188 269.584116 
" clip-path="url(#p41f416c6d0)" style="fill: none; stroke: #cccccc; stroke-linecap: round"/>
     </g>
     <g id="text_8">
      <!-- 0.5 -->
      <g style="fill: #262626" transform="translate(22.81375 273.763256) scale(0.11 -0.11)">
       <defs>
        <path id="DejaVuSans-35" d="M 691 4666 
L 3169 4666 
L 3169 4134 
L 1269 4134 
L 1269 2991 
Q 1406 3038 1543 3061 
Q 1681 3084 1819 3084 
Q 2600 3084 3056 2656 
Q 3513 2228 3513 1497 
Q 3513 744 3044 326 
Q 2575 -91 1722 -91 
Q 1428 -91 1123 -41 
Q 819 9 494 109 
L 494 744 
Q 775 591 1075 516 
Q 1375 441 1709 441 
Q 2250 441 2565 725 
Q 2881 1009 2881 1497 
Q 2881 1984 2565 2268 
Q 2250 2553 1709 2553 
Q 1456 2553 1204 2497 
Q 953 2441 691 2322 
L 691 4666 
z
" transform="scale(0.015625)"/>
       </defs>
       <use xlink:href="#DejaVuSans-30"/>
       <use xlink:href="#DejaVuSans-2e" transform="translate(63.623047 0)"/>
       <use xlink:href="#DejaVuSans-35" transform="translate(95.410156 0)"/>
      </g>
     </g>
    </g>
    <g id="ytick_3">
     <g id="line2d_8">
      <path d="M 49.807188 195.911271 
L 719.407188 195.911271 
" clip-path="url(#p41f416c6d0)" style="fill: none; stroke: #cccccc; stroke-linecap: round"/>
     </g>
     <g id="text_9">
      <!-- 0.6 -->
      <g style="fill: #262626" transform="translate(22.81375 200.090412) scale(0.11 -0.11)">
       <defs>
        <path id="DejaVuSans-36" d="M 2113 2584 
Q 1688 2584 1439 2293 
Q 1191 2003 1191 1497 
Q 1191 994 1439 701 
Q 1688 409 2113 409 
Q 2538 409 2786 701 
Q 3034 994 3034 1497 
Q 3034 2003 2786 2293 
Q 2538 2584 2113 2584 
z
M 3366 4563 
L 3366 3988 
Q 3128 4100 2886 4159 
Q 2644 4219 2406 4219 
Q 1781 4219 1451 3797 
Q 1122 3375 1075 2522 
Q 1259 2794 1537 2939 
Q 1816 3084 2150 3084 
Q 2853 3084 3261 2657 
Q 3669 2231 3669 1497 
Q 3669 778 3244 343 
Q 2819 -91 2113 -91 
Q 1303 -91 875 529 
Q 447 1150 447 2328 
Q 447 3434 972 4092 
Q 1497 4750 2381 4750 
Q 2619 4750 2861 4703 
Q 3103 4656 3366 4563 
z
" transform="scale(0.015625)"/>
       </defs>
       <use xlink:href="#DejaVuSans-30"/>
       <use xlink:href="#DejaVuSans-2e" transform="translate(63.623047 0)"/>
       <use xlink:href="#DejaVuSans-36" transform="translate(95.410156 0)"/>
      </g>
     </g>
    </g>
    <g id="ytick_4">
     <g id="line2d_9">
      <path d="M 49.807188 122.238427 
L 719.407188 122.238427 
" clip-path="url(#p41f416c6d0)" style="fill: none; stroke: #cccccc; stroke-linecap: round"/>
     </g>
     <g id="text_10">
      <!-- 0.7 -->
      <g style="fill: #262626" transform="translate(22.81375 126.417567) scale(0.11 -0.11)">
       <defs>
        <path id="DejaVuSans-37" d="M 525 4666 
L 3525 4666 
L 3525 4397 
L 1831 0 
L 1172 0 
L 2766 4134 
L 525 4134 
L 525 4666 
z
" transform="scale(0.015625)"/>
       </defs>
       <use xlink:href="#DejaVuSans-30"/>
       <use xlink:href="#DejaVuSans-2e" transform="translate(63.623047 0)"/>
       <use xlink:href="#DejaVuSans-37" transform="translate(95.410156 0)"/>
      </g>
     </g>
    </g>
    <g id="ytick_5">
     <g id="line2d_10">
      <path d="M 49.807188 48.565582 
L 719.407188 48.565582 
" clip-path="url(#p41f416c6d0)" style="fill: none; stroke: #cccccc; stroke-linecap: round"/>
     </g>
     <g id="text_11">
      <!-- 0.8 -->
      <g style="fill: #262626" transform="translate(22.81375 52.744723) scale(0.11 -0.11)">
       <defs>
        <path id="DejaVuSans-38" d="M 2034 2216 
Q 1584 2216 1326 1975 
Q 1069 1734 1069 1313 
Q 1069 891 1326 650 
Q 1584 409 2034 409 
Q 2484 409 2743 651 
Q 3003 894 3003 1313 
Q 3003 1734 2745 1975 
Q 2488 2216 2034 2216 
z
M 1403 2484 
Q 997 2584 770 2862 
Q 544 3141 544 3541 
Q 544 4100 942 4425 
Q 1341 4750 2034 4750 
Q 2731 4750 3128 4425 
Q 3525 4100 3525 3541 
Q 3525 3141 3298 2862 
Q 3072 2584 2669 2484 
Q 3125 2378 3379 2068 
Q 3634 1759 3634 1313 
Q 3634 634 3220 271 
Q 2806 -91 2034 -91 
Q 1263 -91 848 271 
Q 434 634 434 1313 
Q 434 1759 690 2068 
Q 947 2378 1403 2484 
z
M 1172 3481 
Q 1172 3119 1398 2916 
Q 1625 2713 2034 2713 
Q 2441 2713 2670 2916 
Q 2900 3119 2900 3481 
Q 2900 3844 2670 4047 
Q 2441 4250 2034 4250 
Q 1625 4250 1398 4047 
Q 1172 3844 1172 3481 
z
" transform="scale(0.015625)"/>
       </defs>
       <use xlink:href="#DejaVuSans-30"/>
       <use xlink:href="#DejaVuSans-2e" transform="translate(63.623047 0)"/>
       <use xlink:href="#DejaVuSans-38" transform="translate(95.410156 0)"/>
      </g>
     </g>
    </g>
    <g id="text_12">
     <!-- Cosine similarity vs DFT -->
     <g style="fill: #262626" transform="translate(16.318125 260.498438) rotate(-90) scale(0.12 -0.12)">
      <defs>
       <path id="DejaVuSans-43" d="M 4122 4306 
L 4122 3641 
Q 3803 3938 3442 4084 
Q 3081 4231 2675 4231 
Q 1875 4231 1450 3742 
Q 1025 3253 1025 2328 
Q 1025 1406 1450 917 
Q 1875 428 2675 428 
Q 3081 428 3442 575 
Q 3803 722 4122 1019 
L 4122 359 
Q 3791 134 3420 21 
Q 3050 -91 2638 -91 
Q 1578 -91 968 557 
Q 359 1206 359 2328 
Q 359 3453 968 4101 
Q 1578 4750 2638 4750 
Q 3056 4750 3426 4639 
Q 3797 4528 4122 4306 
z
" transform="scale(0.015625)"/>
       <path id="DejaVuSans-6f" d="M 1959 3097 
Q 1497 3097 1228 2736 
Q 959 2375 959 1747 
Q 959 1119 1226 758 
Q 1494 397 1959 397 
Q 2419 397 2687 759 
Q 2956 1122 2956 1747 
Q 2956 2369 2687 2733 
Q 2419 3097 1959 3097 
z
M 1959 3584 
Q 2709 3584 3137 3096 
Q 3566 2609 3566 1747 
Q 3566 888 3137 398 
Q 2709 -91 1959 -91 
Q 1206 -91 779 398 
Q 353 888 353 1747 
Q 353 2609 779 3096 
Q 1206 3584 1959 3584 
z
" transform="scale(0.015625)"/>
       <path id="DejaVuSans-6e" d="M 3513 2113 
L 3513 0 
L 2938 0 
L 2938 2094 
Q 2938 2591 2744 2837 
Q 2550 3084 2163 3084 
Q 1697 3084 1428 2787 
Q 1159 2491 1159 1978 
L 1159 0 
L 581 0 
L 581 3500 
L 1159 3500 
L 1159 2956 
Q 1366 3272 1645 3428 
Q 1925 3584 2291 3584 
Q 2894 3584 3203 3211 
Q 3513 2838 3513 2113 
z
" transform="scale(0.015625)"/>
       <path id="DejaVuSans-6c" d="M 603 4863 
L 1178 4863 
L 1178 0 
L 603 0 
L 603 4863 
z
" transform="scale(0.015625)"/>
       <path id="DejaVuSans-61" d="M 2194 1759 
Q 1497 1759 1228 1600 
Q 959 1441 959 1056 
Q 959 750 1161 570 
Q 1363 391 1709 391 
Q 2188 391 2477 730 
Q 2766 1069 2766 1631 
L 2766 1759 
L 2194 1759 
z
M 3341 1997 
L 3341 0 
L 2766 0 
L 2766 531 
Q 2569 213 2275 61 
Q 1981 -91 1556 -91 
Q 1019 -91 701 211 
Q 384 513 384 1019 
Q 384 1609 779 1909 
Q 1175 2209 1959 2209 
L 2766 2209 
L 2766 2266 
Q 2766 2663 2505 2880 
Q 2244 3097 1772 3097 
Q 1472 3097 1187 3025 
Q 903 2953 641 2809 
L 641 3341 
Q 956 3463 1253 3523 
Q 1550 3584 1831 3584 
Q 2591 3584 2966 3190 
Q 3341 2797 3341 1997 
z
" transform="scale(0.015625)"/>
       <path id="DejaVuSans-72" d="M 2631 2963 
Q 2534 3019 2420 3045 
Q 2306 3072 2169 3072 
Q 1681 3072 1420 2755 
Q 1159 2438 1159 1844 
L 1159 0 
L 581 0 
L 581 3500 
L 1159 3500 
L 1159 2956 
Q 1341 3275 1631 3429 
Q 1922 3584 2338 3584 
Q 2397 3584 2469 3576 
Q 2541 3569 2628 3553 
L 2631 2963 
z
" transform="scale(0.015625)"/>
       <path id="DejaVuSans-74" d="M 1172 4494 
L 1172 3500 
L 2356 3500 
L 2356 3053 
L 1172 3053 
L 1172 1153 
Q 1172 725 1289 603 
Q 1406 481 1766 481 
L 2356 481 
L 2356 0 
L 1766 0 
Q 1100 0 847 248 
Q 594 497 594 1153 
L 594 3053 
L 172 3053 
L 172 3500 
L 594 3500 
L 594 4494 
L 1172 4494 
z
" transform="scale(0.015625)"/>
       <path id="DejaVuSans-79" d="M 2059 -325 
Q 1816 -950 1584 -1140 
Q 1353 -1331 966 -1331 
L 506 -1331 
L 506 -850 
L 844 -850 
Q 1081 -850 1212 -737 
Q 1344 -625 1503 -206 
L 1606 56 
L 191 3500 
L 800 3500 
L 1894 763 
L 2988 3500 
L 3597 3500 
L 2059 -325 
z
" transform="scale(0.015625)"/>
       <path id="DejaVuSans-76" d="M 191 3500 
L 800 3500 
L 1894 563 
L 2988 3500 
L 3597 3500 
L 2284 0 
L 1503 0 
L 191 3500 
z
" transform="scale(0.015625)"/>
       <path id="DejaVuSans-44" d="M 1259 4147 
L 1259 519 
L 2022 519 
Q 2988 519 3436 956 
Q 3884 1394 3884 2338 
Q 3884 3275 3436 3711 
Q 2988 4147 2022 4147 
L 1259 4147 
z
M 628 4666 
L 1925 4666 
Q 3281 4666 3915 4102 
Q 4550 3538 4550 2338 
Q 4550 1131 3912 565 
Q 3275 0 1925 0 
L 628 0 
L 628 4666 
z
" transform="scale(0.015625)"/>
       <path id="DejaVuSans-46" d="M 628 4666 
L 3309 4666 
L 3309 4134 
L 1259 4134 
L 1259 2759 
L 3109 2759 
L 3109 2228 
L 1259 2228 
L 1259 0 
L 628 0 
L 628 4666 
z
" transform="scale(0.015625)"/>
      </defs>
      <use xlink:href="#DejaVuSans-43"/>
      <use xlink:href="#DejaVuSans-6f" transform="translate(69.824219 0)"/>
      <use xlink:href="#DejaVuSans-73" transform="translate(131.005859 0)"/>
      <use xlink:href="#DejaVuSans-69" transform="translate(183.105469 0)"/>
      <use xlink:href="#DejaVuSans-6e" transform="translate(210.888672 0)"/>
      <use xlink:href="#DejaVuSans-65" transform="translate(274.267578 0)"/>
      <use xlink:href="#DejaVuSans-20" transform="translate(335.791016 0)"/>
      <use xlink:href="#DejaVuSans-73" transform="translate(367.578125 0)"/>
      <use xlink:href="#DejaVuSans-69" transform="translate(419.677734 0)"/>
      <use xlink:href="#DejaVuSans-6d" transform="translate(447.460938 0)"/>
      <use xlink:href="#DejaVuSans-69" transform="translate(544.873047 0)"/>
      <use xlink:href="#DejaVuSans-6c" transform="translate(572.65625 0)"/>
      <use xlink:href="#DejaVuSans-61" transform="translate(600.439453 0)"/>
      <use xlink:href="#DejaVuSans-72" transform="translate(661.71875 0)"/>
      <use xlink:href="#DejaVuSans-69" transform="translate(702.832031 0)"/>
      <use xlink:href="#DejaVuSans-74" transform="translate(730.615234 0)"/>
      <use xlink:href="#DejaVuSans-79" transform="translate(769.824219 0)"/>
      <use xlink:href="#DejaVuSans-20" transform="translate(829.003906 0)"/>
      <use xlink:href="#DejaVuSans-76" transform="translate(860.791016 0)"/>
      <use xlink:href="#DejaVuSans-73" transform="translate(919.970703 0)"/>
      <use xlink:href="#DejaVuSans-20" transform="translate(972.070312 0)"/>
      <use xlink:href="#DejaVuSans-44" transform="translate(1003.857422 0)"/>
      <use xlink:href="#DejaVuSans-46" transform="translate(1080.859375 0)"/>
      <use xlink:href="#DejaVuSans-54" transform="translate(1136.628906 0)"/>
     </g>
    </g>
   </g>
   <g id="FillBetweenPolyCollection_1">
    <defs>
     <path id="mb4416aa630" d="M 80.243551 -291.943749 
L 80.243551 -168.702997 
L 95.090558 -182.871074 
L 109.937564 -183.942958 
L 124.784571 -182.919308 
L 139.631578 -185.957897 
L 154.478584 -171.232356 
L 169.325591 -166.310395 
L 184.172598 -164.973602 
L 199.019604 -180.762484 
L 213.866611 -195.040547 
L 228.713618 -209.439077 
L 243.560624 -216.994037 
L 258.407631 -220.646893 
L 273.254638 -233.968687 
L 288.101644 -230.367625 
L 302.948651 -238.702697 
L 317.795658 -235.39095 
L 332.642664 -238.244232 
L 347.489671 -229.699287 
L 362.336678 -230.352996 
L 377.183684 -223.420666 
L 392.030691 -220.516403 
L 406.877697 -212.34575 
L 421.724704 -204.392982 
L 436.571711 -170.656871 
L 451.418717 -154.282968 
L 466.265724 -129.345678 
L 481.112731 -112.945805 
L 495.959737 -107.211246 
L 510.806744 -115.047419 
L 525.653751 -132.356966 
L 540.500757 -158.271797 
L 555.347764 -175.912833 
L 570.194771 -195.117926 
L 585.041777 -196.694308 
L 599.888784 -200.178193 
L 614.735791 -191.24895 
L 629.582797 -172.893996 
L 644.429804 -159.202284 
L 659.276811 -162.485266 
L 674.123817 -168.136356 
L 688.970824 -166.156148 
L 688.970824 -315.072466 
L 688.970824 -315.072466 
L 674.123817 -315.06638 
L 659.276811 -312.806567 
L 644.429804 -312.481364 
L 629.582797 -306.753551 
L 614.735791 -308.430777 
L 599.888784 -313.906563 
L 585.041777 -319.773991 
L 570.194771 -321.732199 
L 555.347764 -319.724948 
L 540.500757 -304.3771 
L 525.653751 -293.252883 
L 510.806744 -282.667328 
L 495.959737 -285.577413 
L 481.112731 -285.289971 
L 466.265724 -293.271805 
L 451.418717 -297.941198 
L 436.571711 -299.852949 
L 421.724704 -325.213007 
L 406.877697 -324.644662 
L 392.030691 -325.264692 
L 377.183684 -330.915054 
L 362.336678 -332.199241 
L 347.489671 -332.333263 
L 332.642664 -336.662479 
L 317.795658 -342.250158 
L 302.948651 -339.086645 
L 288.101644 -338.276524 
L 273.254638 -337.653771 
L 258.407631 -329.853941 
L 243.560624 -324.912869 
L 228.713618 -316.575431 
L 213.866611 -308.407546 
L 199.019604 -299.000889 
L 184.172598 -287.380001 
L 169.325591 -292.432465 
L 154.478584 -302.742515 
L 139.631578 -305.849061 
L 124.784571 -308.896566 
L 109.937564 -304.905492 
L 95.090558 -300.86463 
L 80.243551 -291.943749 
z
" style="stroke: #4c72b0; stroke-opacity: 0.2"/>
    </defs>
    <g clip-path="url(#p41f416c6d0)">
     <use xlink:href="#mb4416aa630" x="0" y="397.917813" style="fill: #4c72b0; fill-opacity: 0.2; stroke: #4c72b0; stroke-opacity: 0.2"/>
    </g>
   </g>
   <g id="FillBetweenPolyCollection_2">
    <defs>
     <path id="mfc52fdfdb5" d="M 80.243551 -299.803598 
L 80.243551 -173.99947 
L 95.090558 -184.281625 
L 109.937564 -186.793726 
L 124.784571 -193.145953 
L 139.631578 -184.328807 
L 154.478584 -189.327611 
L 169.325591 -176.138834 
L 184.172598 -178.742629 
L 199.019604 -192.491667 
L 213.866611 -201.567428 
L 228.713618 -206.492087 
L 243.560624 -214.477059 
L 258.407631 -218.398559 
L 273.254638 -235.511806 
L 288.101644 -233.684149 
L 302.948651 -231.460428 
L 317.795658 -234.995342 
L 332.642664 -234.507109 
L 347.489671 -230.192457 
L 362.336678 -228.220662 
L 377.183684 -225.531732 
L 392.030691 -222.367012 
L 406.877697 -214.753575 
L 421.724704 -187.728698 
L 436.571711 -154.362619 
L 451.418717 -140.448989 
L 466.265724 -107.73919 
L 481.112731 -103.905492 
L 495.959737 -93.854143 
L 510.806744 -105.762432 
L 525.653751 -123.16846 
L 540.500757 -150.271939 
L 555.347764 -182.614042 
L 570.194771 -210.059248 
L 585.041777 -212.64388 
L 599.888784 -214.282049 
L 614.735791 -209.260897 
L 629.582797 -193.474833 
L 644.429804 -168.457391 
L 659.276811 -175.790789 
L 674.123817 -178.128394 
L 688.970824 -188.876086 
L 688.970824 -336.229714 
L 688.970824 -336.229714 
L 674.123817 -327.652353 
L 659.276811 -326.084378 
L 644.429804 -322.769996 
L 629.582797 -317.099939 
L 614.735791 -317.750748 
L 599.888784 -324.893274 
L 585.041777 -322.147417 
L 570.194771 -326.824859 
L 555.347764 -320.269893 
L 540.500757 -300.486696 
L 525.653751 -280.76318 
L 510.806744 -273.710733 
L 495.959737 -268.706641 
L 481.112731 -271.532567 
L 466.265724 -282.03917 
L 451.418717 -280.888248 
L 436.571711 -284.859747 
L 421.724704 -312.448719 
L 406.877697 -320.23966 
L 392.030691 -325.184713 
L 377.183684 -322.057527 
L 362.336678 -329.194677 
L 347.489671 -333.443168 
L 332.642664 -337.091348 
L 317.795658 -339.61616 
L 302.948651 -335.274786 
L 288.101644 -333.281603 
L 273.254638 -335.126198 
L 258.407631 -330.77672 
L 243.560624 -325.163046 
L 228.713618 -314.169026 
L 213.866611 -304.717146 
L 199.019604 -298.144734 
L 184.172598 -290.465771 
L 169.325591 -297.6358 
L 154.478584 -310.692321 
L 139.631578 -312.330944 
L 124.784571 -315.395116 
L 109.937564 -305.01843 
L 95.090558 -302.477121 
L 80.243551 -299.803598 
z
" style="stroke: #dd8452; stroke-opacity: 0.2"/>
    </defs>
    <g clip-path="url(#p41f416c6d0)">
     <use xlink:href="#mfc52fdfdb5" x="0" y="397.917813" style="fill: #dd8452; fill-opacity: 0.2; stroke: #dd8452; stroke-opacity: 0.2"/>
    </g>
   </g>
   <g id="FillBetweenPolyCollection_3">
    <defs>
     <path id="mab58ed3c1c" d="M 80.243551 -277.824629 
L 80.243551 -136.340487 
L 95.090558 -148.600022 
L 109.937564 -157.433558 
L 124.784571 -173.063501 
L 139.631578 -170.609897 
L 154.478584 -172.419449 
L 169.325591 -164.699056 
L 184.172598 -160.400304 
L 199.019604 -164.489573 
L 213.866611 -174.704914 
L 228.713618 -185.991511 
L 243.560624 -191.183833 
L 258.407631 -205.879786 
L 273.254638 -211.540379 
L 288.101644 -208.907539 
L 302.948651 -211.836568 
L 317.795658 -204.484691 
L 332.642664 -206.056688 
L 347.489671 -197.58332 
L 362.336678 -202.784293 
L 377.183684 -193.740124 
L 392.030691 -186.962302 
L 406.877697 -188.787052 
L 421.724704 -162.296927 
L 436.571711 -123.708016 
L 451.418717 -91.25398 
L 466.265724 -58.085201 
L 481.112731 -58.079688 
L 495.959737 -69.807148 
L 510.806744 -78.416623 
L 525.653751 -93.40053 
L 540.500757 -111.949828 
L 555.347764 -134.316466 
L 570.194771 -160.85853 
L 585.041777 -163.8859 
L 599.888784 -160.257385 
L 614.735791 -157.107166 
L 629.582797 -148.862071 
L 644.429804 -140.048941 
L 659.276811 -155.008225 
L 674.123817 -154.183853 
L 688.970824 -157.783357 
L 688.970824 -311.296165 
L 688.970824 -311.296165 
L 674.123817 -309.722008 
L 659.276811 -315.712509 
L 644.429804 -301.924179 
L 629.582797 -294.446381 
L 614.735791 -294.769847 
L 599.888784 -298.606136 
L 585.041777 -295.213006 
L 570.194771 -299.808761 
L 555.347764 -289.069164 
L 540.500757 -272.306792 
L 525.653751 -260.72663 
L 510.806744 -250.441085 
L 495.959737 -243.588569 
L 481.112731 -243.604963 
L 466.265724 -243.462398 
L 451.418717 -257.054625 
L 436.571711 -271.849001 
L 421.724704 -301.258452 
L 406.877697 -313.634892 
L 392.030691 -318.189543 
L 377.183684 -311.217863 
L 362.336678 -316.259842 
L 347.489671 -315.839465 
L 332.642664 -318.836206 
L 317.795658 -321.198694 
L 302.948651 -318.084165 
L 288.101644 -317.172003 
L 273.254638 -323.31676 
L 258.407631 -317.198986 
L 243.560624 -316.01181 
L 228.713618 -307.57228 
L 213.866611 -302.0781 
L 199.019604 -291.613127 
L 184.172598 -289.565175 
L 169.325591 -288.256188 
L 154.478584 -297.291303 
L 139.631578 -305.336044 
L 124.784571 -304.606471 
L 109.937564 -294.777473 
L 95.090558 -283.57948 
L 80.243551 -277.824629 
z
" style="stroke: #55a868; stroke-opacity: 0.2"/>
    </defs>
    <g clip-path="url(#p41f416c6d0)">
     <use xlink:href="#mab58ed3c1c" x="0" y="397.917813" style="fill: #55a868; fill-opacity: 0.2; stroke: #55a868; stroke-opacity: 0.2"/>
    </g>
   </g>
   <g id="FillBetweenPolyCollection_4">
    <defs>
     <path id="m10688f2d8f" d="M 80.243551 -287.439347 
L 80.243551 -141.660829 
L 95.090558 -154.877773 
L 109.937564 -161.0166 
L 124.784571 -161.668523 
L 139.631578 -165.910132 
L 154.478584 -172.222932 
L 169.325591 -174.904948 
L 184.172598 -197.062304 
L 199.019604 -207.426632 
L 213.866611 -232.498306 
L 228.713618 -246.412641 
L 243.560624 -255.806563 
L 258.407631 -256.840885 
L 273.254638 -261.945616 
L 288.101644 -261.663602 
L 302.948651 -259.146876 
L 317.795658 -253.132165 
L 332.642664 -259.825774 
L 347.489671 -246.453785 
L 362.336678 -249.624899 
L 377.183684 -246.840231 
L 392.030691 -242.363339 
L 406.877697 -227.016169 
L 421.724704 -206.658968 
L 436.571711 -168.569418 
L 451.418717 -129.808865 
L 466.265724 -116.137151 
L 481.112731 -97.396318 
L 495.959737 -86.268981 
L 510.806744 -96.394721 
L 525.653751 -128.949513 
L 540.500757 -150.541883 
L 555.347764 -178.573009 
L 570.194771 -203.086356 
L 585.041777 -202.799763 
L 599.888784 -206.659491 
L 614.735791 -199.304427 
L 629.582797 -186.424465 
L 644.429804 -164.424412 
L 659.276811 -155.554314 
L 674.123817 -158.751113 
L 688.970824 -162.128782 
L 688.970824 -336.192265 
L 688.970824 -336.192265 
L 674.123817 -334.301489 
L 659.276811 -333.655946 
L 644.429804 -332.864036 
L 629.582797 -325.379872 
L 614.735791 -328.062878 
L 599.888784 -335.523443 
L 585.041777 -330.288587 
L 570.194771 -336.587223 
L 555.347764 -327.209764 
L 540.500757 -308.941539 
L 525.653751 -294.612036 
L 510.806744 -276.711282 
L 495.959737 -266.229425 
L 481.112731 -276.73507 
L 466.265724 -274.457861 
L 451.418717 -289.459269 
L 436.571711 -304.67032 
L 421.724704 -330.173631 
L 406.877697 -345.407587 
L 392.030691 -341.309953 
L 377.183684 -342.143149 
L 362.336678 -343.942247 
L 347.489671 -350.200701 
L 332.642664 -356.25936 
L 317.795658 -354.431286 
L 302.948651 -355.524367 
L 288.101644 -359.664046 
L 273.254638 -360.479687 
L 258.407631 -356.884208 
L 243.560624 -356.268026 
L 228.713618 -340.06097 
L 213.866611 -336.221226 
L 199.019604 -321.967503 
L 184.172598 -314.01051 
L 169.325591 -312.28105 
L 154.478584 -306.479233 
L 139.631578 -310.391561 
L 124.784571 -300.890737 
L 109.937564 -294.844249 
L 95.090558 -291.071781 
L 80.243551 -287.439347 
z
" style="stroke: #c44e52; stroke-opacity: 0.2"/>
    </defs>
    <g clip-path="url(#p41f416c6d0)">
     <use xlink:href="#m10688f2d8f" x="0" y="397.917813" style="fill: #c44e52; fill-opacity: 0.2; stroke: #c44e52; stroke-opacity: 0.2"/>
    </g>
   </g>
   <g id="FillBetweenPolyCollection_5">
    <defs>
     <path id="m8a361e2866" d="M 80.243551 -292.019999 
L 80.243551 -172.256341 
L 95.090558 -187.145169 
L 109.937564 -187.16416 
L 124.784571 -189.661841 
L 139.631578 -185.837534 
L 154.478584 -173.578346 
L 169.325591 -163.601522 
L 184.172598 -170.134728 
L 199.019604 -185.087853 
L 213.866611 -189.508318 
L 228.713618 -210.613218 
L 243.560624 -218.380249 
L 258.407631 -220.831387 
L 273.254638 -229.246784 
L 288.101644 -226.398777 
L 302.948651 -237.171312 
L 317.795658 -236.637502 
L 332.642664 -236.170624 
L 347.489671 -232.777408 
L 362.336678 -228.108678 
L 377.183684 -231.610136 
L 392.030691 -220.479272 
L 406.877697 -213.192117 
L 421.724704 -197.895082 
L 436.571711 -179.429585 
L 451.418717 -146.224176 
L 466.265724 -129.754808 
L 481.112731 -115.774918 
L 495.959737 -103.789328 
L 510.806744 -116.419851 
L 525.653751 -130.394807 
L 540.500757 -146.859862 
L 555.347764 -171.000866 
L 570.194771 -189.688486 
L 585.041777 -200.272599 
L 599.888784 -193.717091 
L 614.735791 -188.611298 
L 629.582797 -174.546246 
L 644.429804 -160.45735 
L 659.276811 -160.021602 
L 674.123817 -165.640018 
L 688.970824 -171.426286 
L 688.970824 -319.696608 
L 688.970824 -319.696608 
L 674.123817 -313.208646 
L 659.276811 -318.582321 
L 644.429804 -307.350591 
L 629.582797 -304.162412 
L 614.735791 -308.383148 
L 599.888784 -311.715706 
L 585.041777 -321.667546 
L 570.194771 -321.335167 
L 555.347764 -316.836707 
L 540.500757 -306.365134 
L 525.653751 -290.541591 
L 510.806744 -288.358041 
L 495.959737 -278.437123 
L 481.112731 -280.288209 
L 466.265724 -291.037605 
L 451.418717 -293.666152 
L 436.571711 -305.023059 
L 421.724704 -321.958279 
L 406.877697 -323.359387 
L 392.030691 -328.389664 
L 377.183684 -331.79789 
L 362.336678 -334.696224 
L 347.489671 -336.494795 
L 332.642664 -338.285312 
L 317.795658 -337.066308 
L 302.948651 -340.566585 
L 288.101644 -341.005363 
L 273.254638 -342.547503 
L 258.407631 -333.324656 
L 243.560624 -326.929151 
L 228.713618 -318.122266 
L 213.866611 -303.68087 
L 199.019604 -298.21015 
L 184.172598 -288.551163 
L 169.325591 -293.788764 
L 154.478584 -301.776992 
L 139.631578 -306.945467 
L 124.784571 -310.484147 
L 109.937564 -305.851996 
L 95.090558 -299.914373 
L 80.243551 -292.019999 
z
" style="stroke: #8172b3; stroke-opacity: 0.2"/>
    </defs>
    <g clip-path="url(#p41f416c6d0)">
     <use xlink:href="#m8a361e2866" x="0" y="397.917813" style="fill: #8172b3; fill-opacity: 0.2; stroke: #8172b3; stroke-opacity: 0.2"/>
    </g>
   </g>
   <g id="FillBetweenPolyCollection_6">
    <defs>
     <path id="m5505b60186" d="M 80.243551 -302.667397 
L 80.243551 -170.595432 
L 95.090558 -181.433898 
L 109.937564 -186.272244 
L 124.784571 -188.999386 
L 139.631578 -191.955875 
L 154.478584 -184.710177 
L 169.325591 -173.378836 
L 184.172598 -178.516419 
L 199.019604 -190.664701 
L 213.866611 -200.398363 
L 228.713618 -206.953187 
L 243.560624 -218.427291 
L 258.407631 -224.879738 
L 273.254638 -232.975466 
L 288.101644 -227.703883 
L 302.948651 -234.714146 
L 317.795658 -229.914941 
L 332.642664 -228.745204 
L 347.489671 -228.460116 
L 362.336678 -228.990686 
L 377.183684 -222.360972 
L 392.030691 -219.713755 
L 406.877697 -210.28702 
L 421.724704 -192.027328 
L 436.571711 -155.903932 
L 451.418717 -135.215755 
L 466.265724 -112.682053 
L 481.112731 -101.730893 
L 495.959737 -96.908513 
L 510.806744 -108.260199 
L 525.653751 -123.821476 
L 540.500757 -154.708651 
L 555.347764 -183.116871 
L 570.194771 -206.364227 
L 585.041777 -213.132155 
L 599.888784 -215.260959 
L 614.735791 -209.217647 
L 629.582797 -194.791615 
L 644.429804 -173.162715 
L 659.276811 -176.902762 
L 674.123817 -177.709403 
L 688.970824 -182.540094 
L 688.970824 -332.134081 
L 688.970824 -332.134081 
L 674.123817 -324.665923 
L 659.276811 -325.236405 
L 644.429804 -318.285697 
L 629.582797 -317.893953 
L 614.735791 -320.470889 
L 599.888784 -320.853275 
L 585.041777 -330.274899 
L 570.194771 -331.37478 
L 555.347764 -316.907595 
L 540.500757 -299.49556 
L 525.653751 -282.818592 
L 510.806744 -268.113914 
L 495.959737 -265.928895 
L 481.112731 -266.476609 
L 466.265724 -277.281952 
L 451.418717 -282.04634 
L 436.571711 -289.643807 
L 421.724704 -309.531112 
L 406.877697 -324.99803 
L 392.030691 -325.406005 
L 377.183684 -322.641692 
L 362.336678 -325.795717 
L 347.489671 -331.915245 
L 332.642664 -337.98665 
L 317.795658 -341.560621 
L 302.948651 -336.322234 
L 288.101644 -335.043006 
L 273.254638 -338.985386 
L 258.407631 -328.763453 
L 243.560624 -322.314958 
L 228.713618 -315.121015 
L 213.866611 -301.252173 
L 199.019604 -299.884881 
L 184.172598 -286.219222 
L 169.325591 -296.133558 
L 154.478584 -308.563896 
L 139.631578 -313.831209 
L 124.784571 -313.424924 
L 109.937564 -308.867378 
L 95.090558 -304.914204 
L 80.243551 -302.667397 
z
" style="stroke: #937860; stroke-opacity: 0.2"/>
    </defs>
    <g clip-path="url(#p41f416c6d0)">
     <use xlink:href="#m5505b60186" x="0" y="397.917813" style="fill: #937860; fill-opacity: 0.2; stroke: #937860; stroke-opacity: 0.2"/>
    </g>
   </g>
   <g id="FillBetweenPolyCollection_7">
    <defs>
     <path id="m1be023d36b" d="M 80.243551 -299.822153 
L 80.243551 -163.651114 
L 95.090558 -175.52182 
L 109.937564 -183.405267 
L 124.784571 -192.581014 
L 139.631578 -188.716036 
L 154.478584 -190.965714 
L 169.325591 -195.336842 
L 184.172598 -204.740409 
L 199.019604 -210.141636 
L 213.866611 -219.239427 
L 228.713618 -229.902777 
L 243.560624 -241.711873 
L 258.407631 -243.285277 
L 273.254638 -241.9655 
L 288.101644 -238.039951 
L 302.948651 -239.276111 
L 317.795658 -240.943839 
L 332.642664 -236.905805 
L 347.489671 -241.166887 
L 362.336678 -240.078204 
L 377.183684 -239.083187 
L 392.030691 -235.013852 
L 406.877697 -230.827485 
L 421.724704 -198.681676 
L 436.571711 -151.175417 
L 451.418717 -130.593367 
L 466.265724 -107.684608 
L 481.112731 -101.860224 
L 495.959737 -89.312142 
L 510.806744 -100.740477 
L 525.653751 -122.792683 
L 540.500757 -150.264964 
L 555.347764 -173.301044 
L 570.194771 -203.93214 
L 585.041777 -195.225157 
L 599.888784 -208.109171 
L 614.735791 -199.294048 
L 629.582797 -183.938818 
L 644.429804 -156.882917 
L 659.276811 -160.898759 
L 674.123817 -157.991511 
L 688.970824 -165.438078 
L 688.970824 -329.918911 
L 688.970824 -329.918911 
L 674.123817 -327.175684 
L 659.276811 -329.201105 
L 644.429804 -318.093489 
L 629.582797 -318.749961 
L 614.735791 -323.802322 
L 599.888784 -329.372813 
L 585.041777 -325.949334 
L 570.194771 -331.178782 
L 555.347764 -319.771762 
L 540.500757 -305.557618 
L 525.653751 -283.823395 
L 510.806744 -266.824538 
L 495.959737 -262.002194 
L 481.112731 -268.816654 
L 466.265724 -272.883899 
L 451.418717 -280.08184 
L 436.571711 -288.389873 
L 421.724704 -316.237418 
L 406.877697 -329.981209 
L 392.030691 -337.258814 
L 377.183684 -336.679437 
L 362.336678 -339.592324 
L 347.489671 -341.41283 
L 332.642664 -346.541821 
L 317.795658 -340.692966 
L 302.948651 -342.690983 
L 288.101644 -340.671847 
L 273.254638 -347.447083 
L 258.407631 -339.816784 
L 243.560624 -333.359814 
L 228.713618 -330.485246 
L 213.866611 -317.565669 
L 199.019604 -312.507803 
L 184.172598 -306.949414 
L 169.325591 -310.13958 
L 154.478584 -314.327151 
L 139.631578 -320.311131 
L 124.784571 -312.296221 
L 109.937564 -301.047285 
L 95.090558 -301.379578 
L 80.243551 -299.822153 
z
" style="stroke: #da8bc3; stroke-opacity: 0.2"/>
    </defs>
    <g clip-path="url(#p41f416c6d0)">
     <use xlink:href="#m1be023d36b" x="0" y="397.917813" style="fill: #da8bc3; fill-opacity: 0.2; stroke: #da8bc3; stroke-opacity: 0.2"/>
    </g>
   </g>
   <g id="FillBetweenPolyCollection_8">
    <defs>
     <path id="me5417596b1" d="M 80.243551 -289.518757 
L 80.243551 -176.591218 
L 95.090558 -183.339278 
L 109.937564 -185.008881 
L 124.784571 -186.682471 
L 139.631578 -186.478438 
L 154.478584 -169.974375 
L 169.325591 -167.916325 
L 184.172598 -176.067295 
L 199.019604 -186.204243 
L 213.866611 -197.713313 
L 228.713618 -208.753539 
L 243.560624 -220.79557 
L 258.407631 -224.698807 
L 273.254638 -236.530075 
L 288.101644 -236.407904 
L 302.948651 -228.549051 
L 317.795658 -233.703198 
L 332.642664 -232.392822 
L 347.489671 -224.368884 
L 362.336678 -222.184881 
L 377.183684 -220.356326 
L 392.030691 -217.087721 
L 406.877697 -200.27692 
L 421.724704 -182.62785 
L 436.571711 -157.342597 
L 451.418717 -132.138326 
L 466.265724 -110.49597 
L 481.112731 -98.688546 
L 495.959737 -83.382897 
L 510.806744 -97.389857 
L 525.653751 -122.72116 
L 540.500757 -138.523831 
L 555.347764 -177.044846 
L 570.194771 -206.40475 
L 585.041777 -208.557317 
L 599.888784 -211.397029 
L 614.735791 -200.29369 
L 629.582797 -192.169962 
L 644.429804 -173.397379 
L 659.276811 -149.157038 
L 674.123817 -144.985411 
L 688.970824 -159.394946 
L 688.970824 -329.57148 
L 688.970824 -329.57148 
L 674.123817 -316.41478 
L 659.276811 -318.70845 
L 644.429804 -315.044485 
L 629.582797 -312.857541 
L 614.735791 -319.938882 
L 599.888784 -325.834678 
L 585.041777 -329.180416 
L 570.194771 -324.717924 
L 555.347764 -319.032521 
L 540.500757 -299.343046 
L 525.653751 -279.134068 
L 510.806744 -266.498496 
L 495.959737 -262.618504 
L 481.112731 -265.203991 
L 466.265724 -272.328827 
L 451.418717 -286.619056 
L 436.571711 -292.853331 
L 421.724704 -308.556745 
L 406.877697 -316.59493 
L 392.030691 -320.244304 
L 377.183684 -324.051332 
L 362.336678 -323.732923 
L 347.489671 -334.110556 
L 332.642664 -335.31756 
L 317.795658 -332.08572 
L 302.948651 -335.169279 
L 288.101644 -338.130862 
L 273.254638 -339.477505 
L 258.407631 -336.492672 
L 243.560624 -323.943314 
L 228.713618 -315.080556 
L 213.866611 -306.99936 
L 199.019604 -296.938654 
L 184.172598 -296.361249 
L 169.325591 -299.271782 
L 154.478584 -301.40788 
L 139.631578 -304.268499 
L 124.784571 -306.867955 
L 109.937564 -299.504724 
L 95.090558 -298.236914 
L 80.243551 -289.518757 
z
" style="stroke: #8c8c8c; stroke-opacity: 0.2"/>
    </defs>
    <g clip-path="url(#p41f416c6d0)">
     <use xlink:href="#me5417596b1" x="0" y="397.917813" style="fill: #8c8c8c; fill-opacity: 0.2; stroke: #8c8c8c; stroke-opacity: 0.2"/>
    </g>
   </g>
   <g id="FillBetweenPolyCollection_9">
    <defs>
     <path id="mabf37a851c" d="M 80.243551 -295.241376 
L 80.243551 -178.932937 
L 95.090558 -198.935554 
L 109.937564 -194.61131 
L 124.784571 -199.674889 
L 139.631578 -194.338265 
L 154.478584 -182.636222 
L 169.325591 -176.332514 
L 184.172598 -183.589156 
L 199.019604 -196.524764 
L 213.866611 -205.208047 
L 228.713618 -222.720341 
L 243.560624 -232.704621 
L 258.407631 -237.589406 
L 273.254638 -245.393836 
L 288.101644 -241.053985 
L 302.948651 -235.476742 
L 317.795658 -235.90728 
L 332.642664 -237.448109 
L 347.489671 -229.752313 
L 362.336678 -228.306641 
L 377.183684 -224.939736 
L 392.030691 -221.599502 
L 406.877697 -206.195079 
L 421.724704 -183.755441 
L 436.571711 -149.947566 
L 451.418717 -131.468098 
L 466.265724 -111.822247 
L 481.112731 -96.119314 
L 495.959737 -72.523382 
L 510.806744 -86.583262 
L 525.653751 -98.607936 
L 540.500757 -138.111701 
L 555.347764 -157.224097 
L 570.194771 -201.025985 
L 585.041777 -208.613906 
L 599.888784 -209.238937 
L 614.735791 -198.976984 
L 629.582797 -185.553816 
L 644.429804 -158.455979 
L 659.276811 -147.081734 
L 674.123817 -136.808538 
L 688.970824 -142.290494 
L 688.970824 -316.644201 
L 688.970824 -316.644201 
L 674.123817 -312.684925 
L 659.276811 -315.117865 
L 644.429804 -318.105883 
L 629.582797 -317.406732 
L 614.735791 -318.687916 
L 599.888784 -327.525304 
L 585.041777 -331.271007 
L 570.194771 -325.123332 
L 555.347764 -316.54189 
L 540.500757 -296.992848 
L 525.653751 -265.998473 
L 510.806744 -262.269248 
L 495.959737 -257.068558 
L 481.112731 -264.372345 
L 466.265724 -275.979228 
L 451.418717 -269.219093 
L 436.571711 -284.013497 
L 421.724704 -305.843948 
L 406.877697 -319.260682 
L 392.030691 -320.697017 
L 377.183684 -324.192323 
L 362.336678 -328.022445 
L 347.489671 -332.761104 
L 332.642664 -339.748571 
L 317.795658 -340.1459 
L 302.948651 -339.611441 
L 288.101644 -337.715551 
L 273.254638 -345.885845 
L 258.407631 -337.215389 
L 243.560624 -335.675497 
L 228.713618 -322.941171 
L 213.866611 -315.052631 
L 199.019604 -308.164903 
L 184.172598 -304.546091 
L 169.325591 -307.773796 
L 154.478584 -307.452973 
L 139.631578 -317.174612 
L 124.784571 -312.193264 
L 109.937564 -308.077061 
L 95.090558 -305.007716 
L 80.243551 -295.241376 
z
" style="stroke: #ccb974; stroke-opacity: 0.2"/>
    </defs>
    <g clip-path="url(#p41f416c6d0)">
     <use xlink:href="#mabf37a851c" x="0" y="397.917813" style="fill: #ccb974; fill-opacity: 0.2; stroke: #ccb974; stroke-opacity: 0.2"/>
    </g>
   </g>
   <g id="line2d_11">
    <path d="M 80.243551 161.752733 
L 95.090558 152.611503 
L 109.937564 150.36823 
L 124.784571 147.308629 
L 139.631578 149.910022 
L 154.478584 157.099334 
L 169.325591 166.607538 
L 184.172598 167.386957 
L 199.019604 157.702908 
L 213.866611 145.515991 
L 228.713618 134.867814 
L 243.560624 123.075772 
L 258.407631 117.277567 
L 273.254638 108.07317 
L 288.101644 110.148455 
L 302.948651 107.240177 
L 317.795658 107.582957 
L 332.642664 108.032396 
L 347.489671 113.925009 
L 362.336678 115.434934 
L 377.183684 118.131758 
L 392.030691 122.211924 
L 406.877697 125.767728 
L 421.724704 132.095494 
L 436.571711 154.805299 
L 451.418717 170.930273 
L 466.265724 183.929621 
L 481.112731 192.835523 
L 495.959737 200.517493 
L 510.806744 194.542619 
L 525.653751 182.154604 
L 540.500757 163.695911 
L 555.347764 147.146679 
L 570.194771 135.178203 
L 585.041777 134.139105 
L 599.888784 137.678845 
L 614.735791 145.408399 
L 629.582797 152.448243 
L 644.429804 157.907609 
L 659.276811 153.796598 
L 674.123817 154.372012 
L 688.970824 149.423874 
" clip-path="url(#p41f416c6d0)" style="fill: none; stroke: #4c72b0; stroke-width: 1.5; stroke-linecap: round"/>
   </g>
   <g id="line2d_12">
    <path d="M 80.243551 158.785136 
L 95.090558 149.968298 
L 109.937564 146.811315 
L 124.784571 141.604528 
L 139.631578 142.905465 
L 154.478584 149.954568 
L 169.325591 159.089241 
L 184.172598 160.645604 
L 199.019604 152.748379 
L 213.866611 143.398631 
L 228.713618 135.523327 
L 243.560624 124.447626 
L 258.407631 118.675474 
L 273.254638 110.635174 
L 288.101644 113.13691 
L 302.948651 111.319362 
L 317.795658 111.749125 
L 332.642664 111.229902 
L 347.489671 115.527338 
L 362.336678 117.064929 
L 377.183684 120.375721 
L 392.030691 124.135161 
L 406.877697 129.7835 
L 421.724704 144.800425 
L 436.571711 171.8651 
L 451.418717 188.786362 
L 466.265724 200.393367 
L 481.112731 207.319527 
L 495.959737 213.9198 
L 510.806744 205.887618 
L 525.653751 189.410719 
L 540.500757 166.257553 
L 555.347764 144.489609 
L 570.194771 126.645698 
L 585.041777 124.055121 
L 599.888784 126.191141 
L 614.735791 132.628612 
L 629.582797 140.69099 
L 644.429804 147.512077 
L 659.276811 141.66869 
L 674.123817 140.237474 
L 688.970824 134.424654 
" clip-path="url(#p41f416c6d0)" style="fill: none; stroke: #dd8452; stroke-width: 1.5; stroke-linecap: round"/>
   </g>
   <g id="line2d_13">
    <path d="M 80.243551 187.751901 
L 95.090558 175.990949 
L 109.937564 168.045737 
L 124.784571 157.313636 
L 139.631578 154.541358 
L 154.478584 159.715375 
L 169.325591 170.721235 
L 184.172598 172.406227 
L 199.019604 164.386817 
L 213.866611 155.537237 
L 228.713618 150.511081 
L 243.560624 142.480022 
L 258.407631 136.74257 
L 273.254638 130.698114 
L 288.101644 133.011958 
L 302.948651 132.000695 
L 317.795658 132.096177 
L 332.642664 131.658874 
L 347.489671 135.269158 
L 362.336678 137.796508 
L 377.183684 142.642181 
L 392.030691 143.908635 
L 406.877697 145.385181 
L 421.724704 165.773385 
L 436.571711 202.25205 
L 451.418717 222.208159 
L 466.265724 239.505762 
L 481.112731 240.634656 
L 495.959737 240.940164 
L 510.806744 229.798802 
L 525.653751 214.094808 
L 540.500757 197.391991 
L 555.347764 182.228591 
L 570.194771 166.041487 
L 585.041777 163.542586 
L 599.888784 164.636095 
L 614.735791 169.902132 
L 629.582797 176.654026 
L 644.429804 171.89043 
L 659.276811 161.715042 
L 674.123817 161.818823 
L 688.970824 159.311764 
" clip-path="url(#p41f416c6d0)" style="fill: none; stroke: #55a868; stroke-width: 1.5; stroke-linecap: round"/>
   </g>
   <g id="line2d_14">
    <path d="M 80.243551 181.468893 
L 95.090558 174.081199 
L 109.937564 168.909567 
L 124.784571 161.087282 
L 139.631578 155.618152 
L 154.478584 154.210109 
L 169.325591 148.178955 
L 184.172598 141.697349 
L 199.019604 128.072755 
L 213.866611 113.483556 
L 228.713618 102.072081 
L 243.560624 90.958867 
L 258.407631 86.49265 
L 273.254638 81.932898 
L 288.101644 86.071942 
L 302.948651 88.161426 
L 317.795658 89.100842 
L 332.642664 88.914002 
L 347.489671 95.882642 
L 362.336678 99.268092 
L 377.183684 103.103068 
L 392.030691 105.323403 
L 406.877697 108.478172 
L 421.724704 126.011005 
L 436.571711 156.827917 
L 451.418717 179.045349 
L 466.265724 199.606777 
L 481.112731 207.740925 
L 495.959737 211.004433 
L 510.806744 201.279437 
L 525.653751 184.065088 
L 540.500757 162.084102 
L 555.347764 144.112416 
L 570.194771 127.366951 
L 585.041777 125.461104 
L 599.888784 126.262663 
L 614.735791 131.195966 
L 629.582797 135.988386 
L 644.429804 141.667003 
L 659.276811 143.04592 
L 674.123817 147.303277 
L 688.970824 143.94943 
" clip-path="url(#p41f416c6d0)" style="fill: none; stroke: #c44e52; stroke-width: 1.5; stroke-linecap: round"/>
   </g>
   <g id="line2d_15">
    <path d="M 80.243551 162.198279 
L 95.090558 153.04551 
L 109.937564 150.435525 
L 124.784571 147.645021 
L 139.631578 150.055435 
L 154.478584 157.246465 
L 169.325591 166.803954 
L 184.172598 167.132 
L 199.019604 157.020431 
L 213.866611 145.018558 
L 228.713618 134.49298 
L 243.560624 122.96776 
L 258.407631 117.384187 
L 273.254638 108.038203 
L 288.101644 109.955976 
L 302.948651 107.239687 
L 317.795658 107.7619 
L 332.642664 108.101798 
L 347.489671 113.718743 
L 362.336678 115.441119 
L 377.183684 118.242886 
L 392.030691 121.748305 
L 406.877697 125.90562 
L 421.724704 131.833253 
L 436.571711 154.367611 
L 451.418717 170.890532 
L 466.265724 183.746927 
L 481.112731 192.554266 
L 495.959737 200.722557 
L 510.806744 193.999611 
L 525.653751 182.053138 
L 540.500757 163.537939 
L 555.347764 147.214808 
L 570.194771 134.445258 
L 585.041777 133.658741 
L 599.888784 137.36986 
L 614.735791 145.678991 
L 629.582797 152.502145 
L 644.429804 156.990126 
L 659.276811 154.154098 
L 674.123817 154.278169 
L 688.970824 149.337994 
" clip-path="url(#p41f416c6d0)" style="fill: none; stroke: #8172b3; stroke-width: 1.5; stroke-linecap: round"/>
   </g>
   <g id="line2d_16">
    <path d="M 80.243551 158.964889 
L 95.090558 150.115656 
L 109.937564 146.8214 
L 124.784571 141.66908 
L 139.631578 142.974322 
L 154.478584 150.080198 
L 169.325591 159.315065 
L 184.172598 160.293057 
L 199.019604 152.12953 
L 213.866611 142.877311 
L 228.713618 135.19138 
L 243.560624 124.323114 
L 258.407631 118.561763 
L 273.254638 110.427881 
L 288.101644 112.924895 
L 302.948651 111.367105 
L 317.795658 111.782716 
L 332.642664 111.348516 
L 347.489671 115.335613 
L 362.336678 117.094252 
L 377.183684 120.556499 
L 392.030691 123.847559 
L 406.877697 130.037175 
L 421.724704 144.498348 
L 436.571711 171.200194 
L 451.418717 188.794975 
L 466.265724 200.151343 
L 481.112731 207.033096 
L 495.959737 213.885988 
L 510.806744 205.427961 
L 525.653751 189.349419 
L 540.500757 166.17172 
L 555.347764 144.319369 
L 570.194771 126.042492 
L 585.041777 123.758032 
L 599.888784 126.03031 
L 614.735791 132.736973 
L 629.582797 140.367133 
L 644.429804 146.815135 
L 659.276811 141.677389 
L 674.123817 140.12876 
L 688.970824 134.323722 
" clip-path="url(#p41f416c6d0)" style="fill: none; stroke: #937860; stroke-width: 1.5; stroke-linecap: round"/>
   </g>
   <g id="line2d_17">
    <path d="M 80.243551 165.148295 
L 95.090558 156.462034 
L 109.937564 150.522294 
L 124.784571 142.304396 
L 139.631578 138.926462 
L 154.478584 141.679988 
L 169.325591 142.150813 
L 184.172598 141.034373 
L 199.019604 133.637729 
L 213.866611 124.989656 
L 228.713618 118.64586 
L 243.560624 109.064641 
L 258.407631 105.904462 
L 273.254638 102.63857 
L 288.101644 107.38278 
L 302.948651 106.993257 
L 317.795658 106.327956 
L 332.642664 103.937611 
L 347.489671 106.608977 
L 362.336678 106.811568 
L 377.183684 108.094792 
L 392.030691 109.6555 
L 406.877697 116.245103 
L 421.724704 140.140601 
L 436.571711 172.64124 
L 451.418717 190.605009 
L 466.265724 203.878578 
L 481.112731 211.107938 
L 495.959737 217.635527 
L 510.806744 209.343621 
L 525.653751 192.120167 
L 540.500757 167.374324 
L 555.347764 147.032111 
L 570.194771 128.156327 
L 585.041777 126.016021 
L 599.888784 127.064069 
L 614.735791 132.85353 
L 629.582797 142.852224 
L 644.429804 152.79002 
L 659.276811 149.577935 
L 674.123817 149.703799 
L 688.970824 144.062619 
" clip-path="url(#p41f416c6d0)" style="fill: none; stroke: #da8bc3; stroke-width: 1.5; stroke-linecap: round"/>
   </g>
   <g id="line2d_18">
    <path d="M 80.243551 161.724424 
L 95.090558 153.280406 
L 109.937564 150.950345 
L 124.784571 147.731915 
L 139.631578 149.073439 
L 154.478584 155.158927 
L 169.325591 160.243401 
L 184.172598 161.416334 
L 199.019604 153.366005 
L 213.866611 142.634084 
L 228.713618 133.395957 
L 243.560624 121.497254 
L 258.407631 115.839443 
L 273.254638 108.593422 
L 288.101644 112.982499 
L 302.948651 113.039871 
L 317.795658 114.000627 
L 332.642664 113.334479 
L 347.489671 118.798267 
L 362.336678 120.990045 
L 377.183684 124.307744 
L 392.030691 128.777722 
L 406.877697 135.79878 
L 421.724704 148.659895 
L 436.571711 172.536941 
L 451.418717 189.680389 
L 466.265724 199.975585 
L 481.112731 206.557695 
L 495.959737 216.955318 
L 510.806744 209.579542 
L 525.653751 194.546944 
L 540.500757 171.86161 
L 555.347764 147.232861 
L 570.194771 126.338963 
L 585.041777 122.757851 
L 599.888784 126.097319 
L 614.735791 133.995617 
L 629.582797 141.299204 
L 644.429804 152.185788 
L 659.276811 157.051498 
L 674.123817 161.186749 
L 688.970824 154.399223 
" clip-path="url(#p41f416c6d0)" style="fill: none; stroke: #8c8c8c; stroke-width: 1.5; stroke-linecap: round"/>
   </g>
   <g id="line2d_19">
    <path d="M 80.243551 157.578565 
L 95.090558 146.684712 
L 109.937564 142.224452 
L 124.784571 137.283048 
L 139.631578 139.542476 
L 154.478584 146.206697 
L 169.325591 150.378857 
L 184.172598 151.32149 
L 199.019604 143.966674 
L 213.866611 133.704895 
L 228.713618 124.81418 
L 243.560624 112.866833 
L 258.407631 107.600376 
L 273.254638 100.215524 
L 288.101644 104.901737 
L 302.948651 106.00374 
L 317.795658 109.176896 
L 332.642664 109.905053 
L 347.489671 115.328001 
L 362.336678 118.350661 
L 377.183684 121.77877 
L 392.030691 126.430504 
L 406.877697 134.769567 
L 421.724704 151.848671 
L 436.571711 175.849339 
L 451.418717 192.75115 
L 466.265724 202.279887 
L 481.112731 209.944016 
L 495.959737 226.340828 
L 510.806744 220.847847 
L 525.653751 205.974048 
L 540.500757 182.034028 
L 555.347764 155.341084 
L 570.194771 132.07317 
L 585.041777 126.960107 
L 599.888784 129.273759 
L 614.735791 135.811602 
L 629.582797 143.166889 
L 644.429804 155.395547 
L 659.276811 161.168484 
L 674.123817 166.308884 
L 688.970824 161.917378 
" clip-path="url(#p41f416c6d0)" style="fill: none; stroke: #ccb974; stroke-width: 1.5; stroke-linecap: round"/>
   </g>
   <g id="line2d_20"/>
   <g id="line2d_21"/>
   <g id="line2d_22"/>
   <g id="line2d_23"/>
   <g id="line2d_24"/>
   <g id="line2d_25"/>
   <g id="line2d_26"/>
   <g id="line2d_27"/>
   <g id="line2d_28"/>
   <g id="patch_3">
    <path d="M 49.807188 354.958125 
L 49.807188 22.318125 
" style="fill: none; stroke: #cccccc; stroke-width: 1.25; stroke-linejoin: miter; stroke-linecap: square"/>
   </g>
   <g id="patch_4">
    <path d="M 719.407188 354.958125 
L 719.407188 22.318125 
" style="fill: none; stroke: #cccccc; stroke-width: 1.25; stroke-linejoin: miter; stroke-linecap: square"/>
   </g>
   <g id="patch_5">
    <path d="M 49.807188 354.958125 
L 719.407188 354.958125 
" style="fill: none; stroke: #cccccc; stroke-width: 1.25; stroke-linejoin: miter; stroke-linecap: square"/>
   </g>
   <g id="patch_6">
    <path d="M 49.807188 22.318125 
L 719.407188 22.318125 
" style="fill: none; stroke: #cccccc; stroke-width: 1.25; stroke-linejoin: miter; stroke-linecap: square"/>
   </g>
   <g id="text_13">
    <!-- Cosine similarity from DFT Over Frames by Method -->
    <g style="fill: #262626" transform="translate(231.71875 16.318125) scale(0.12 -0.12)">
     <defs>
      <path id="DejaVuSans-4f" d="M 2522 4238 
Q 1834 4238 1429 3725 
Q 1025 3213 1025 2328 
Q 1025 1447 1429 934 
Q 1834 422 2522 422 
Q 3209 422 3611 934 
Q 4013 1447 4013 2328 
Q 4013 3213 3611 3725 
Q 3209 4238 2522 4238 
z
M 2522 4750 
Q 3503 4750 4090 4092 
Q 4678 3434 4678 2328 
Q 4678 1225 4090 567 
Q 3503 -91 2522 -91 
Q 1538 -91 948 565 
Q 359 1222 359 2328 
Q 359 3434 948 4092 
Q 1538 4750 2522 4750 
z
" transform="scale(0.015625)"/>
      <path id="DejaVuSans-62" d="M 3116 1747 
Q 3116 2381 2855 2742 
Q 2594 3103 2138 3103 
Q 1681 3103 1420 2742 
Q 1159 2381 1159 1747 
Q 1159 1113 1420 752 
Q 1681 391 2138 391 
Q 2594 391 2855 752 
Q 3116 1113 3116 1747 
z
M 1159 2969 
Q 1341 3281 1617 3432 
Q 1894 3584 2278 3584 
Q 2916 3584 3314 3078 
Q 3713 2572 3713 1747 
Q 3713 922 3314 415 
Q 2916 -91 2278 -91 
Q 1894 -91 1617 61 
Q 1341 213 1159 525 
L 1159 0 
L 581 0 
L 581 4863 
L 1159 4863 
L 1159 2969 
z
" transform="scale(0.015625)"/>
      <path id="DejaVuSans-4d" d="M 628 4666 
L 1569 4666 
L 2759 1491 
L 3956 4666 
L 4897 4666 
L 4897 0 
L 4281 0 
L 4281 4097 
L 3078 897 
L 2444 897 
L 1241 4097 
L 1241 0 
L 628 0 
L 628 4666 
z
" transform="scale(0.015625)"/>
      <path id="DejaVuSans-68" d="M 3513 2113 
L 3513 0 
L 2938 0 
L 2938 2094 
Q 2938 2591 2744 2837 
Q 2550 3084 2163 3084 
Q 1697 3084 1428 2787 
Q 1159 2491 1159 1978 
L 1159 0 
L 581 0 
L 581 4863 
L 1159 4863 
L 1159 2956 
Q 1366 3272 1645 3428 
Q 1925 3584 2291 3584 
Q 2894 3584 3203 3211 
Q 3513 2838 3513 2113 
z
" transform="scale(0.015625)"/>
      <path id="DejaVuSans-64" d="M 2906 2969 
L 2906 4863 
L 3481 4863 
L 3481 0 
L 2906 0 
L 2906 525 
Q 2725 213 2448 61 
Q 2172 -91 1784 -91 
Q 1150 -91 751 415 
Q 353 922 353 1747 
Q 353 2572 751 3078 
Q 1150 3584 1784 3584 
Q 2172 3584 2448 3432 
Q 2725 3281 2906 2969 
z
M 947 1747 
Q 947 1113 1208 752 
Q 1469 391 1925 391 
Q 2381 391 2643 752 
Q 2906 1113 2906 1747 
Q 2906 2381 2643 2742 
Q 2381 3103 1925 3103 
Q 1469 3103 1208 2742 
Q 947 2381 947 1747 
z
" transform="scale(0.015625)"/>
     </defs>
     <use xlink:href="#DejaVuSans-43"/>
     <use xlink:href="#DejaVuSans-6f" transform="translate(69.824219 0)"/>
     <use xlink:href="#DejaVuSans-73" transform="translate(131.005859 0)"/>
     <use xlink:href="#DejaVuSans-69" transform="translate(183.105469 0)"/>
     <use xlink:href="#DejaVuSans-6e" transform="translate(210.888672 0)"/>
     <use xlink:href="#DejaVuSans-65" transform="translate(274.267578 0)"/>
     <use xlink:href="#DejaVuSans-20" transform="translate(335.791016 0)"/>
     <use xlink:href="#DejaVuSans-73" transform="translate(367.578125 0)"/>
     <use xlink:href="#DejaVuSans-69" transform="translate(419.677734 0)"/>
     <use xlink:href="#DejaVuSans-6d" transform="translate(447.460938 0)"/>
     <use xlink:href="#DejaVuSans-69" transform="translate(544.873047 0)"/>
     <use xlink:href="#DejaVuSans-6c" transform="translate(572.65625 0)"/>
     <use xlink:href="#DejaVuSans-61" transform="translate(600.439453 0)"/>
     <use xlink:href="#DejaVuSans-72" transform="translate(661.71875 0)"/>
     <use xlink:href="#DejaVuSans-69" transform="translate(702.832031 0)"/>
     <use xlink:href="#DejaVuSans-74" transform="translate(730.615234 0)"/>
     <use xlink:href="#DejaVuSans-79" transform="translate(769.824219 0)"/>
     <use xlink:href="#DejaVuSans-20" transform="translate(829.003906 0)"/>
     <use xlink:href="#DejaVuSans-66" transform="translate(860.791016 0)"/>
     <use xlink:href="#DejaVuSans-72" transform="translate(895.996094 0)"/>
     <use xlink:href="#DejaVuSans-6f" transform="translate(934.859375 0)"/>
     <use xlink:href="#DejaVuSans-6d" transform="translate(996.041016 0)"/>
     <use xlink:href="#DejaVuSans-20" transform="translate(1093.453125 0)"/>
     <use xlink:href="#DejaVuSans-44" transform="translate(1125.240234 0)"/>
     <use xlink:href="#DejaVuSans-46" transform="translate(1202.242188 0)"/>
     <use xlink:href="#DejaVuSans-54" transform="translate(1258.011719 0)"/>
     <use xlink:href="#DejaVuSans-20" transform="translate(1319.095703 0)"/>
     <use xlink:href="#DejaVuSans-4f" transform="translate(1350.882812 0)"/>
     <use xlink:href="#DejaVuSans-76" transform="translate(1429.59375 0)"/>
     <use xlink:href="#DejaVuSans-65" transform="translate(1488.773438 0)"/>
     <use xlink:href="#DejaVuSans-72" transform="translate(1550.296875 0)"/>
     <use xlink:href="#DejaVuSans-20" transform="translate(1591.410156 0)"/>
     <use xlink:href="#DejaVuSans-46" transform="translate(1623.197266 0)"/>
     <use xlink:href="#DejaVuSans-72" transform="translate(1673.466797 0)"/>
     <use xlink:href="#DejaVuSans-61" transform="translate(1714.580078 0)"/>
     <use xlink:href="#DejaVuSans-6d" transform="translate(1775.859375 0)"/>
     <use xlink:href="#DejaVuSans-65" transform="translate(1873.271484 0)"/>
     <use xlink:href="#DejaVuSans-73" transform="translate(1934.794922 0)"/>
     <use xlink:href="#DejaVuSans-20" transform="translate(1986.894531 0)"/>
     <use xlink:href="#DejaVuSans-62" transform="translate(2018.681641 0)"/>
     <use xlink:href="#DejaVuSans-79" transform="translate(2082.158203 0)"/>
     <use xlink:href="#DejaVuSans-20" transform="translate(2141.337891 0)"/>
     <use xlink:href="#DejaVuSans-4d" transform="translate(2173.125 0)"/>
     <use xlink:href="#DejaVuSans-65" transform="translate(2259.404297 0)"/>
     <use xlink:href="#DejaVuSans-74" transform="translate(2320.927734 0)"/>
     <use xlink:href="#DejaVuSans-68" transform="translate(2360.136719 0)"/>
     <use xlink:href="#DejaVuSans-6f" transform="translate(2423.515625 0)"/>
     <use xlink:href="#DejaVuSans-64" transform="translate(2484.697266 0)"/>
    </g>
   </g>
   <g id="legend_1">
    <g id="patch_7">
     <path d="M 300.034375 349.458125 
L 469.18 349.458125 
Q 471.38 349.458125 471.38 347.258125 
L 471.38 183.1775 
Q 471.38 180.9775 469.18 180.9775 
L 300.034375 180.9775 
Q 297.834375 180.9775 297.834375 183.1775 
L 297.834375 347.258125 
Q 297.834375 349.458125 300.034375 349.458125 
z
" style="fill: #ffffff; opacity: 0.8; stroke: #cccccc; stroke-linejoin: miter"/>
    </g>
    <g id="text_14">
     <!-- method -->
     <g style="fill: #262626" transform="translate(361.435938 194.495625) scale(0.12 -0.12)">
      <use xlink:href="#DejaVuSans-6d"/>
      <use xlink:href="#DejaVuSans-65" transform="translate(97.412109 0)"/>
      <use xlink:href="#DejaVuSans-74" transform="translate(158.935547 0)"/>
      <use xlink:href="#DejaVuSans-68" transform="translate(198.144531 0)"/>
      <use xlink:href="#DejaVuSans-6f" transform="translate(261.523438 0)"/>
      <use xlink:href="#DejaVuSans-64" transform="translate(322.705078 0)"/>
     </g>
    </g>
    <g id="line2d_29">
     <path d="M 302.234375 206.999531 
L 313.234375 206.999531 
L 324.234375 206.999531 
" style="fill: none; stroke: #4c72b0; stroke-width: 1.5; stroke-linecap: round"/>
    </g>
    <g id="text_15">
     <!-- ML_MACE_MP_64 -->
     <g style="fill: #262626" transform="translate(333.034375 210.849531) scale(0.11 -0.11)">
      <defs>
       <path id="DejaVuSans-4c" d="M 628 4666 
L 1259 4666 
L 1259 531 
L 3531 531 
L 3531 0 
L 628 0 
L 628 4666 
z
" transform="scale(0.015625)"/>
       <path id="DejaVuSans-5f" d="M 3263 -1063 
L 3263 -1509 
L -63 -1509 
L -63 -1063 
L 3263 -1063 
z
" transform="scale(0.015625)"/>
       <path id="DejaVuSans-41" d="M 2188 4044 
L 1331 1722 
L 3047 1722 
L 2188 4044 
z
M 1831 4666 
L 2547 4666 
L 4325 0 
L 3669 0 
L 3244 1197 
L 1141 1197 
L 716 0 
L 50 0 
L 1831 4666 
z
" transform="scale(0.015625)"/>
       <path id="DejaVuSans-45" d="M 628 4666 
L 3578 4666 
L 3578 4134 
L 1259 4134 
L 1259 2753 
L 3481 2753 
L 3481 2222 
L 1259 2222 
L 1259 531 
L 3634 531 
L 3634 0 
L 628 0 
L 628 4666 
z
" transform="scale(0.015625)"/>
       <path id="DejaVuSans-50" d="M 1259 4147 
L 1259 2394 
L 2053 2394 
Q 2494 2394 2734 2622 
Q 2975 2850 2975 3272 
Q 2975 3691 2734 3919 
Q 2494 4147 2053 4147 
L 1259 4147 
z
M 628 4666 
L 2053 4666 
Q 2838 4666 3239 4311 
Q 3641 3956 3641 3272 
Q 3641 2581 3239 2228 
Q 2838 1875 2053 1875 
L 1259 1875 
L 1259 0 
L 628 0 
L 628 4666 
z
" transform="scale(0.015625)"/>
      </defs>
      <use xlink:href="#DejaVuSans-4d"/>
      <use xlink:href="#DejaVuSans-4c" transform="translate(86.279297 0)"/>
      <use xlink:href="#DejaVuSans-5f" transform="translate(141.992188 0)"/>
      <use xlink:href="#DejaVuSans-4d" transform="translate(191.992188 0)"/>
      <use xlink:href="#DejaVuSans-41" transform="translate(278.271484 0)"/>
      <use xlink:href="#DejaVuSans-43" transform="translate(344.929688 0)"/>
      <use xlink:href="#DejaVuSans-45" transform="translate(414.753906 0)"/>
      <use xlink:href="#DejaVuSans-5f" transform="translate(477.9375 0)"/>
      <use xlink:href="#DejaVuSans-4d" transform="translate(527.9375 0)"/>
      <use xlink:href="#DejaVuSans-50" transform="translate(614.216797 0)"/>
      <use xlink:href="#DejaVuSans-5f" transform="translate(674.519531 0)"/>
      <use xlink:href="#DejaVuSans-36" transform="translate(724.519531 0)"/>
      <use xlink:href="#DejaVuSans-34" transform="translate(788.142578 0)"/>
     </g>
    </g>
    <g id="line2d_30">
     <path d="M 302.234375 223.451406 
L 313.234375 223.451406 
L 324.234375 223.451406 
" style="fill: none; stroke: #dd8452; stroke-width: 1.5; stroke-linecap: round"/>
    </g>
    <g id="text_16">
     <!-- ML_MACE_OMAT_64 -->
     <g style="fill: #262626" transform="translate(333.034375 227.301406) scale(0.11 -0.11)">
      <use xlink:href="#DejaVuSans-4d"/>
      <use xlink:href="#DejaVuSans-4c" transform="translate(86.279297 0)"/>
      <use xlink:href="#DejaVuSans-5f" transform="translate(141.992188 0)"/>
      <use xlink:href="#DejaVuSans-4d" transform="translate(191.992188 0)"/>
      <use xlink:href="#DejaVuSans-41" transform="translate(278.271484 0)"/>
      <use xlink:href="#DejaVuSans-43" transform="translate(344.929688 0)"/>
      <use xlink:href="#DejaVuSans-45" transform="translate(414.753906 0)"/>
      <use xlink:href="#DejaVuSans-5f" transform="translate(477.9375 0)"/>
      <use xlink:href="#DejaVuSans-4f" transform="translate(527.9375 0)"/>
      <use xlink:href="#DejaVuSans-4d" transform="translate(606.648438 0)"/>
      <use xlink:href="#DejaVuSans-41" transform="translate(692.927734 0)"/>
      <use xlink:href="#DejaVuSans-54" transform="translate(753.585938 0)"/>
      <use xlink:href="#DejaVuSans-5f" transform="translate(814.669922 0)"/>
      <use xlink:href="#DejaVuSans-36" transform="translate(864.669922 0)"/>
      <use xlink:href="#DejaVuSans-34" transform="translate(928.292969 0)"/>
     </g>
    </g>
    <g id="line2d_31">
     <path d="M 302.234375 239.903281 
L 313.234375 239.903281 
L 324.234375 239.903281 
" style="fill: none; stroke: #55a868; stroke-width: 1.5; stroke-linecap: round"/>
    </g>
    <g id="text_17">
     <!-- ML_ORB_CONSERVATIVE -->
     <g style="fill: #262626" transform="translate(333.034375 243.753281) scale(0.11 -0.11)">
      <defs>
       <path id="DejaVuSans-52" d="M 2841 2188 
Q 3044 2119 3236 1894 
Q 3428 1669 3622 1275 
L 4263 0 
L 3584 0 
L 2988 1197 
Q 2756 1666 2539 1819 
Q 2322 1972 1947 1972 
L 1259 1972 
L 1259 0 
L 628 0 
L 628 4666 
L 2053 4666 
Q 2853 4666 3247 4331 
Q 3641 3997 3641 3322 
Q 3641 2881 3436 2590 
Q 3231 2300 2841 2188 
z
M 1259 4147 
L 1259 2491 
L 2053 2491 
Q 2509 2491 2742 2702 
Q 2975 2913 2975 3322 
Q 2975 3731 2742 3939 
Q 2509 4147 2053 4147 
L 1259 4147 
z
" transform="scale(0.015625)"/>
       <path id="DejaVuSans-42" d="M 1259 2228 
L 1259 519 
L 2272 519 
Q 2781 519 3026 730 
Q 3272 941 3272 1375 
Q 3272 1813 3026 2020 
Q 2781 2228 2272 2228 
L 1259 2228 
z
M 1259 4147 
L 1259 2741 
L 2194 2741 
Q 2656 2741 2882 2914 
Q 3109 3088 3109 3444 
Q 3109 3797 2882 3972 
Q 2656 4147 2194 4147 
L 1259 4147 
z
M 628 4666 
L 2241 4666 
Q 2963 4666 3353 4366 
Q 3744 4066 3744 3513 
Q 3744 3084 3544 2831 
Q 3344 2578 2956 2516 
Q 3422 2416 3680 2098 
Q 3938 1781 3938 1306 
Q 3938 681 3513 340 
Q 3088 0 2303 0 
L 628 0 
L 628 4666 
z
" transform="scale(0.015625)"/>
       <path id="DejaVuSans-4e" d="M 628 4666 
L 1478 4666 
L 3547 763 
L 3547 4666 
L 4159 4666 
L 4159 0 
L 3309 0 
L 1241 3903 
L 1241 0 
L 628 0 
L 628 4666 
z
" transform="scale(0.015625)"/>
       <path id="DejaVuSans-53" d="M 3425 4513 
L 3425 3897 
Q 3066 4069 2747 4153 
Q 2428 4238 2131 4238 
Q 1616 4238 1336 4038 
Q 1056 3838 1056 3469 
Q 1056 3159 1242 3001 
Q 1428 2844 1947 2747 
L 2328 2669 
Q 3034 2534 3370 2195 
Q 3706 1856 3706 1288 
Q 3706 609 3251 259 
Q 2797 -91 1919 -91 
Q 1588 -91 1214 -16 
Q 841 59 441 206 
L 441 856 
Q 825 641 1194 531 
Q 1563 422 1919 422 
Q 2459 422 2753 634 
Q 3047 847 3047 1241 
Q 3047 1584 2836 1778 
Q 2625 1972 2144 2069 
L 1759 2144 
Q 1053 2284 737 2584 
Q 422 2884 422 3419 
Q 422 4038 858 4394 
Q 1294 4750 2059 4750 
Q 2388 4750 2728 4690 
Q 3069 4631 3425 4513 
z
" transform="scale(0.015625)"/>
       <path id="DejaVuSans-56" d="M 1831 0 
L 50 4666 
L 709 4666 
L 2188 738 
L 3669 4666 
L 4325 4666 
L 2547 0 
L 1831 0 
z
" transform="scale(0.015625)"/>
       <path id="DejaVuSans-49" d="M 628 4666 
L 1259 4666 
L 1259 0 
L 628 0 
L 628 4666 
z
" transform="scale(0.015625)"/>
      </defs>
      <use xlink:href="#DejaVuSans-4d"/>
      <use xlink:href="#DejaVuSans-4c" transform="translate(86.279297 0)"/>
      <use xlink:href="#DejaVuSans-5f" transform="translate(141.992188 0)"/>
      <use xlink:href="#DejaVuSans-4f" transform="translate(191.992188 0)"/>
      <use xlink:href="#DejaVuSans-52" transform="translate(270.703125 0)"/>
      <use xlink:href="#DejaVuSans-42" transform="translate(340.185547 0)"/>
      <use xlink:href="#DejaVuSans-5f" transform="translate(408.789062 0)"/>
      <use xlink:href="#DejaVuSans-43" transform="translate(458.789062 0)"/>
      <use xlink:href="#DejaVuSans-4f" transform="translate(528.613281 0)"/>
      <use xlink:href="#DejaVuSans-4e" transform="translate(607.324219 0)"/>
      <use xlink:href="#DejaVuSans-53" transform="translate(682.128906 0)"/>
      <use xlink:href="#DejaVuSans-45" transform="translate(745.605469 0)"/>
      <use xlink:href="#DejaVuSans-52" transform="translate(808.789062 0)"/>
      <use xlink:href="#DejaVuSans-56" transform="translate(872.771484 0)"/>
      <use xlink:href="#DejaVuSans-41" transform="translate(934.804688 0)"/>
      <use xlink:href="#DejaVuSans-54" transform="translate(995.462891 0)"/>
      <use xlink:href="#DejaVuSans-49" transform="translate(1056.546875 0)"/>
      <use xlink:href="#DejaVuSans-56" transform="translate(1086.039062 0)"/>
      <use xlink:href="#DejaVuSans-45" transform="translate(1154.447266 0)"/>
     </g>
    </g>
    <g id="line2d_32">
     <path d="M 302.234375 256.355156 
L 313.234375 256.355156 
L 324.234375 256.355156 
" style="fill: none; stroke: #c44e52; stroke-width: 1.5; stroke-linecap: round"/>
    </g>
    <g id="text_18">
     <!-- ML_ORB_DIRECT -->
     <g style="fill: #262626" transform="translate(333.034375 260.205156) scale(0.11 -0.11)">
      <use xlink:href="#DejaVuSans-4d"/>
      <use xlink:href="#DejaVuSans-4c" transform="translate(86.279297 0)"/>
      <use xlink:href="#DejaVuSans-5f" transform="translate(141.992188 0)"/>
      <use xlink:href="#DejaVuSans-4f" transform="translate(191.992188 0)"/>
      <use xlink:href="#DejaVuSans-52" transform="translate(270.703125 0)"/>
      <use xlink:href="#DejaVuSans-42" transform="translate(340.185547 0)"/>
      <use xlink:href="#DejaVuSans-5f" transform="translate(408.789062 0)"/>
      <use xlink:href="#DejaVuSans-44" transform="translate(458.789062 0)"/>
      <use xlink:href="#DejaVuSans-49" transform="translate(535.791016 0)"/>
      <use xlink:href="#DejaVuSans-52" transform="translate(565.283203 0)"/>
      <use xlink:href="#DejaVuSans-45" transform="translate(634.765625 0)"/>
      <use xlink:href="#DejaVuSans-43" transform="translate(697.949219 0)"/>
      <use xlink:href="#DejaVuSans-54" transform="translate(767.773438 0)"/>
     </g>
    </g>
    <g id="line2d_33">
     <path d="M 302.234375 272.807031 
L 313.234375 272.807031 
L 324.234375 272.807031 
" style="fill: none; stroke: #8172b3; stroke-width: 1.5; stroke-linecap: round"/>
    </g>
    <g id="text_19">
     <!-- ML_MACE_MP -->
     <g style="fill: #262626" transform="translate(333.034375 276.657031) scale(0.11 -0.11)">
      <use xlink:href="#DejaVuSans-4d"/>
      <use xlink:href="#DejaVuSans-4c" transform="translate(86.279297 0)"/>
      <use xlink:href="#DejaVuSans-5f" transform="translate(141.992188 0)"/>
      <use xlink:href="#DejaVuSans-4d" transform="translate(191.992188 0)"/>
      <use xlink:href="#DejaVuSans-41" transform="translate(278.271484 0)"/>
      <use xlink:href="#DejaVuSans-43" transform="translate(344.929688 0)"/>
      <use xlink:href="#DejaVuSans-45" transform="translate(414.753906 0)"/>
      <use xlink:href="#DejaVuSans-5f" transform="translate(477.9375 0)"/>
      <use xlink:href="#DejaVuSans-4d" transform="translate(527.9375 0)"/>
      <use xlink:href="#DejaVuSans-50" transform="translate(614.216797 0)"/>
     </g>
    </g>
    <g id="line2d_34">
     <path d="M 302.234375 289.258906 
L 313.234375 289.258906 
L 324.234375 289.258906 
" style="fill: none; stroke: #937860; stroke-width: 1.5; stroke-linecap: round"/>
    </g>
    <g id="text_20">
     <!-- ML_MACE_OMAT -->
     <g style="fill: #262626" transform="translate(333.034375 293.108906) scale(0.11 -0.11)">
      <use xlink:href="#DejaVuSans-4d"/>
      <use xlink:href="#DejaVuSans-4c" transform="translate(86.279297 0)"/>
      <use xlink:href="#DejaVuSans-5f" transform="translate(141.992188 0)"/>
      <use xlink:href="#DejaVuSans-4d" transform="translate(191.992188 0)"/>
      <use xlink:href="#DejaVuSans-41" transform="translate(278.271484 0)"/>
      <use xlink:href="#DejaVuSans-43" transform="translate(344.929688 0)"/>
      <use xlink:href="#DejaVuSans-45" transform="translate(414.753906 0)"/>
      <use xlink:href="#DejaVuSans-5f" transform="translate(477.9375 0)"/>
      <use xlink:href="#DejaVuSans-4f" transform="translate(527.9375 0)"/>
      <use xlink:href="#DejaVuSans-4d" transform="translate(606.648438 0)"/>
      <use xlink:href="#DejaVuSans-41" transform="translate(692.927734 0)"/>
      <use xlink:href="#DejaVuSans-54" transform="translate(753.585938 0)"/>
     </g>
    </g>
    <g id="line2d_35">
     <path d="M 302.234375 305.710781 
L 313.234375 305.710781 
L 324.234375 305.710781 
" style="fill: none; stroke: #da8bc3; stroke-width: 1.5; stroke-linecap: round"/>
    </g>
    <g id="text_21">
     <!-- ML_NeqIP_cuEq -->
     <g style="fill: #262626" transform="translate(333.034375 309.560781) scale(0.11 -0.11)">
      <defs>
       <path id="DejaVuSans-71" d="M 947 1747 
Q 947 1113 1208 752 
Q 1469 391 1925 391 
Q 2381 391 2643 752 
Q 2906 1113 2906 1747 
Q 2906 2381 2643 2742 
Q 2381 3103 1925 3103 
Q 1469 3103 1208 2742 
Q 947 2381 947 1747 
z
M 2906 525 
Q 2725 213 2448 61 
Q 2172 -91 1784 -91 
Q 1150 -91 751 415 
Q 353 922 353 1747 
Q 353 2572 751 3078 
Q 1150 3584 1784 3584 
Q 2172 3584 2448 3432 
Q 2725 3281 2906 2969 
L 2906 3500 
L 3481 3500 
L 3481 -1331 
L 2906 -1331 
L 2906 525 
z
" transform="scale(0.015625)"/>
       <path id="DejaVuSans-63" d="M 3122 3366 
L 3122 2828 
Q 2878 2963 2633 3030 
Q 2388 3097 2138 3097 
Q 1578 3097 1268 2742 
Q 959 2388 959 1747 
Q 959 1106 1268 751 
Q 1578 397 2138 397 
Q 2388 397 2633 464 
Q 2878 531 3122 666 
L 3122 134 
Q 2881 22 2623 -34 
Q 2366 -91 2075 -91 
Q 1284 -91 818 406 
Q 353 903 353 1747 
Q 353 2603 823 3093 
Q 1294 3584 2113 3584 
Q 2378 3584 2631 3529 
Q 2884 3475 3122 3366 
z
" transform="scale(0.015625)"/>
       <path id="DejaVuSans-75" d="M 544 1381 
L 544 3500 
L 1119 3500 
L 1119 1403 
Q 1119 906 1312 657 
Q 1506 409 1894 409 
Q 2359 409 2629 706 
Q 2900 1003 2900 1516 
L 2900 3500 
L 3475 3500 
L 3475 0 
L 2900 0 
L 2900 538 
Q 2691 219 2414 64 
Q 2138 -91 1772 -91 
Q 1169 -91 856 284 
Q 544 659 544 1381 
z
M 1991 3584 
L 1991 3584 
z
" transform="scale(0.015625)"/>
      </defs>
      <use xlink:href="#DejaVuSans-4d"/>
      <use xlink:href="#DejaVuSans-4c" transform="translate(86.279297 0)"/>
      <use xlink:href="#DejaVuSans-5f" transform="translate(141.992188 0)"/>
      <use xlink:href="#DejaVuSans-4e" transform="translate(191.992188 0)"/>
      <use xlink:href="#DejaVuSans-65" transform="translate(266.796875 0)"/>
      <use xlink:href="#DejaVuSans-71" transform="translate(328.320312 0)"/>
      <use xlink:href="#DejaVuSans-49" transform="translate(391.796875 0)"/>
      <use xlink:href="#DejaVuSans-50" transform="translate(421.289062 0)"/>
      <use xlink:href="#DejaVuSans-5f" transform="translate(481.591797 0)"/>
      <use xlink:href="#DejaVuSans-63" transform="translate(531.591797 0)"/>
      <use xlink:href="#DejaVuSans-75" transform="translate(586.572266 0)"/>
      <use xlink:href="#DejaVuSans-45" transform="translate(649.951172 0)"/>
      <use xlink:href="#DejaVuSans-71" transform="translate(713.134766 0)"/>
     </g>
    </g>
    <g id="line2d_36">
     <path d="M 302.234375 322.162656 
L 313.234375 322.162656 
L 324.234375 322.162656 
" style="fill: none; stroke: #8c8c8c; stroke-width: 1.5; stroke-linecap: round"/>
    </g>
    <g id="text_22">
     <!-- ML_MatterSim_1M -->
     <g style="fill: #262626" transform="translate(333.034375 326.012656) scale(0.11 -0.11)">
      <use xlink:href="#DejaVuSans-4d"/>
      <use xlink:href="#DejaVuSans-4c" transform="translate(86.279297 0)"/>
      <use xlink:href="#DejaVuSans-5f" transform="translate(141.992188 0)"/>
      <use xlink:href="#DejaVuSans-4d" transform="translate(191.992188 0)"/>
      <use xlink:href="#DejaVuSans-61" transform="translate(278.271484 0)"/>
      <use xlink:href="#DejaVuSans-74" transform="translate(339.550781 0)"/>
      <use xlink:href="#DejaVuSans-74" transform="translate(378.759766 0)"/>
      <use xlink:href="#DejaVuSans-65" transform="translate(417.96875 0)"/>
      <use xlink:href="#DejaVuSans-72" transform="translate(479.492188 0)"/>
      <use xlink:href="#DejaVuSans-53" transform="translate(520.605469 0)"/>
      <use xlink:href="#DejaVuSans-69" transform="translate(584.082031 0)"/>
      <use xlink:href="#DejaVuSans-6d" transform="translate(611.865234 0)"/>
      <use xlink:href="#DejaVuSans-5f" transform="translate(709.277344 0)"/>
      <use xlink:href="#DejaVuSans-31" transform="translate(759.277344 0)"/>
      <use xlink:href="#DejaVuSans-4d" transform="translate(822.900391 0)"/>
     </g>
    </g>
    <g id="line2d_37">
     <path d="M 302.234375 338.614531 
L 313.234375 338.614531 
L 324.234375 338.614531 
" style="fill: none; stroke: #ccb974; stroke-width: 1.5; stroke-linecap: round"/>
    </g>
    <g id="text_23">
     <!-- ML_MatterSim_5M -->
     <g style="fill: #262626" transform="translate(333.034375 342.464531) scale(0.11 -0.11)">
      <use xlink:href="#DejaVuSans-4d"/>
      <use xlink:href="#DejaVuSans-4c" transform="translate(86.279297 0)"/>
      <use xlink:href="#DejaVuSans-5f" transform="translate(141.992188 0)"/>
      <use xlink:href="#DejaVuSans-4d" transform="translate(191.992188 0)"/>
      <use xlink:href="#DejaVuSans-61" transform="translate(278.271484 0)"/>
      <use xlink:href="#DejaVuSans-74" transform="translate(339.550781 0)"/>
      <use xlink:href="#DejaVuSans-74" transform="translate(378.759766 0)"/>
      <use xlink:href="#DejaVuSans-65" transform="translate(417.96875 0)"/>
      <use xlink:href="#DejaVuSans-72" transform="translate(479.492188 0)"/>
      <use xlink:href="#DejaVuSans-53" transform="translate(520.605469 0)"/>
      <use xlink:href="#DejaVuSans-69" transform="translate(584.082031 0)"/>
      <use xlink:href="#DejaVuSans-6d" transform="translate(611.865234 0)"/>
      <use xlink:href="#DejaVuSans-5f" transform="translate(709.277344 0)"/>
      <use xlink:href="#DejaVuSans-35" transform="translate(759.277344 0)"/>
      <use xlink:href="#DejaVuSans-4d" transform="translate(822.900391 0)"/>
     </g>
    </g>
   </g>
  </g>
 </g>
 <defs>
  <clipPath id="p41f416c6d0">
   <rect x="49.807188" y="22.318125" width="669.6" height="332.64"/>
  </clipPath>
 </defs>
</svg>
