<?xml version="1.0" encoding="utf-8" standalone="no"?>
<!DOCTYPE svg PUBLIC "-//W3C//DTD SVG 1.1//EN"
  "http://www.w3.org/Graphics/SVG/1.1/DTD/svg11.dtd">
<svg xmlns:xlink="http://www.w3.org/1999/xlink" width="1022.679586pt" height="441.839687pt" viewBox="0 0 1022.679586 441.839687" xmlns="http://www.w3.org/2000/svg" version="1.1">
 <metadata>
  <rdf:RDF xmlns:dc="http://purl.org/dc/elements/1.1/" xmlns:cc="http://creativecommons.org/ns#" xmlns:rdf="http://www.w3.org/1999/02/22-rdf-syntax-ns#">
   <cc:Work>
    <dc:type rdf:resource="http://purl.org/dc/dcmitype/StillImage"/>
    <dc:date>2025-09-29T10:23:55.409901</dc:date>
    <dc:format>image/svg+xml</dc:format>
    <dc:creator>
     <cc:Agent>
      <dc:title>Matplotlib v3.10.6, https://matplotlib.org/</dc:title>
     </cc:Agent>
    </dc:creator>
   </cc:Work>
  </rdf:RDF>
 </metadata>
 <defs>
  <style type="text/css">*{stroke-linejoin: round; stroke-linecap: butt}</style>
 </defs>
 <g id="figure_1">
  <g id="patch_1">
   <path d="M 0 441.839687 
L 1022.679586 441.839687 
L 1022.679586 -0 
L 0 -0 
z
" style="fill: #ffffff"/>
  </g>
  <g id="axes_1">
   <g id="patch_2">
    <path d="M 58.827188 398.88 
L 837.038936 398.88 
L 837.038936 28.8 
L 58.827188 28.8 
z
" style="fill: #ffffff"/>
   </g>
   <g id="matplotlib.axis_1">
    <g id="xtick_1">
     <g id="line2d_1">
      <path d="M 94.200449 398.88 
L 94.200449 28.8 
" clip-path="url(#pc13f33670a)" style="fill: none; stroke: #cccccc; stroke-linecap: round"/>
     </g>
     <g id="text_1">
      <!-- 0 -->
      <g style="fill: #262626" transform="translate(90.701074 416.738281) scale(0.11 -0.11)">
       <defs>
        <path id="DejaVuSans-30" d="M 2034 4250 
Q 1547 4250 1301 3770 
Q 1056 3291 1056 2328 
Q 1056 1369 1301 889 
Q 1547 409 2034 409 
Q 2525 409 2770 889 
Q 3016 1369 3016 2328 
Q 3016 3291 2770 3770 
Q 2525 4250 2034 4250 
z
M 2034 4750 
Q 2819 4750 3233 4129 
Q 3647 3509 3647 2328 
Q 3647 1150 3233 529 
Q 2819 -91 2034 -91 
Q 1250 -91 836 529 
Q 422 1150 422 2328 
Q 422 3509 836 4129 
Q 1250 4750 2034 4750 
z
" transform="scale(0.015625)"/>
       </defs>
       <use xlink:href="#DejaVuSans-30"/>
      </g>
     </g>
    </g>
    <g id="xtick_2">
     <g id="line2d_2">
      <path d="M 266.752943 398.88 
L 266.752943 28.8 
" clip-path="url(#pc13f33670a)" style="fill: none; stroke: #cccccc; stroke-linecap: round"/>
     </g>
     <g id="text_2">
      <!-- 10 -->
      <g style="fill: #262626" transform="translate(259.754193 416.738281) scale(0.11 -0.11)">
       <defs>
        <path id="DejaVuSans-31" d="M 794 531 
L 1825 531 
L 1825 4091 
L 703 3866 
L 703 4441 
L 1819 4666 
L 2450 4666 
L 2450 531 
L 3481 531 
L 3481 0 
L 794 0 
L 794 531 
z
" transform="scale(0.015625)"/>
       </defs>
       <use xlink:href="#DejaVuSans-31"/>
       <use xlink:href="#DejaVuSans-30" transform="translate(63.623047 0)"/>
      </g>
     </g>
    </g>
    <g id="xtick_3">
     <g id="line2d_3">
      <path d="M 439.305437 398.88 
L 439.305437 28.8 
" clip-path="url(#pc13f33670a)" style="fill: none; stroke: #cccccc; stroke-linecap: round"/>
     </g>
     <g id="text_3">
      <!-- 20 -->
      <g style="fill: #262626" transform="translate(432.306687 416.738281) scale(0.11 -0.11)">
       <defs>
        <path id="DejaVuSans-32" d="M 1228 531 
L 3431 531 
L 3431 0 
L 469 0 
L 469 531 
Q 828 903 1448 1529 
Q 2069 2156 2228 2338 
Q 2531 2678 2651 2914 
Q 2772 3150 2772 3378 
Q 2772 3750 2511 3984 
Q 2250 4219 1831 4219 
Q 1534 4219 1204 4116 
Q 875 4013 500 3803 
L 500 4441 
Q 881 4594 1212 4672 
Q 1544 4750 1819 4750 
Q 2544 4750 2975 4387 
Q 3406 4025 3406 3419 
Q 3406 3131 3298 2873 
Q 3191 2616 2906 2266 
Q 2828 2175 2409 1742 
Q 1991 1309 1228 531 
z
" transform="scale(0.015625)"/>
       </defs>
       <use xlink:href="#DejaVuSans-32"/>
       <use xlink:href="#DejaVuSans-30" transform="translate(63.623047 0)"/>
      </g>
     </g>
    </g>
    <g id="xtick_4">
     <g id="line2d_4">
      <path d="M 611.857931 398.88 
L 611.857931 28.8 
" clip-path="url(#pc13f33670a)" style="fill: none; stroke: #cccccc; stroke-linecap: round"/>
     </g>
     <g id="text_4">
      <!-- 30 -->
      <g style="fill: #262626" transform="translate(604.859181 416.738281) scale(0.11 -0.11)">
       <defs>
        <path id="DejaVuSans-33" d="M 2597 2516 
Q 3050 2419 3304 2112 
Q 3559 1806 3559 1356 
Q 3559 666 3084 287 
Q 2609 -91 1734 -91 
Q 1441 -91 1130 -33 
Q 819 25 488 141 
L 488 750 
Q 750 597 1062 519 
Q 1375 441 1716 441 
Q 2309 441 2620 675 
Q 2931 909 2931 1356 
Q 2931 1769 2642 2001 
Q 2353 2234 1838 2234 
L 1294 2234 
L 1294 2753 
L 1863 2753 
Q 2328 2753 2575 2939 
Q 2822 3125 2822 3475 
Q 2822 3834 2567 4026 
Q 2313 4219 1838 4219 
Q 1578 4219 1281 4162 
Q 984 4106 628 3988 
L 628 4550 
Q 988 4650 1302 4700 
Q 1616 4750 1894 4750 
Q 2613 4750 3031 4423 
Q 3450 4097 3450 3541 
Q 3450 3153 3228 2886 
Q 3006 2619 2597 2516 
z
" transform="scale(0.015625)"/>
       </defs>
       <use xlink:href="#DejaVuSans-33"/>
       <use xlink:href="#DejaVuSans-30" transform="translate(63.623047 0)"/>
      </g>
     </g>
    </g>
    <g id="xtick_5">
     <g id="line2d_5">
      <path d="M 784.410425 398.88 
L 784.410425 28.8 
" clip-path="url(#pc13f33670a)" style="fill: none; stroke: #cccccc; stroke-linecap: round"/>
     </g>
     <g id="text_5">
      <!-- 40 -->
      <g style="fill: #262626" transform="translate(777.411675 416.738281) scale(0.11 -0.11)">
       <defs>
        <path id="DejaVuSans-34" d="M 2419 4116 
L 825 1625 
L 2419 1625 
L 2419 4116 
z
M 2253 4666 
L 3047 4666 
L 3047 1625 
L 3713 1625 
L 3713 1100 
L 3047 1100 
L 3047 0 
L 2419 0 
L 2419 1100 
L 313 1100 
L 313 1709 
L 2253 4666 
z
" transform="scale(0.015625)"/>
       </defs>
       <use xlink:href="#DejaVuSans-34"/>
       <use xlink:href="#DejaVuSans-30" transform="translate(63.623047 0)"/>
      </g>
     </g>
    </g>
    <g id="text_6">
     <!-- Time (fs) -->
     <g style="fill: #262626" transform="translate(421.426187 432.144062) scale(0.12 -0.12)">
      <defs>
       <path id="DejaVuSans-54" d="M -19 4666 
L 3928 4666 
L 3928 4134 
L 2272 4134 
L 2272 0 
L 1638 0 
L 1638 4134 
L -19 4134 
L -19 4666 
z
" transform="scale(0.015625)"/>
       <path id="DejaVuSans-69" d="M 603 3500 
L 1178 3500 
L 1178 0 
L 603 0 
L 603 3500 
z
M 603 4863 
L 1178 4863 
L 1178 4134 
L 603 4134 
L 603 4863 
z
" transform="scale(0.015625)"/>
       <path id="DejaVuSans-6d" d="M 3328 2828 
Q 3544 3216 3844 3400 
Q 4144 3584 4550 3584 
Q 5097 3584 5394 3201 
Q 5691 2819 5691 2113 
L 5691 0 
L 5113 0 
L 5113 2094 
Q 5113 2597 4934 2840 
Q 4756 3084 4391 3084 
Q 3944 3084 3684 2787 
Q 3425 2491 3425 1978 
L 3425 0 
L 2847 0 
L 2847 2094 
Q 2847 2600 2669 2842 
Q 2491 3084 2119 3084 
Q 1678 3084 1418 2786 
Q 1159 2488 1159 1978 
L 1159 0 
L 581 0 
L 581 3500 
L 1159 3500 
L 1159 2956 
Q 1356 3278 1631 3431 
Q 1906 3584 2284 3584 
Q 2666 3584 2933 3390 
Q 3200 3197 3328 2828 
z
" transform="scale(0.015625)"/>
       <path id="DejaVuSans-65" d="M 3597 1894 
L 3597 1613 
L 953 1613 
Q 991 1019 1311 708 
Q 1631 397 2203 397 
Q 2534 397 2845 478 
Q 3156 559 3463 722 
L 3463 178 
Q 3153 47 2828 -22 
Q 2503 -91 2169 -91 
Q 1331 -91 842 396 
Q 353 884 353 1716 
Q 353 2575 817 3079 
Q 1281 3584 2069 3584 
Q 2775 3584 3186 3129 
Q 3597 2675 3597 1894 
z
M 3022 2063 
Q 3016 2534 2758 2815 
Q 2500 3097 2075 3097 
Q 1594 3097 1305 2825 
Q 1016 2553 972 2059 
L 3022 2063 
z
" transform="scale(0.015625)"/>
       <path id="DejaVuSans-20" transform="scale(0.015625)"/>
       <path id="DejaVuSans-28" d="M 1984 4856 
Q 1566 4138 1362 3434 
Q 1159 2731 1159 2009 
Q 1159 1288 1364 580 
Q 1569 -128 1984 -844 
L 1484 -844 
Q 1016 -109 783 600 
Q 550 1309 550 2009 
Q 550 2706 781 3412 
Q 1013 4119 1484 4856 
L 1984 4856 
z
" transform="scale(0.015625)"/>
       <path id="DejaVuSans-66" d="M 2375 4863 
L 2375 4384 
L 1825 4384 
Q 1516 4384 1395 4259 
Q 1275 4134 1275 3809 
L 1275 3500 
L 2222 3500 
L 2222 3053 
L 1275 3053 
L 1275 0 
L 697 0 
L 697 3053 
L 147 3053 
L 147 3500 
L 697 3500 
L 697 3744 
Q 697 4328 969 4595 
Q 1241 4863 1831 4863 
L 2375 4863 
z
" transform="scale(0.015625)"/>
       <path id="DejaVuSans-73" d="M 2834 3397 
L 2834 2853 
Q 2591 2978 2328 3040 
Q 2066 3103 1784 3103 
Q 1356 3103 1142 2972 
Q 928 2841 928 2578 
Q 928 2378 1081 2264 
Q 1234 2150 1697 2047 
L 1894 2003 
Q 2506 1872 2764 1633 
Q 3022 1394 3022 966 
Q 3022 478 2636 193 
Q 2250 -91 1575 -91 
Q 1294 -91 989 -36 
Q 684 19 347 128 
L 347 722 
Q 666 556 975 473 
Q 1284 391 1588 391 
Q 1994 391 2212 530 
Q 2431 669 2431 922 
Q 2431 1156 2273 1281 
Q 2116 1406 1581 1522 
L 1381 1569 
Q 847 1681 609 1914 
Q 372 2147 372 2553 
Q 372 3047 722 3315 
Q 1072 3584 1716 3584 
Q 2034 3584 2315 3537 
Q 2597 3491 2834 3397 
z
" transform="scale(0.015625)"/>
       <path id="DejaVuSans-29" d="M 513 4856 
L 1013 4856 
Q 1481 4119 1714 3412 
Q 1947 2706 1947 2009 
Q 1947 1309 1714 600 
Q 1481 -109 1013 -844 
L 513 -844 
Q 928 -128 1133 580 
Q 1338 1288 1338 2009 
Q 1338 2731 1133 3434 
Q 928 4138 513 4856 
z
" transform="scale(0.015625)"/>
      </defs>
      <use xlink:href="#DejaVuSans-54"/>
      <use xlink:href="#DejaVuSans-69" transform="translate(57.958984 0)"/>
      <use xlink:href="#DejaVuSans-6d" transform="translate(85.742188 0)"/>
      <use xlink:href="#DejaVuSans-65" transform="translate(183.154297 0)"/>
      <use xlink:href="#DejaVuSans-20" transform="translate(244.677734 0)"/>
      <use xlink:href="#DejaVuSans-28" transform="translate(276.464844 0)"/>
      <use xlink:href="#DejaVuSans-66" transform="translate(315.478516 0)"/>
      <use xlink:href="#DejaVuSans-73" transform="translate(350.683594 0)"/>
      <use xlink:href="#DejaVuSans-29" transform="translate(402.783203 0)"/>
     </g>
    </g>
   </g>
   <g id="matplotlib.axis_2">
    <g id="ytick_1">
     <g id="line2d_6">
      <path d="M 58.827188 390.5383 
L 837.038936 390.5383 
" clip-path="url(#pc13f33670a)" style="fill: none; stroke: #cccccc; stroke-linecap: round"/>
     </g>
     <g id="text_7">
      <!-- 0.35 -->
      <g style="fill: #262626" transform="translate(24.835 394.71744) scale(0.11 -0.11)">
       <defs>
        <path id="DejaVuSans-2e" d="M 684 794 
L 1344 794 
L 1344 0 
L 684 0 
L 684 794 
z
" transform="scale(0.015625)"/>
        <path id="DejaVuSans-35" d="M 691 4666 
L 3169 4666 
L 3169 4134 
L 1269 4134 
L 1269 2991 
Q 1406 3038 1543 3061 
Q 1681 3084 1819 3084 
Q 2600 3084 3056 2656 
Q 3513 2228 3513 1497 
Q 3513 744 3044 326 
Q 2575 -91 1722 -91 
Q 1428 -91 1123 -41 
Q 819 9 494 109 
L 494 744 
Q 775 591 1075 516 
Q 1375 441 1709 441 
Q 2250 441 2565 725 
Q 2881 1009 2881 1497 
Q 2881 1984 2565 2268 
Q 2250 2553 1709 2553 
Q 1456 2553 1204 2497 
Q 953 2441 691 2322 
L 691 4666 
z
" transform="scale(0.015625)"/>
       </defs>
       <use xlink:href="#DejaVuSans-30"/>
       <use xlink:href="#DejaVuSans-2e" transform="translate(63.623047 0)"/>
       <use xlink:href="#DejaVuSans-33" transform="translate(95.410156 0)"/>
       <use xlink:href="#DejaVuSans-35" transform="translate(159.033203 0)"/>
      </g>
     </g>
    </g>
    <g id="ytick_2">
     <g id="line2d_7">
      <path d="M 58.827188 334.358662 
L 837.038936 334.358662 
" clip-path="url(#pc13f33670a)" style="fill: none; stroke: #cccccc; stroke-linecap: round"/>
     </g>
     <g id="text_8">
      <!-- 0.40 -->
      <g style="fill: #262626" transform="translate(24.835 338.537803) scale(0.11 -0.11)">
       <use xlink:href="#DejaVuSans-30"/>
       <use xlink:href="#DejaVuSans-2e" transform="translate(63.623047 0)"/>
       <use xlink:href="#DejaVuSans-34" transform="translate(95.410156 0)"/>
       <use xlink:href="#DejaVuSans-30" transform="translate(159.033203 0)"/>
      </g>
     </g>
    </g>
    <g id="ytick_3">
     <g id="line2d_8">
      <path d="M 58.827188 278.179025 
L 837.038936 278.179025 
" clip-path="url(#pc13f33670a)" style="fill: none; stroke: #cccccc; stroke-linecap: round"/>
     </g>
     <g id="text_9">
      <!-- 0.45 -->
      <g style="fill: #262626" transform="translate(24.835 282.358166) scale(0.11 -0.11)">
       <use xlink:href="#DejaVuSans-30"/>
       <use xlink:href="#DejaVuSans-2e" transform="translate(63.623047 0)"/>
       <use xlink:href="#DejaVuSans-34" transform="translate(95.410156 0)"/>
       <use xlink:href="#DejaVuSans-35" transform="translate(159.033203 0)"/>
      </g>
     </g>
    </g>
    <g id="ytick_4">
     <g id="line2d_9">
      <path d="M 58.827188 221.999387 
L 837.038936 221.999387 
" clip-path="url(#pc13f33670a)" style="fill: none; stroke: #cccccc; stroke-linecap: round"/>
     </g>
     <g id="text_10">
      <!-- 0.50 -->
      <g style="fill: #262626" transform="translate(24.835 226.178528) scale(0.11 -0.11)">
       <use xlink:href="#DejaVuSans-30"/>
       <use xlink:href="#DejaVuSans-2e" transform="translate(63.623047 0)"/>
       <use xlink:href="#DejaVuSans-35" transform="translate(95.410156 0)"/>
       <use xlink:href="#DejaVuSans-30" transform="translate(159.033203 0)"/>
      </g>
     </g>
    </g>
    <g id="ytick_5">
     <g id="line2d_10">
      <path d="M 58.827188 165.81975 
L 837.038936 165.81975 
" clip-path="url(#pc13f33670a)" style="fill: none; stroke: #cccccc; stroke-linecap: round"/>
     </g>
     <g id="text_11">
      <!-- 0.55 -->
      <g style="fill: #262626" transform="translate(24.835 169.998891) scale(0.11 -0.11)">
       <use xlink:href="#DejaVuSans-30"/>
       <use xlink:href="#DejaVuSans-2e" transform="translate(63.623047 0)"/>
       <use xlink:href="#DejaVuSans-35" transform="translate(95.410156 0)"/>
       <use xlink:href="#DejaVuSans-35" transform="translate(159.033203 0)"/>
      </g>
     </g>
    </g>
    <g id="ytick_6">
     <g id="line2d_11">
      <path d="M 58.827188 109.640113 
L 837.038936 109.640113 
" clip-path="url(#pc13f33670a)" style="fill: none; stroke: #cccccc; stroke-linecap: round"/>
     </g>
     <g id="text_12">
      <!-- 0.60 -->
      <g style="fill: #262626" transform="translate(24.835 113.819253) scale(0.11 -0.11)">
       <defs>
        <path id="DejaVuSans-36" d="M 2113 2584 
Q 1688 2584 1439 2293 
Q 1191 2003 1191 1497 
Q 1191 994 1439 701 
Q 1688 409 2113 409 
Q 2538 409 2786 701 
Q 3034 994 3034 1497 
Q 3034 2003 2786 2293 
Q 2538 2584 2113 2584 
z
M 3366 4563 
L 3366 3988 
Q 3128 4100 2886 4159 
Q 2644 4219 2406 4219 
Q 1781 4219 1451 3797 
Q 1122 3375 1075 2522 
Q 1259 2794 1537 2939 
Q 1816 3084 2150 3084 
Q 2853 3084 3261 2657 
Q 3669 2231 3669 1497 
Q 3669 778 3244 343 
Q 2819 -91 2113 -91 
Q 1303 -91 875 529 
Q 447 1150 447 2328 
Q 447 3434 972 4092 
Q 1497 4750 2381 4750 
Q 2619 4750 2861 4703 
Q 3103 4656 3366 4563 
z
" transform="scale(0.015625)"/>
       </defs>
       <use xlink:href="#DejaVuSans-30"/>
       <use xlink:href="#DejaVuSans-2e" transform="translate(63.623047 0)"/>
       <use xlink:href="#DejaVuSans-36" transform="translate(95.410156 0)"/>
       <use xlink:href="#DejaVuSans-30" transform="translate(159.033203 0)"/>
      </g>
     </g>
    </g>
    <g id="ytick_7">
     <g id="line2d_12">
      <path d="M 58.827188 53.460475 
L 837.038936 53.460475 
" clip-path="url(#pc13f33670a)" style="fill: none; stroke: #cccccc; stroke-linecap: round"/>
     </g>
     <g id="text_13">
      <!-- 0.65 -->
      <g style="fill: #262626" transform="translate(24.835 57.639616) scale(0.11 -0.11)">
       <use xlink:href="#DejaVuSans-30"/>
       <use xlink:href="#DejaVuSans-2e" transform="translate(63.623047 0)"/>
       <use xlink:href="#DejaVuSans-36" transform="translate(95.410156 0)"/>
       <use xlink:href="#DejaVuSans-35" transform="translate(159.033203 0)"/>
      </g>
     </g>
    </g>
    <g id="text_14">
     <!-- Force Magnitude (eV/Å) -->
     <g style="fill: #262626" transform="translate(18.339375 284.2725) rotate(-90) scale(0.12 -0.12)">
      <defs>
       <path id="DejaVuSans-46" d="M 628 4666 
L 3309 4666 
L 3309 4134 
L 1259 4134 
L 1259 2759 
L 3109 2759 
L 3109 2228 
L 1259 2228 
L 1259 0 
L 628 0 
L 628 4666 
z
" transform="scale(0.015625)"/>
       <path id="DejaVuSans-6f" d="M 1959 3097 
Q 1497 3097 1228 2736 
Q 959 2375 959 1747 
Q 959 1119 1226 758 
Q 1494 397 1959 397 
Q 2419 397 2687 759 
Q 2956 1122 2956 1747 
Q 2956 2369 2687 2733 
Q 2419 3097 1959 3097 
z
M 1959 3584 
Q 2709 3584 3137 3096 
Q 3566 2609 3566 1747 
Q 3566 888 3137 398 
Q 2709 -91 1959 -91 
Q 1206 -91 779 398 
Q 353 888 353 1747 
Q 353 2609 779 3096 
Q 1206 3584 1959 3584 
z
" transform="scale(0.015625)"/>
       <path id="DejaVuSans-72" d="M 2631 2963 
Q 2534 3019 2420 3045 
Q 2306 3072 2169 3072 
Q 1681 3072 1420 2755 
Q 1159 2438 1159 1844 
L 1159 0 
L 581 0 
L 581 3500 
L 1159 3500 
L 1159 2956 
Q 1341 3275 1631 3429 
Q 1922 3584 2338 3584 
Q 2397 3584 2469 3576 
Q 2541 3569 2628 3553 
L 2631 2963 
z
" transform="scale(0.015625)"/>
       <path id="DejaVuSans-63" d="M 3122 3366 
L 3122 2828 
Q 2878 2963 2633 3030 
Q 2388 3097 2138 3097 
Q 1578 3097 1268 2742 
Q 959 2388 959 1747 
Q 959 1106 1268 751 
Q 1578 397 2138 397 
Q 2388 397 2633 464 
Q 2878 531 3122 666 
L 3122 134 
Q 2881 22 2623 -34 
Q 2366 -91 2075 -91 
Q 1284 -91 818 406 
Q 353 903 353 1747 
Q 353 2603 823 3093 
Q 1294 3584 2113 3584 
Q 2378 3584 2631 3529 
Q 2884 3475 3122 3366 
z
" transform="scale(0.015625)"/>
       <path id="DejaVuSans-4d" d="M 628 4666 
L 1569 4666 
L 2759 1491 
L 3956 4666 
L 4897 4666 
L 4897 0 
L 4281 0 
L 4281 4097 
L 3078 897 
L 2444 897 
L 1241 4097 
L 1241 0 
L 628 0 
L 628 4666 
z
" transform="scale(0.015625)"/>
       <path id="DejaVuSans-61" d="M 2194 1759 
Q 1497 1759 1228 1600 
Q 959 1441 959 1056 
Q 959 750 1161 570 
Q 1363 391 1709 391 
Q 2188 391 2477 730 
Q 2766 1069 2766 1631 
L 2766 1759 
L 2194 1759 
z
M 3341 1997 
L 3341 0 
L 2766 0 
L 2766 531 
Q 2569 213 2275 61 
Q 1981 -91 1556 -91 
Q 1019 -91 701 211 
Q 384 513 384 1019 
Q 384 1609 779 1909 
Q 1175 2209 1959 2209 
L 2766 2209 
L 2766 2266 
Q 2766 2663 2505 2880 
Q 2244 3097 1772 3097 
Q 1472 3097 1187 3025 
Q 903 2953 641 2809 
L 641 3341 
Q 956 3463 1253 3523 
Q 1550 3584 1831 3584 
Q 2591 3584 2966 3190 
Q 3341 2797 3341 1997 
z
" transform="scale(0.015625)"/>
       <path id="DejaVuSans-67" d="M 2906 1791 
Q 2906 2416 2648 2759 
Q 2391 3103 1925 3103 
Q 1463 3103 1205 2759 
Q 947 2416 947 1791 
Q 947 1169 1205 825 
Q 1463 481 1925 481 
Q 2391 481 2648 825 
Q 2906 1169 2906 1791 
z
M 3481 434 
Q 3481 -459 3084 -895 
Q 2688 -1331 1869 -1331 
Q 1566 -1331 1297 -1286 
Q 1028 -1241 775 -1147 
L 775 -588 
Q 1028 -725 1275 -790 
Q 1522 -856 1778 -856 
Q 2344 -856 2625 -561 
Q 2906 -266 2906 331 
L 2906 616 
Q 2728 306 2450 153 
Q 2172 0 1784 0 
Q 1141 0 747 490 
Q 353 981 353 1791 
Q 353 2603 747 3093 
Q 1141 3584 1784 3584 
Q 2172 3584 2450 3431 
Q 2728 3278 2906 2969 
L 2906 3500 
L 3481 3500 
L 3481 434 
z
" transform="scale(0.015625)"/>
       <path id="DejaVuSans-6e" d="M 3513 2113 
L 3513 0 
L 2938 0 
L 2938 2094 
Q 2938 2591 2744 2837 
Q 2550 3084 2163 3084 
Q 1697 3084 1428 2787 
Q 1159 2491 1159 1978 
L 1159 0 
L 581 0 
L 581 3500 
L 1159 3500 
L 1159 2956 
Q 1366 3272 1645 3428 
Q 1925 3584 2291 3584 
Q 2894 3584 3203 3211 
Q 3513 2838 3513 2113 
z
" transform="scale(0.015625)"/>
       <path id="DejaVuSans-74" d="M 1172 4494 
L 1172 3500 
L 2356 3500 
L 2356 3053 
L 1172 3053 
L 1172 1153 
Q 1172 725 1289 603 
Q 1406 481 1766 481 
L 2356 481 
L 2356 0 
L 1766 0 
Q 1100 0 847 248 
Q 594 497 594 1153 
L 594 3053 
L 172 3053 
L 172 3500 
L 594 3500 
L 594 4494 
L 1172 4494 
z
" transform="scale(0.015625)"/>
       <path id="DejaVuSans-75" d="M 544 1381 
L 544 3500 
L 1119 3500 
L 1119 1403 
Q 1119 906 1312 657 
Q 1506 409 1894 409 
Q 2359 409 2629 706 
Q 2900 1003 2900 1516 
L 2900 3500 
L 3475 3500 
L 3475 0 
L 2900 0 
L 2900 538 
Q 2691 219 2414 64 
Q 2138 -91 1772 -91 
Q 1169 -91 856 284 
Q 544 659 544 1381 
z
M 1991 3584 
L 1991 3584 
z
" transform="scale(0.015625)"/>
       <path id="DejaVuSans-64" d="M 2906 2969 
L 2906 4863 
L 3481 4863 
L 3481 0 
L 2906 0 
L 2906 525 
Q 2725 213 2448 61 
Q 2172 -91 1784 -91 
Q 1150 -91 751 415 
Q 353 922 353 1747 
Q 353 2572 751 3078 
Q 1150 3584 1784 3584 
Q 2172 3584 2448 3432 
Q 2725 3281 2906 2969 
z
M 947 1747 
Q 947 1113 1208 752 
Q 1469 391 1925 391 
Q 2381 391 2643 752 
Q 2906 1113 2906 1747 
Q 2906 2381 2643 2742 
Q 2381 3103 1925 3103 
Q 1469 3103 1208 2742 
Q 947 2381 947 1747 
z
" transform="scale(0.015625)"/>
       <path id="DejaVuSans-56" d="M 1831 0 
L 50 4666 
L 709 4666 
L 2188 738 
L 3669 4666 
L 4325 4666 
L 2547 0 
L 1831 0 
z
" transform="scale(0.015625)"/>
       <path id="DejaVuSans-2f" d="M 1625 4666 
L 2156 4666 
L 531 -594 
L 0 -594 
L 1625 4666 
z
" transform="scale(0.015625)"/>
       <path id="DejaVuSans-c5" d="M 2663 5081 
Q 2663 5278 2523 5417 
Q 2384 5556 2188 5556 
Q 1988 5556 1852 5420 
Q 1716 5284 1716 5081 
Q 1716 4884 1853 4746 
Q 1991 4609 2188 4609 
Q 2384 4609 2523 4746 
Q 2663 4884 2663 5081 
z
M 2188 4044 
L 1338 1722 
L 3041 1722 
L 2188 4044 
z
M 1716 4366 
Q 1525 4494 1428 4673 
Q 1331 4853 1331 5081 
Q 1331 5441 1579 5691 
Q 1828 5941 2188 5941 
Q 2544 5941 2795 5689 
Q 3047 5438 3047 5081 
Q 3047 4863 2948 4678 
Q 2850 4494 2663 4366 
L 4325 0 
L 3669 0 
L 3244 1197 
L 1141 1197 
L 716 0 
L 50 0 
L 1716 4366 
z
" transform="scale(0.015625)"/>
      </defs>
      <use xlink:href="#DejaVuSans-46"/>
      <use xlink:href="#DejaVuSans-6f" transform="translate(53.894531 0)"/>
      <use xlink:href="#DejaVuSans-72" transform="translate(115.076172 0)"/>
      <use xlink:href="#DejaVuSans-63" transform="translate(153.939453 0)"/>
      <use xlink:href="#DejaVuSans-65" transform="translate(208.919922 0)"/>
      <use xlink:href="#DejaVuSans-20" transform="translate(270.443359 0)"/>
      <use xlink:href="#DejaVuSans-4d" transform="translate(302.230469 0)"/>
      <use xlink:href="#DejaVuSans-61" transform="translate(388.509766 0)"/>
      <use xlink:href="#DejaVuSans-67" transform="translate(449.789062 0)"/>
      <use xlink:href="#DejaVuSans-6e" transform="translate(513.265625 0)"/>
      <use xlink:href="#DejaVuSans-69" transform="translate(576.644531 0)"/>
      <use xlink:href="#DejaVuSans-74" transform="translate(604.427734 0)"/>
      <use xlink:href="#DejaVuSans-75" transform="translate(643.636719 0)"/>
      <use xlink:href="#DejaVuSans-64" transform="translate(707.015625 0)"/>
      <use xlink:href="#DejaVuSans-65" transform="translate(770.492188 0)"/>
      <use xlink:href="#DejaVuSans-20" transform="translate(832.015625 0)"/>
      <use xlink:href="#DejaVuSans-28" transform="translate(863.802734 0)"/>
      <use xlink:href="#DejaVuSans-65" transform="translate(902.816406 0)"/>
      <use xlink:href="#DejaVuSans-56" transform="translate(964.339844 0)"/>
      <use xlink:href="#DejaVuSans-2f" transform="translate(1032.748047 0)"/>
      <use xlink:href="#DejaVuSans-c5" transform="translate(1066.439453 0)"/>
      <use xlink:href="#DejaVuSans-29" transform="translate(1134.847656 0)"/>
     </g>
    </g>
   </g>
   <g id="FillBetweenPolyCollection_1">
    <defs>
     <path id="mb28f2bf188" d="M 94.200449 -346.761862 
L 94.200449 -182.910889 
L 111.455698 -181.515968 
L 128.710948 -185.00996 
L 145.966197 -185.031004 
L 163.221446 -198.218272 
L 180.476696 -205.178117 
L 197.731945 -199.5341 
L 214.987195 -209.3513 
L 232.242444 -206.693376 
L 249.497693 -216.937281 
L 266.752943 -224.535772 
L 284.008192 -241.312036 
L 301.263442 -241.897674 
L 318.518691 -248.171618 
L 335.77394 -236.905935 
L 353.02919 -235.835783 
L 370.284439 -226.056388 
L 387.539689 -223.352648 
L 404.794938 -212.557778 
L 422.050187 -206.853954 
L 439.305437 -196.498773 
L 456.560686 -183.685703 
L 473.815936 -182.373806 
L 491.071185 -178.720516 
L 508.326434 -178.739666 
L 525.581684 -171.412409 
L 542.836933 -178.26581 
L 560.092183 -176.863357 
L 577.347432 -183.207586 
L 594.602681 -187.914641 
L 611.857931 -190.459129 
L 629.11318 -185.010613 
L 646.36843 -183.426425 
L 663.623679 -208.874367 
L 680.878928 -219.550214 
L 698.134178 -213.04771 
L 715.389427 -199.239899 
L 732.644677 -193.559292 
L 749.899926 -183.28486 
L 767.155175 -189.824919 
L 784.410425 -197.430685 
L 801.665674 -194.374661 
L 801.665674 -335.241602 
L 801.665674 -335.241602 
L 784.410425 -341.040657 
L 767.155175 -348.871652 
L 749.899926 -349.160602 
L 732.644677 -354.736449 
L 715.389427 -366.394161 
L 698.134178 -370.854037 
L 680.878928 -376.71075 
L 663.623679 -368.246512 
L 646.36843 -359.635714 
L 629.11318 -345.348253 
L 611.857931 -354.792491 
L 594.602681 -362.372994 
L 577.347432 -342.773215 
L 560.092183 -335.660974 
L 542.836933 -333.023391 
L 525.581684 -328.95714 
L 508.326434 -333.602431 
L 491.071185 -331.921444 
L 473.815936 -331.17897 
L 456.560686 -350.544091 
L 439.305437 -353.071156 
L 422.050187 -361.236028 
L 404.794938 -367.843307 
L 387.539689 -368.458302 
L 370.284439 -376.694845 
L 353.02919 -380.168018 
L 335.77394 -387.33059 
L 318.518691 -394.685238 
L 301.263442 -396.217869 
L 284.008192 -381.484303 
L 266.752943 -371.867036 
L 249.497693 -379.062041 
L 232.242444 -369.479231 
L 214.987195 -366.843357 
L 197.731945 -366.226915 
L 180.476696 -366.422321 
L 163.221446 -363.982355 
L 145.966197 -364.846702 
L 128.710948 -353.922452 
L 111.455698 -347.973121 
L 94.200449 -346.761862 
z
" style="stroke: #4c72b0; stroke-opacity: 0.2"/>
    </defs>
    <g clip-path="url(#pc13f33670a)">
     <use xlink:href="#mb28f2bf188" x="0" y="441.839687" style="fill: #4c72b0; fill-opacity: 0.2; stroke: #4c72b0; stroke-opacity: 0.2"/>
    </g>
   </g>
   <g id="FillBetweenPolyCollection_2">
    <defs>
     <path id="m438792af47" d="M 94.200449 -209.960164 
L 94.200449 -84.985283 
L 111.455698 -90.924421 
L 128.710948 -89.236465 
L 145.966197 -94.097471 
L 163.221446 -94.205367 
L 180.476696 -92.429418 
L 197.731945 -93.914282 
L 214.987195 -96.687961 
L 232.242444 -97.919569 
L 249.497693 -103.208394 
L 266.752943 -101.700837 
L 284.008192 -95.701434 
L 301.263442 -98.706716 
L 318.518691 -100.144227 
L 335.77394 -103.179527 
L 353.02919 -103.651004 
L 370.284439 -101.190172 
L 387.539689 -104.128867 
L 404.794938 -105.973842 
L 422.050187 -105.860175 
L 439.305437 -105.150702 
L 456.560686 -108.759837 
L 473.815936 -100.936955 
L 491.071185 -101.655051 
L 508.326434 -98.121845 
L 525.581684 -100.618505 
L 542.836933 -101.60154 
L 560.092183 -94.238233 
L 577.347432 -95.193094 
L 594.602681 -97.071467 
L 611.857931 -91.05504 
L 629.11318 -93.256851 
L 646.36843 -95.162463 
L 663.623679 -89.649039 
L 680.878928 -89.094224 
L 698.134178 -86.515414 
L 715.389427 -84.000422 
L 732.644677 -78.293702 
L 749.899926 -83.577855 
L 767.155175 -72.32089 
L 784.410425 -66.665587 
L 801.665674 -67.509311 
L 801.665674 -180.928021 
L 801.665674 -180.928021 
L 784.410425 -182.990717 
L 767.155175 -189.87879 
L 749.899926 -196.617178 
L 732.644677 -197.141033 
L 715.389427 -200.181754 
L 698.134178 -205.992552 
L 680.878928 -213.797481 
L 663.623679 -214.97407 
L 646.36843 -220.411931 
L 629.11318 -215.223445 
L 611.857931 -224.66076 
L 594.602681 -228.91282 
L 577.347432 -224.920633 
L 560.092183 -234.802628 
L 542.836933 -233.985985 
L 525.581684 -240.084224 
L 508.326434 -235.476459 
L 491.071185 -239.664328 
L 473.815936 -244.441283 
L 456.560686 -245.224199 
L 439.305437 -247.199813 
L 422.050187 -248.92196 
L 404.794938 -242.519315 
L 387.539689 -244.518612 
L 370.284439 -248.013882 
L 353.02919 -245.108313 
L 335.77394 -256.67765 
L 318.518691 -245.638704 
L 301.263442 -249.941081 
L 284.008192 -256.42764 
L 266.752943 -247.72364 
L 249.497693 -247.22309 
L 232.242444 -240.867672 
L 214.987195 -238.395697 
L 197.731945 -238.71361 
L 180.476696 -233.679112 
L 163.221446 -229.537413 
L 145.966197 -229.163261 
L 128.710948 -222.868507 
L 111.455698 -221.981577 
L 94.200449 -209.960164 
z
" style="stroke: #dd8452; stroke-opacity: 0.2"/>
    </defs>
    <g clip-path="url(#pc13f33670a)">
     <use xlink:href="#m438792af47" x="0" y="441.839687" style="fill: #dd8452; fill-opacity: 0.2; stroke: #dd8452; stroke-opacity: 0.2"/>
    </g>
   </g>
   <g id="FillBetweenPolyCollection_3">
    <defs>
     <path id="m5ce229e2e2" d="M 94.200449 -216.742872 
L 94.200449 -83.994869 
L 111.455698 -85.399528 
L 128.710948 -88.588555 
L 145.966197 -89.477401 
L 163.221446 -85.78571 
L 180.476696 -93.07354 
L 197.731945 -84.701725 
L 214.987195 -91.367213 
L 232.242444 -95.584751 
L 249.497693 -98.978862 
L 266.752943 -95.038998 
L 284.008192 -99.337476 
L 301.263442 -101.417652 
L 318.518691 -99.191596 
L 335.77394 -97.528351 
L 353.02919 -97.043532 
L 370.284439 -100.744578 
L 387.539689 -108.022332 
L 404.794938 -100.626666 
L 422.050187 -104.633646 
L 439.305437 -103.797548 
L 456.560686 -101.160067 
L 473.815936 -97.324724 
L 491.071185 -101.680919 
L 508.326434 -102.1981 
L 525.581684 -105.504889 
L 542.836933 -99.682965 
L 560.092183 -101.356997 
L 577.347432 -101.419518 
L 594.602681 -103.293974 
L 611.857931 -95.023282 
L 629.11318 -101.156196 
L 646.36843 -93.131072 
L 663.623679 -93.872993 
L 680.878928 -90.637697 
L 698.134178 -89.770371 
L 715.389427 -84.979861 
L 732.644677 -88.241366 
L 749.899926 -82.835258 
L 767.155175 -87.572694 
L 784.410425 -81.38767 
L 801.665674 -78.341961 
L 801.665674 -194.618244 
L 801.665674 -194.618244 
L 784.410425 -201.929164 
L 767.155175 -204.315667 
L 749.899926 -210.577349 
L 732.644677 -213.307255 
L 715.389427 -215.084143 
L 698.134178 -218.724774 
L 680.878928 -222.895126 
L 663.623679 -231.616114 
L 646.36843 -234.079144 
L 629.11318 -234.391419 
L 611.857931 -236.360749 
L 594.602681 -237.952579 
L 577.347432 -236.699416 
L 560.092183 -238.9261 
L 542.836933 -243.227868 
L 525.581684 -247.492566 
L 508.326434 -246.783864 
L 491.071185 -246.829138 
L 473.815936 -247.463168 
L 456.560686 -246.02194 
L 439.305437 -252.36129 
L 422.050187 -247.710224 
L 404.794938 -250.032551 
L 387.539689 -253.378301 
L 370.284439 -256.124685 
L 353.02919 -252.563119 
L 335.77394 -257.679619 
L 318.518691 -252.817453 
L 301.263442 -253.516846 
L 284.008192 -256.220229 
L 266.752943 -252.808747 
L 249.497693 -248.096141 
L 232.242444 -247.366011 
L 214.987195 -241.769406 
L 197.731945 -242.37422 
L 180.476696 -245.622145 
L 163.221446 -231.370323 
L 145.966197 -236.429911 
L 128.710948 -229.624382 
L 111.455698 -218.080239 
L 94.200449 -216.742872 
z
" style="stroke: #55a868; stroke-opacity: 0.2"/>
    </defs>
    <g clip-path="url(#pc13f33670a)">
     <use xlink:href="#m5ce229e2e2" x="0" y="441.839687" style="fill: #55a868; fill-opacity: 0.2; stroke: #55a868; stroke-opacity: 0.2"/>
    </g>
   </g>
   <g id="FillBetweenPolyCollection_4">
    <defs>
     <path id="m9b3c337905" d="M 94.200449 -311.343543 
L 94.200449 -167.050277 
L 111.455698 -168.480999 
L 128.710948 -173.103761 
L 145.966197 -177.014296 
L 163.221446 -177.295017 
L 180.476696 -176.813056 
L 197.731945 -177.929939 
L 214.987195 -179.155261 
L 232.242444 -181.820141 
L 249.497693 -186.384918 
L 266.752943 -187.939209 
L 284.008192 -182.06843 
L 301.263442 -185.049447 
L 318.518691 -184.859382 
L 335.77394 -180.11282 
L 353.02919 -184.28601 
L 370.284439 -183.060602 
L 387.539689 -184.686266 
L 404.794938 -191.239631 
L 422.050187 -183.843301 
L 439.305437 -187.062004 
L 456.560686 -181.671213 
L 473.815936 -182.521878 
L 491.071185 -182.027794 
L 508.326434 -182.228235 
L 525.581684 -178.002129 
L 542.836933 -185.574044 
L 560.092183 -183.584299 
L 577.347432 -181.555934 
L 594.602681 -181.076217 
L 611.857931 -180.495489 
L 629.11318 -175.077809 
L 646.36843 -179.754468 
L 663.623679 -179.209319 
L 680.878928 -177.790454 
L 698.134178 -175.433577 
L 715.389427 -168.039414 
L 732.644677 -170.841349 
L 749.899926 -173.791618 
L 767.155175 -170.405383 
L 784.410425 -165.247657 
L 801.665674 -164.944325 
L 801.665674 -293.462833 
L 801.665674 -293.462833 
L 784.410425 -300.056919 
L 767.155175 -300.760987 
L 749.899926 -300.957265 
L 732.644677 -310.27493 
L 715.389427 -309.682841 
L 698.134178 -319.100193 
L 680.878928 -315.236202 
L 663.623679 -319.663127 
L 646.36843 -329.828069 
L 629.11318 -328.246802 
L 611.857931 -331.869516 
L 594.602681 -332.83316 
L 577.347432 -335.406847 
L 560.092183 -334.247162 
L 542.836933 -336.554133 
L 525.581684 -341.093759 
L 508.326434 -333.122092 
L 491.071185 -337.097168 
L 473.815936 -336.89876 
L 456.560686 -340.219315 
L 439.305437 -338.515045 
L 422.050187 -339.333183 
L 404.794938 -344.663937 
L 387.539689 -342.173597 
L 370.284439 -343.553235 
L 353.02919 -338.777234 
L 335.77394 -336.843411 
L 318.518691 -342.675165 
L 301.263442 -340.373814 
L 284.008192 -338.930925 
L 266.752943 -334.560076 
L 249.497693 -329.972572 
L 232.242444 -333.151236 
L 214.987195 -338.65411 
L 197.731945 -322.118137 
L 180.476696 -322.153876 
L 163.221446 -320.363292 
L 145.966197 -314.493767 
L 128.710948 -316.061289 
L 111.455698 -309.250802 
L 94.200449 -311.343543 
z
" style="stroke: #c44e52; stroke-opacity: 0.2"/>
    </defs>
    <g clip-path="url(#pc13f33670a)">
     <use xlink:href="#m9b3c337905" x="0" y="441.839687" style="fill: #c44e52; fill-opacity: 0.2; stroke: #c44e52; stroke-opacity: 0.2"/>
    </g>
   </g>
   <g id="FillBetweenPolyCollection_5">
    <defs>
     <path id="m5441dee0c7" d="M 94.200449 -288.062537 
L 94.200449 -133.249292 
L 111.455698 -129.023732 
L 128.710948 -132.937156 
L 145.966197 -135.684619 
L 163.221446 -141.463946 
L 180.476696 -136.004393 
L 197.731945 -137.931129 
L 214.987195 -142.665583 
L 232.242444 -145.383266 
L 249.497693 -142.66182 
L 266.752943 -145.68568 
L 284.008192 -142.579971 
L 301.263442 -145.617776 
L 318.518691 -147.880211 
L 335.77394 -142.625389 
L 353.02919 -149.699631 
L 370.284439 -149.82686 
L 387.539689 -149.85868 
L 404.794938 -146.195562 
L 422.050187 -150.243 
L 439.305437 -147.82708 
L 456.560686 -149.869404 
L 473.815936 -139.575852 
L 491.071185 -147.003149 
L 508.326434 -151.769737 
L 525.581684 -145.825996 
L 542.836933 -147.915957 
L 560.092183 -147.323588 
L 577.347432 -147.868793 
L 594.602681 -144.680046 
L 611.857931 -142.077661 
L 629.11318 -140.250452 
L 646.36843 -143.054265 
L 663.623679 -131.826593 
L 680.878928 -133.946744 
L 698.134178 -139.683993 
L 715.389427 -133.155822 
L 732.644677 -124.340993 
L 749.899926 -130.274952 
L 767.155175 -129.20394 
L 784.410425 -125.838589 
L 801.665674 -126.491139 
L 801.665674 -251.110565 
L 801.665674 -251.110565 
L 784.410425 -260.064525 
L 767.155175 -264.163026 
L 749.899926 -264.564486 
L 732.644677 -268.54779 
L 715.389427 -270.149675 
L 698.134178 -273.98236 
L 680.878928 -278.472212 
L 663.623679 -282.122214 
L 646.36843 -286.703538 
L 629.11318 -289.476813 
L 611.857931 -295.624926 
L 594.602681 -294.336703 
L 577.347432 -296.241019 
L 560.092183 -299.963468 
L 542.836933 -301.955687 
L 525.581684 -306.273208 
L 508.326434 -308.385735 
L 491.071185 -304.580222 
L 473.815936 -308.99991 
L 456.560686 -312.108857 
L 439.305437 -317.827246 
L 422.050187 -314.947925 
L 404.794938 -314.252128 
L 387.539689 -308.261205 
L 370.284439 -317.927305 
L 353.02919 -315.551524 
L 335.77394 -320.589773 
L 318.518691 -315.842639 
L 301.263442 -324.496601 
L 284.008192 -313.646927 
L 266.752943 -314.5889 
L 249.497693 -311.375976 
L 232.242444 -303.346653 
L 214.987195 -304.344181 
L 197.731945 -306.676571 
L 180.476696 -294.484558 
L 163.221446 -292.992216 
L 145.966197 -301.589828 
L 128.710948 -292.364283 
L 111.455698 -293.293687 
L 94.200449 -288.062537 
z
" style="stroke: #8172b3; stroke-opacity: 0.2"/>
    </defs>
    <g clip-path="url(#pc13f33670a)">
     <use xlink:href="#m5441dee0c7" x="0" y="441.839687" style="fill: #8172b3; fill-opacity: 0.2; stroke: #8172b3; stroke-opacity: 0.2"/>
    </g>
   </g>
   <g id="FillBetweenPolyCollection_6">
    <defs>
     <path id="meaf7426a15" d="M 94.200449 -219.784246 
L 94.200449 -82.214324 
L 111.455698 -91.749933 
L 128.710948 -90.85402 
L 145.966197 -90.773931 
L 163.221446 -94.479477 
L 180.476696 -97.404398 
L 197.731945 -96.644207 
L 214.987195 -97.061789 
L 232.242444 -98.372284 
L 249.497693 -98.44465 
L 266.752943 -102.659874 
L 284.008192 -99.986347 
L 301.263442 -104.048989 
L 318.518691 -103.264048 
L 335.77394 -100.703751 
L 353.02919 -102.860697 
L 370.284439 -104.850262 
L 387.539689 -107.798745 
L 404.794938 -106.655643 
L 422.050187 -104.004831 
L 439.305437 -102.71196 
L 456.560686 -104.702922 
L 473.815936 -107.07277 
L 491.071185 -104.50084 
L 508.326434 -103.962918 
L 525.581684 -98.573167 
L 542.836933 -99.017626 
L 560.092183 -100.111497 
L 577.347432 -101.661063 
L 594.602681 -99.601102 
L 611.857931 -93.970083 
L 629.11318 -94.019722 
L 646.36843 -91.907096 
L 663.623679 -88.691757 
L 680.878928 -88.458283 
L 698.134178 -87.444465 
L 715.389427 -84.265038 
L 732.644677 -81.884858 
L 749.899926 -78.858098 
L 767.155175 -71.805112 
L 784.410425 -72.768241 
L 801.665674 -69.06838 
L 801.665674 -184.780421 
L 801.665674 -184.780421 
L 784.410425 -184.983259 
L 767.155175 -195.918593 
L 749.899926 -193.304133 
L 732.644677 -197.768074 
L 715.389427 -196.596987 
L 698.134178 -210.192613 
L 680.878928 -207.452804 
L 663.623679 -223.170386 
L 646.36843 -223.92899 
L 629.11318 -219.454954 
L 611.857931 -233.350326 
L 594.602681 -224.105396 
L 577.347432 -229.984235 
L 560.092183 -236.993821 
L 542.836933 -232.177513 
L 525.581684 -228.782521 
L 508.326434 -239.086323 
L 491.071185 -242.538767 
L 473.815936 -243.404185 
L 456.560686 -247.170713 
L 439.305437 -247.42153 
L 422.050187 -249.333139 
L 404.794938 -253.443255 
L 387.539689 -251.003507 
L 370.284439 -249.265072 
L 353.02919 -252.02424 
L 335.77394 -248.952562 
L 318.518691 -249.668517 
L 301.263442 -248.842958 
L 284.008192 -244.313354 
L 266.752943 -246.434432 
L 249.497693 -253.040886 
L 232.242444 -244.987363 
L 214.987195 -246.427385 
L 197.731945 -235.038686 
L 180.476696 -231.452658 
L 163.221446 -235.088244 
L 145.966197 -221.023415 
L 128.710948 -222.025252 
L 111.455698 -226.796864 
L 94.200449 -219.784246 
z
" style="stroke: #937860; stroke-opacity: 0.2"/>
    </defs>
    <g clip-path="url(#pc13f33670a)">
     <use xlink:href="#meaf7426a15" x="0" y="441.839687" style="fill: #937860; fill-opacity: 0.2; stroke: #937860; stroke-opacity: 0.2"/>
    </g>
   </g>
   <g id="FillBetweenPolyCollection_7">
    <defs>
     <path id="mfd10ddbf2f" d="M 94.200449 -219.572907 
L 94.200449 -84.630076 
L 111.455698 -85.157887 
L 128.710948 -84.020512 
L 145.966197 -86.8365 
L 163.221446 -96.339634 
L 180.476696 -88.953958 
L 197.731945 -95.739808 
L 214.987195 -93.303964 
L 232.242444 -102.978785 
L 249.497693 -95.014055 
L 266.752943 -104.708544 
L 284.008192 -97.592535 
L 301.263442 -100.006998 
L 318.518691 -104.139674 
L 335.77394 -99.384832 
L 353.02919 -95.410465 
L 370.284439 -101.692435 
L 387.539689 -99.074965 
L 404.794938 -103.496969 
L 422.050187 -99.53687 
L 439.305437 -102.348056 
L 456.560686 -103.545126 
L 473.815936 -99.722826 
L 491.071185 -99.624126 
L 508.326434 -100.337583 
L 525.581684 -99.192872 
L 542.836933 -100.35826 
L 560.092183 -94.633956 
L 577.347432 -101.633587 
L 594.602681 -103.952955 
L 611.857931 -93.580593 
L 629.11318 -96.933813 
L 646.36843 -96.083999 
L 663.623679 -97.666459 
L 680.878928 -89.869554 
L 698.134178 -93.256307 
L 715.389427 -88.830095 
L 732.644677 -87.62026 
L 749.899926 -86.514437 
L 767.155175 -79.461169 
L 784.410425 -79.642272 
L 801.665674 -74.715469 
L 801.665674 -197.422184 
L 801.665674 -197.422184 
L 784.410425 -197.890035 
L 767.155175 -208.085538 
L 749.899926 -201.783781 
L 732.644677 -209.158914 
L 715.389427 -216.385449 
L 698.134178 -225.807241 
L 680.878928 -223.544608 
L 663.623679 -229.151075 
L 646.36843 -232.696908 
L 629.11318 -232.455147 
L 611.857931 -232.622019 
L 594.602681 -230.442657 
L 577.347432 -240.192409 
L 560.092183 -239.903295 
L 542.836933 -248.011327 
L 525.581684 -243.4488 
L 508.326434 -239.231485 
L 491.071185 -242.51123 
L 473.815936 -245.611084 
L 456.560686 -249.499385 
L 439.305437 -259.574598 
L 422.050187 -254.055998 
L 404.794938 -254.019408 
L 387.539689 -251.914403 
L 370.284439 -257.130146 
L 353.02919 -251.714359 
L 335.77394 -256.136408 
L 318.518691 -255.980334 
L 301.263442 -245.622109 
L 284.008192 -255.074319 
L 266.752943 -256.306279 
L 249.497693 -249.18823 
L 232.242444 -246.652012 
L 214.987195 -237.42496 
L 197.731945 -250.632957 
L 180.476696 -233.290852 
L 163.221446 -228.301003 
L 145.966197 -234.231605 
L 128.710948 -225.805727 
L 111.455698 -224.862277 
L 94.200449 -219.572907 
z
" style="stroke: #da8bc3; stroke-opacity: 0.2"/>
    </defs>
    <g clip-path="url(#pc13f33670a)">
     <use xlink:href="#mfd10ddbf2f" x="0" y="441.839687" style="fill: #da8bc3; fill-opacity: 0.2; stroke: #da8bc3; stroke-opacity: 0.2"/>
    </g>
   </g>
   <g id="FillBetweenPolyCollection_8">
    <defs>
     <path id="m2e55bceeb3" d="M 94.200449 -191.092432 
L 94.200449 -59.781506 
L 111.455698 -63.441282 
L 128.710948 -63.626867 
L 145.966197 -67.508411 
L 163.221446 -70.100943 
L 180.476696 -69.116726 
L 197.731945 -72.195923 
L 214.987195 -73.33107 
L 232.242444 -77.450897 
L 249.497693 -75.849256 
L 266.752943 -77.668709 
L 284.008192 -77.994568 
L 301.263442 -73.261213 
L 318.518691 -75.279287 
L 335.77394 -78.455635 
L 353.02919 -80.927694 
L 370.284439 -80.269849 
L 387.539689 -80.642758 
L 404.794938 -82.515971 
L 422.050187 -79.496687 
L 439.305437 -86.568087 
L 456.560686 -79.934491 
L 473.815936 -82.630606 
L 491.071185 -83.800804 
L 508.326434 -74.916798 
L 525.581684 -83.457868 
L 542.836933 -72.450615 
L 560.092183 -79.289419 
L 577.347432 -82.417937 
L 594.602681 -80.304642 
L 611.857931 -83.264972 
L 629.11318 -79.808691 
L 646.36843 -81.282667 
L 663.623679 -80.304157 
L 680.878928 -75.889985 
L 698.134178 -74.301432 
L 715.389427 -75.118589 
L 732.644677 -71.762081 
L 749.899926 -73.984345 
L 767.155175 -67.124628 
L 784.410425 -65.533813 
L 801.665674 -67.477844 
L 801.665674 -188.125986 
L 801.665674 -188.125986 
L 784.410425 -190.889878 
L 767.155175 -195.492319 
L 749.899926 -202.13885 
L 732.644677 -200.557131 
L 715.389427 -208.210888 
L 698.134178 -211.705458 
L 680.878928 -208.601517 
L 663.623679 -219.175307 
L 646.36843 -223.274242 
L 629.11318 -225.692282 
L 611.857931 -219.372934 
L 594.602681 -222.414633 
L 577.347432 -224.137174 
L 560.092183 -224.547188 
L 542.836933 -221.961315 
L 525.581684 -227.311242 
L 508.326434 -233.547387 
L 491.071185 -229.52865 
L 473.815936 -234.572011 
L 456.560686 -230.598447 
L 439.305437 -232.361801 
L 422.050187 -231.120364 
L 404.794938 -230.800821 
L 387.539689 -229.198875 
L 370.284439 -242.529418 
L 353.02919 -231.962511 
L 335.77394 -233.887943 
L 318.518691 -230.018007 
L 301.263442 -235.851719 
L 284.008192 -223.35632 
L 266.752943 -229.573878 
L 249.497693 -222.159809 
L 232.242444 -224.851114 
L 214.987195 -227.140112 
L 197.731945 -216.347799 
L 180.476696 -211.346227 
L 163.221446 -206.783142 
L 145.966197 -199.004167 
L 128.710948 -205.596385 
L 111.455698 -206.16104 
L 94.200449 -191.092432 
z
" style="stroke: #8c8c8c; stroke-opacity: 0.2"/>
    </defs>
    <g clip-path="url(#pc13f33670a)">
     <use xlink:href="#m2e55bceeb3" x="0" y="441.839687" style="fill: #8c8c8c; fill-opacity: 0.2; stroke: #8c8c8c; stroke-opacity: 0.2"/>
    </g>
   </g>
   <g id="FillBetweenPolyCollection_9">
    <defs>
     <path id="mea201d4ed3" d="M 94.200449 -251.826877 
L 94.200449 -105.650271 
L 111.455698 -107.777515 
L 128.710948 -104.414088 
L 145.966197 -109.965522 
L 163.221446 -112.712765 
L 180.476696 -115.005087 
L 197.731945 -112.624342 
L 214.987195 -116.165101 
L 232.242444 -113.801956 
L 249.497693 -118.233348 
L 266.752943 -123.912812 
L 284.008192 -114.13048 
L 301.263442 -118.945575 
L 318.518691 -126.715765 
L 335.77394 -120.25362 
L 353.02919 -127.767894 
L 370.284439 -119.231323 
L 387.539689 -131.296054 
L 404.794938 -119.649842 
L 422.050187 -122.808267 
L 439.305437 -124.194766 
L 456.560686 -119.194651 
L 473.815936 -121.937833 
L 491.071185 -123.336934 
L 508.326434 -116.304882 
L 525.581684 -116.829769 
L 542.836933 -120.948385 
L 560.092183 -118.718327 
L 577.347432 -110.122133 
L 594.602681 -114.933607 
L 611.857931 -114.483428 
L 629.11318 -115.672941 
L 646.36843 -114.69334 
L 663.623679 -108.296481 
L 680.878928 -110.875068 
L 698.134178 -101.368206 
L 715.389427 -90.854495 
L 732.644677 -98.494626 
L 749.899926 -95.468481 
L 767.155175 -93.914765 
L 784.410425 -94.45751 
L 801.665674 -89.962199 
L 801.665674 -215.091865 
L 801.665674 -215.091865 
L 784.410425 -215.917065 
L 767.155175 -221.666786 
L 749.899926 -238.93332 
L 732.644677 -226.200676 
L 715.389427 -229.910744 
L 698.134178 -245.860182 
L 680.878928 -243.425072 
L 663.623679 -247.245236 
L 646.36843 -249.514783 
L 629.11318 -257.393006 
L 611.857931 -260.779569 
L 594.602681 -261.399371 
L 577.347432 -265.330831 
L 560.092183 -263.124815 
L 542.836933 -263.646522 
L 525.581684 -271.864348 
L 508.326434 -267.400993 
L 491.071185 -269.721057 
L 473.815936 -274.403289 
L 456.560686 -276.211326 
L 439.305437 -277.726278 
L 422.050187 -274.323403 
L 404.794938 -281.054439 
L 387.539689 -274.578947 
L 370.284439 -274.039096 
L 353.02919 -279.183888 
L 335.77394 -279.186465 
L 318.518691 -286.607059 
L 301.263442 -280.120189 
L 284.008192 -281.94215 
L 266.752943 -273.487991 
L 249.497693 -274.585085 
L 232.242444 -272.207064 
L 214.987195 -267.285092 
L 197.731945 -269.460744 
L 180.476696 -261.14582 
L 163.221446 -261.386866 
L 145.966197 -256.931817 
L 128.710948 -255.296319 
L 111.455698 -252.572102 
L 94.200449 -251.826877 
z
" style="stroke: #ccb974; stroke-opacity: 0.2"/>
    </defs>
    <g clip-path="url(#pc13f33670a)">
     <use xlink:href="#mea201d4ed3" x="0" y="441.839687" style="fill: #ccb974; fill-opacity: 0.2; stroke: #ccb974; stroke-opacity: 0.2"/>
    </g>
   </g>
   <g id="FillBetweenPolyCollection_10">
    <defs>
     <path id="m92ab1b03cd" d="M 94.200449 -235.573761 
L 94.200449 -95.25928 
L 111.455698 -90.224123 
L 128.710948 -99.248622 
L 145.966197 -95.934732 
L 163.221446 -104.032595 
L 180.476696 -98.010501 
L 197.731945 -99.553991 
L 214.987195 -103.880451 
L 232.242444 -107.322125 
L 249.497693 -104.651652 
L 266.752943 -100.072974 
L 284.008192 -102.561976 
L 301.263442 -106.822915 
L 318.518691 -107.191967 
L 335.77394 -111.73727 
L 353.02919 -107.243259 
L 370.284439 -111.149259 
L 387.539689 -112.111697 
L 404.794938 -110.740757 
L 422.050187 -111.595481 
L 439.305437 -104.94043 
L 456.560686 -111.496821 
L 473.815936 -106.081953 
L 491.071185 -101.99344 
L 508.326434 -103.829748 
L 525.581684 -102.846583 
L 542.836933 -103.606635 
L 560.092183 -103.367722 
L 577.347432 -100.127002 
L 594.602681 -100.934153 
L 611.857931 -99.501668 
L 629.11318 -97.29189 
L 646.36843 -95.352257 
L 663.623679 -87.523779 
L 680.878928 -90.480537 
L 698.134178 -92.007737 
L 715.389427 -87.674305 
L 732.644677 -85.142586 
L 749.899926 -75.579734 
L 767.155175 -75.498564 
L 784.410425 -74.449554 
L 801.665674 -74.332196 
L 801.665674 -202.176887 
L 801.665674 -202.176887 
L 784.410425 -200.417188 
L 767.155175 -209.546549 
L 749.899926 -210.762686 
L 732.644677 -221.524105 
L 715.389427 -215.290669 
L 698.134178 -224.236406 
L 680.878928 -226.911115 
L 663.623679 -233.539281 
L 646.36843 -235.213126 
L 629.11318 -234.03232 
L 611.857931 -247.516661 
L 594.602681 -243.6008 
L 577.347432 -245.635878 
L 560.092183 -251.48666 
L 542.836933 -248.006753 
L 525.581684 -249.537968 
L 508.326434 -248.865313 
L 491.071185 -247.931294 
L 473.815936 -249.503534 
L 456.560686 -257.093877 
L 439.305437 -253.499223 
L 422.050187 -254.145238 
L 404.794938 -258.187749 
L 387.539689 -258.831387 
L 370.284439 -261.680546 
L 353.02919 -257.884573 
L 335.77394 -258.514417 
L 318.518691 -259.66634 
L 301.263442 -258.760216 
L 284.008192 -257.913242 
L 266.752943 -257.930054 
L 249.497693 -262.725205 
L 232.242444 -257.866665 
L 214.987195 -252.289391 
L 197.731945 -244.796646 
L 180.476696 -243.174674 
L 163.221446 -242.518381 
L 145.966197 -240.453002 
L 128.710948 -240.390763 
L 111.455698 -231.365232 
L 94.200449 -235.573761 
z
" style="stroke: #64b5cd; stroke-opacity: 0.2"/>
    </defs>
    <g clip-path="url(#pc13f33670a)">
     <use xlink:href="#m92ab1b03cd" x="0" y="441.839687" style="fill: #64b5cd; fill-opacity: 0.2; stroke: #64b5cd; stroke-opacity: 0.2"/>
    </g>
   </g>
   <g id="line2d_13">
    <path d="M 94.200449 187.510929 
L 111.455698 182.498101 
L 128.710948 176.839748 
L 145.966197 172.028788 
L 163.221446 167.407815 
L 180.476696 163.537883 
L 197.731945 162.981163 
L 214.987195 158.746571 
L 232.242444 154.844932 
L 249.497693 150.74935 
L 266.752943 144.706024 
L 284.008192 134.254177 
L 301.263442 123.974141 
L 318.518691 125.861331 
L 335.77394 132.321558 
L 353.02919 139.884927 
L 370.284439 145.055078 
L 387.539689 150.894172 
L 404.794938 155.471044 
L 422.050187 161.743598 
L 439.305437 167.89101 
L 456.560686 174.137774 
L 473.815936 183.624369 
L 491.071185 187.957738 
L 508.326434 189.697319 
L 525.581684 190.366972 
L 542.836933 189.336836 
L 560.092183 185.654836 
L 577.347432 180.548493 
L 594.602681 171.25332 
L 611.857931 171.465916 
L 629.11318 175.488331 
L 646.36843 173.563778 
L 663.623679 156.683251 
L 680.878928 147.001555 
L 698.134178 151.513985 
L 715.389427 159.364969 
L 732.644677 168.91902 
L 749.899926 174.354728 
L 767.155175 176.809469 
L 784.410425 173.910958 
L 801.665674 176.320075 
" clip-path="url(#pc13f33670a)" style="fill: none; stroke: #4c72b0; stroke-width: 1.5; stroke-linecap: round"/>
   </g>
   <g id="line2d_14">
    <path d="M 94.200449 292.292419 
L 111.455698 290.185515 
L 128.710948 287.975911 
L 145.966197 285.769701 
L 163.221446 283.510304 
L 180.476696 281.136903 
L 197.731945 278.670684 
L 214.987195 276.46775 
L 232.242444 274.69857 
L 249.497693 272.985341 
L 266.752943 271.48426 
L 284.008192 270.080045 
L 301.263442 269.06356 
L 318.518691 268.77155 
L 335.77394 268.474066 
L 353.02919 268.108786 
L 370.284439 267.850977 
L 387.539689 267.769986 
L 404.794938 268.00986 
L 422.050187 268.59832 
L 439.305437 269.291056 
L 456.560686 270.103643 
L 473.815936 271.375622 
L 491.071185 272.880483 
L 508.326434 274.438134 
L 525.581684 275.954854 
L 542.836933 277.532642 
L 560.092183 279.187351 
L 577.347432 280.741495 
L 594.602681 282.246008 
L 611.857931 283.984863 
L 629.11318 285.952538 
L 646.36843 288.40953 
L 663.623679 291.293048 
L 680.878928 294.496373 
L 698.134178 297.805356 
L 715.389427 301.20406 
L 732.644677 304.527977 
L 749.899926 307.641033 
L 767.155175 311.004877 
L 784.410425 314.340691 
L 801.665674 317.703152 
" clip-path="url(#pc13f33670a)" style="fill: none; stroke: #dd8452; stroke-width: 1.5; stroke-linecap: round"/>
   </g>
   <g id="line2d_15">
    <path d="M 94.200449 293.773415 
L 111.455698 291.600206 
L 128.710948 289.3259 
L 145.966197 287.064898 
L 163.221446 284.742812 
L 180.476696 282.279824 
L 197.731945 279.72543 
L 214.987195 277.404809 
L 232.242444 275.542163 
L 249.497693 273.747281 
L 266.752943 272.136656 
L 284.008192 270.662558 
L 301.263442 269.58285 
L 318.518691 269.208602 
L 335.77394 268.839034 
L 353.02919 268.37575 
L 370.284439 267.977001 
L 387.539689 267.712402 
L 404.794938 267.752051 
L 422.050187 268.046081 
L 439.305437 268.434896 
L 456.560686 268.936841 
L 473.815936 269.806803 
L 491.071185 270.842833 
L 508.326434 271.870754 
L 525.581684 272.776449 
L 542.836933 273.735713 
L 560.092183 274.772798 
L 577.347432 275.734319 
L 594.602681 276.62379 
L 611.857931 277.721501 
L 629.11318 278.991509 
L 646.36843 280.745848 
L 663.623679 282.946708 
L 680.878928 285.57041 
L 698.134178 288.359892 
L 715.389427 291.261668 
L 732.644677 294.133125 
L 749.899926 296.818987 
L 767.155175 299.832805 
L 784.410425 302.849478 
L 801.665674 305.887537 
" clip-path="url(#pc13f33670a)" style="fill: none; stroke: #55a868; stroke-width: 1.5; stroke-linecap: round"/>
   </g>
   <g id="line2d_16">
    <path d="M 94.200449 207.604133 
L 111.455698 205.432087 
L 128.710948 203.272003 
L 145.966197 201.170624 
L 163.221446 198.776033 
L 180.476696 196.135921 
L 197.731945 193.423697 
L 214.987195 191.023454 
L 232.242444 189.030924 
L 249.497693 187.094729 
L 266.752943 185.368625 
L 284.008192 183.809064 
L 301.263442 182.509506 
L 318.518691 182.274469 
L 335.77394 181.890272 
L 353.02919 181.467226 
L 370.284439 180.969356 
L 387.539689 180.590206 
L 404.794938 180.565336 
L 422.050187 180.578852 
L 439.305437 180.917932 
L 456.560686 181.337764 
L 473.815936 182.02628 
L 491.071185 182.964988 
L 508.326434 183.745208 
L 525.581684 184.514977 
L 542.836933 185.459459 
L 560.092183 186.376981 
L 577.347432 187.152374 
L 594.602681 187.77364 
L 611.857931 188.827138 
L 629.11318 189.983343 
L 646.36843 191.740199 
L 663.623679 193.826981 
L 680.878928 196.243681 
L 698.134178 199.013602 
L 715.389427 201.596981 
L 732.644677 204.235878 
L 749.899926 206.747668 
L 767.155175 209.258111 
L 784.410425 211.904499 
L 801.665674 214.573288 
" clip-path="url(#pc13f33670a)" style="fill: none; stroke: #c44e52; stroke-width: 1.5; stroke-linecap: round"/>
   </g>
   <g id="line2d_17">
    <path d="M 94.200449 236.419852 
L 111.455698 234.416744 
L 128.710948 232.328972 
L 145.966197 230.437771 
L 163.221446 228.424336 
L 180.476696 226.210548 
L 197.731945 223.846269 
L 214.987195 221.472012 
L 232.242444 219.759008 
L 249.497693 218.081776 
L 266.752943 216.541812 
L 284.008192 215.13861 
L 301.263442 213.892651 
L 318.518691 213.840626 
L 335.77394 213.55558 
L 353.02919 213.047911 
L 370.284439 212.870805 
L 387.539689 212.654113 
L 404.794938 212.846571 
L 422.050187 213.441782 
L 439.305437 214.130337 
L 456.560686 214.790546 
L 473.815936 215.751854 
L 491.071185 216.930976 
L 508.326434 218.07469 
L 525.581684 219.064617 
L 542.836933 220.151753 
L 560.092183 221.167359 
L 577.347432 222.364467 
L 594.602681 223.604313 
L 611.857931 225.100528 
L 629.11318 226.589115 
L 646.36843 228.680974 
L 663.623679 231.085955 
L 680.878928 233.891392 
L 698.134178 236.96957 
L 715.389427 239.795844 
L 732.644677 242.729494 
L 749.899926 245.621305 
L 767.155175 248.597109 
L 784.410425 251.676695 
L 801.665674 254.772718 
" clip-path="url(#pc13f33670a)" style="fill: none; stroke: #8172b3; stroke-width: 1.5; stroke-linecap: round"/>
   </g>
   <g id="line2d_18">
    <path d="M 94.200449 292.202017 
L 111.455698 289.940345 
L 128.710948 287.841515 
L 145.966197 285.737709 
L 163.221446 283.729152 
L 180.476696 281.271388 
L 197.731945 279.300638 
L 214.987195 276.041253 
L 232.242444 274.297283 
L 249.497693 273.267154 
L 266.752943 271.309611 
L 284.008192 270.306933 
L 301.263442 269.322374 
L 318.518691 268.301161 
L 335.77394 268.666607 
L 353.02919 268.376793 
L 370.284439 267.793799 
L 387.539689 267.374004 
L 404.794938 267.448602 
L 422.050187 268.602856 
L 439.305437 268.691255 
L 456.560686 269.839072 
L 473.815936 272.137274 
L 491.071185 272.342431 
L 508.326434 274.52088 
L 525.581684 276.058392 
L 542.836933 277.267448 
L 560.092183 278.835627 
L 577.347432 280.512257 
L 594.602681 282.488214 
L 611.857931 283.802546 
L 629.11318 285.11558 
L 646.36843 287.794635 
L 663.623679 290.942965 
L 680.878928 294.642293 
L 698.134178 297.867562 
L 715.389427 301.133344 
L 732.644677 304.667589 
L 749.899926 307.572239 
L 767.155175 310.999382 
L 784.410425 313.977454 
L 801.665674 317.640146 
" clip-path="url(#pc13f33670a)" style="fill: none; stroke: #937860; stroke-width: 1.5; stroke-linecap: round"/>
   </g>
   <g id="line2d_19">
    <path d="M 94.200449 293.672019 
L 111.455698 291.553533 
L 128.710948 289.226693 
L 145.966197 287.150206 
L 163.221446 285.020431 
L 180.476696 282.593786 
L 197.731945 280.443024 
L 214.987195 277.193553 
L 232.242444 275.386183 
L 249.497693 274.01748 
L 266.752943 272.05976 
L 284.008192 270.969822 
L 301.263442 270.006232 
L 318.518691 268.877333 
L 335.77394 269.172658 
L 353.02919 268.668664 
L 370.284439 268.095546 
L 387.539689 267.475595 
L 404.794938 267.371395 
L 422.050187 268.021964 
L 439.305437 268.072704 
L 456.560686 269.106311 
L 473.815936 270.600599 
L 491.071185 270.64925 
L 508.326434 272.108281 
L 525.581684 272.951928 
L 542.836933 273.65402 
L 560.092183 274.665577 
L 577.347432 275.800937 
L 594.602681 277.053336 
L 611.857931 277.723731 
L 629.11318 278.501042 
L 646.36843 280.33883 
L 663.623679 282.823406 
L 680.878928 285.891767 
L 698.134178 288.652901 
L 715.389427 291.400823 
L 732.644677 294.603899 
L 749.899926 296.774312 
L 767.155175 300.045083 
L 784.410425 302.644013 
L 801.665674 306.071388 
" clip-path="url(#pc13f33670a)" style="fill: none; stroke: #da8bc3; stroke-width: 1.5; stroke-linecap: round"/>
   </g>
   <g id="line2d_20">
    <path d="M 94.200449 316.630729 
L 111.455698 314.333393 
L 128.710948 312.019482 
L 145.966197 309.543859 
L 163.221446 307.026247 
L 180.476696 304.64856 
L 197.731945 301.962063 
L 214.987195 299.422287 
L 232.242444 297.351866 
L 249.497693 295.571567 
L 266.752943 293.800865 
L 284.008192 292.189621 
L 301.263442 290.866424 
L 318.518691 290.148123 
L 335.77394 289.785168 
L 353.02919 288.953124 
L 370.284439 288.149301 
L 387.539689 287.85844 
L 404.794938 287.589433 
L 422.050187 287.52334 
L 439.305437 287.504137 
L 456.560686 287.510366 
L 473.815936 287.889171 
L 491.071185 288.562543 
L 508.326434 289.047044 
L 525.581684 289.58741 
L 542.836933 290.06073 
L 560.092183 290.734155 
L 577.347432 291.195468 
L 594.602681 291.950874 
L 611.857931 292.469896 
L 629.11318 293.543269 
L 646.36843 294.865479 
L 663.623679 296.505795 
L 680.878928 298.550911 
L 698.134178 301.039483 
L 715.389427 303.343548 
L 732.644677 305.537735 
L 749.899926 307.394737 
L 767.155175 309.552466 
L 784.410425 311.897107 
L 801.665674 314.136747 
" clip-path="url(#pc13f33670a)" style="fill: none; stroke: #8c8c8c; stroke-width: 1.5; stroke-linecap: round"/>
   </g>
   <g id="line2d_21">
    <path d="M 94.200449 268.368255 
L 111.455698 266.320018 
L 128.710948 264.227594 
L 145.966197 262.161722 
L 163.221446 259.987779 
L 180.476696 257.673997 
L 197.731945 255.269782 
L 214.987195 253.087566 
L 232.242444 251.308768 
L 249.497693 249.55052 
L 266.752943 248.015693 
L 284.008192 246.672973 
L 301.263442 245.699402 
L 318.518691 245.401981 
L 335.77394 245.109234 
L 353.02919 244.757528 
L 370.284439 244.455384 
L 387.539689 244.31347 
L 404.794938 244.451477 
L 422.050187 244.912634 
L 439.305437 245.489187 
L 456.560686 246.195398 
L 473.815936 247.264145 
L 491.071185 248.556515 
L 508.326434 249.888178 
L 525.581684 251.076012 
L 542.836933 252.314572 
L 560.092183 253.674282 
L 577.347432 255.013086 
L 594.602681 256.308389 
L 611.857931 257.888591 
L 629.11318 259.692668 
L 646.36843 261.966941 
L 663.623679 264.712283 
L 680.878928 267.83781 
L 698.134178 271.079904 
L 715.389427 274.508679 
L 732.644677 277.913184 
L 749.899926 281.158883 
L 767.155175 284.702288 
L 784.410425 288.202971 
L 801.665674 291.685699 
" clip-path="url(#pc13f33670a)" style="fill: none; stroke: #ccb974; stroke-width: 1.5; stroke-linecap: round"/>
   </g>
   <g id="line2d_22">
    <path d="M 94.200449 283.484512 
L 111.455698 281.447611 
L 128.710948 279.321637 
L 145.966197 277.282143 
L 163.221446 275.16124 
L 180.476696 272.923372 
L 197.731945 270.604099 
L 214.987195 268.516795 
L 232.242444 266.863164 
L 249.497693 265.208739 
L 266.752943 263.733592 
L 284.008192 262.472815 
L 301.263442 261.608477 
L 318.518691 261.419559 
L 335.77394 261.193713 
L 353.02919 260.917149 
L 370.284439 260.689494 
L 387.539689 260.597801 
L 404.794938 260.752169 
L 422.050187 261.188207 
L 439.305437 261.742484 
L 456.560686 262.423667 
L 473.815936 263.445564 
L 491.071185 264.715014 
L 508.326434 266.03563 
L 525.581684 267.249649 
L 542.836933 268.520566 
L 560.092183 269.904847 
L 577.347432 271.260153 
L 594.602681 272.567677 
L 611.857931 274.1187 
L 629.11318 275.911138 
L 646.36843 278.221802 
L 663.623679 281.009297 
L 680.878928 284.13524 
L 698.134178 287.361995 
L 715.389427 290.70355 
L 732.644677 293.960237 
L 749.899926 296.945142 
L 767.155175 300.121019 
L 784.410425 303.11847 
L 801.665674 305.956958 
" clip-path="url(#pc13f33670a)" style="fill: none; stroke: #64b5cd; stroke-width: 1.5; stroke-linecap: round"/>
   </g>
   <g id="line2d_23"/>
   <g id="line2d_24"/>
   <g id="line2d_25"/>
   <g id="line2d_26"/>
   <g id="line2d_27"/>
   <g id="line2d_28"/>
   <g id="line2d_29"/>
   <g id="line2d_30"/>
   <g id="line2d_31"/>
   <g id="line2d_32"/>
   <g id="patch_3">
    <path d="M 58.827188 398.88 
L 58.827188 28.8 
" style="fill: none; stroke: #cccccc; stroke-width: 1.25; stroke-linejoin: miter; stroke-linecap: square"/>
   </g>
   <g id="patch_4">
    <path d="M 58.827188 398.88 
L 837.038936 398.88 
" style="fill: none; stroke: #cccccc; stroke-width: 1.25; stroke-linejoin: miter; stroke-linecap: square"/>
   </g>
  </g>
  <g id="text_15">
   <!-- Force Magnitude Over Frames by Method -->
   <g style="fill: #262626" transform="translate(353.796086 18.14175) scale(0.144 -0.144)">
    <defs>
     <path id="DejaVuSans-4f" d="M 2522 4238 
Q 1834 4238 1429 3725 
Q 1025 3213 1025 2328 
Q 1025 1447 1429 934 
Q 1834 422 2522 422 
Q 3209 422 3611 934 
Q 4013 1447 4013 2328 
Q 4013 3213 3611 3725 
Q 3209 4238 2522 4238 
z
M 2522 4750 
Q 3503 4750 4090 4092 
Q 4678 3434 4678 2328 
Q 4678 1225 4090 567 
Q 3503 -91 2522 -91 
Q 1538 -91 948 565 
Q 359 1222 359 2328 
Q 359 3434 948 4092 
Q 1538 4750 2522 4750 
z
" transform="scale(0.015625)"/>
     <path id="DejaVuSans-76" d="M 191 3500 
L 800 3500 
L 1894 563 
L 2988 3500 
L 3597 3500 
L 2284 0 
L 1503 0 
L 191 3500 
z
" transform="scale(0.015625)"/>
     <path id="DejaVuSans-62" d="M 3116 1747 
Q 3116 2381 2855 2742 
Q 2594 3103 2138 3103 
Q 1681 3103 1420 2742 
Q 1159 2381 1159 1747 
Q 1159 1113 1420 752 
Q 1681 391 2138 391 
Q 2594 391 2855 752 
Q 3116 1113 3116 1747 
z
M 1159 2969 
Q 1341 3281 1617 3432 
Q 1894 3584 2278 3584 
Q 2916 3584 3314 3078 
Q 3713 2572 3713 1747 
Q 3713 922 3314 415 
Q 2916 -91 2278 -91 
Q 1894 -91 1617 61 
Q 1341 213 1159 525 
L 1159 0 
L 581 0 
L 581 4863 
L 1159 4863 
L 1159 2969 
z
" transform="scale(0.015625)"/>
     <path id="DejaVuSans-79" d="M 2059 -325 
Q 1816 -950 1584 -1140 
Q 1353 -1331 966 -1331 
L 506 -1331 
L 506 -850 
L 844 -850 
Q 1081 -850 1212 -737 
Q 1344 -625 1503 -206 
L 1606 56 
L 191 3500 
L 800 3500 
L 1894 763 
L 2988 3500 
L 3597 3500 
L 2059 -325 
z
" transform="scale(0.015625)"/>
     <path id="DejaVuSans-68" d="M 3513 2113 
L 3513 0 
L 2938 0 
L 2938 2094 
Q 2938 2591 2744 2837 
Q 2550 3084 2163 3084 
Q 1697 3084 1428 2787 
Q 1159 2491 1159 1978 
L 1159 0 
L 581 0 
L 581 4863 
L 1159 4863 
L 1159 2956 
Q 1366 3272 1645 3428 
Q 1925 3584 2291 3584 
Q 2894 3584 3203 3211 
Q 3513 2838 3513 2113 
z
" transform="scale(0.015625)"/>
    </defs>
    <use xlink:href="#DejaVuSans-46"/>
    <use xlink:href="#DejaVuSans-6f" transform="translate(53.894531 0)"/>
    <use xlink:href="#DejaVuSans-72" transform="translate(115.076172 0)"/>
    <use xlink:href="#DejaVuSans-63" transform="translate(153.939453 0)"/>
    <use xlink:href="#DejaVuSans-65" transform="translate(208.919922 0)"/>
    <use xlink:href="#DejaVuSans-20" transform="translate(270.443359 0)"/>
    <use xlink:href="#DejaVuSans-4d" transform="translate(302.230469 0)"/>
    <use xlink:href="#DejaVuSans-61" transform="translate(388.509766 0)"/>
    <use xlink:href="#DejaVuSans-67" transform="translate(449.789062 0)"/>
    <use xlink:href="#DejaVuSans-6e" transform="translate(513.265625 0)"/>
    <use xlink:href="#DejaVuSans-69" transform="translate(576.644531 0)"/>
    <use xlink:href="#DejaVuSans-74" transform="translate(604.427734 0)"/>
    <use xlink:href="#DejaVuSans-75" transform="translate(643.636719 0)"/>
    <use xlink:href="#DejaVuSans-64" transform="translate(707.015625 0)"/>
    <use xlink:href="#DejaVuSans-65" transform="translate(770.492188 0)"/>
    <use xlink:href="#DejaVuSans-20" transform="translate(832.015625 0)"/>
    <use xlink:href="#DejaVuSans-4f" transform="translate(863.802734 0)"/>
    <use xlink:href="#DejaVuSans-76" transform="translate(942.513672 0)"/>
    <use xlink:href="#DejaVuSans-65" transform="translate(1001.693359 0)"/>
    <use xlink:href="#DejaVuSans-72" transform="translate(1063.216797 0)"/>
    <use xlink:href="#DejaVuSans-20" transform="translate(1104.330078 0)"/>
    <use xlink:href="#DejaVuSans-46" transform="translate(1136.117188 0)"/>
    <use xlink:href="#DejaVuSans-72" transform="translate(1186.386719 0)"/>
    <use xlink:href="#DejaVuSans-61" transform="translate(1227.5 0)"/>
    <use xlink:href="#DejaVuSans-6d" transform="translate(1288.779297 0)"/>
    <use xlink:href="#DejaVuSans-65" transform="translate(1386.191406 0)"/>
    <use xlink:href="#DejaVuSans-73" transform="translate(1447.714844 0)"/>
    <use xlink:href="#DejaVuSans-20" transform="translate(1499.814453 0)"/>
    <use xlink:href="#DejaVuSans-62" transform="translate(1531.601562 0)"/>
    <use xlink:href="#DejaVuSans-79" transform="translate(1595.078125 0)"/>
    <use xlink:href="#DejaVuSans-20" transform="translate(1654.257812 0)"/>
    <use xlink:href="#DejaVuSans-4d" transform="translate(1686.044922 0)"/>
    <use xlink:href="#DejaVuSans-65" transform="translate(1772.324219 0)"/>
    <use xlink:href="#DejaVuSans-74" transform="translate(1833.847656 0)"/>
    <use xlink:href="#DejaVuSans-68" transform="translate(1873.056641 0)"/>
    <use xlink:href="#DejaVuSans-6f" transform="translate(1936.435547 0)"/>
    <use xlink:href="#DejaVuSans-64" transform="translate(1997.617188 0)"/>
   </g>
  </g>
  <g id="legend_1">
   <g id="text_16">
    <!-- method -->
    <g style="fill: #262626" transform="translate(907.235523 141.971719) scale(0.12 -0.12)">
     <use xlink:href="#DejaVuSans-6d"/>
     <use xlink:href="#DejaVuSans-65" transform="translate(97.412109 0)"/>
     <use xlink:href="#DejaVuSans-74" transform="translate(158.935547 0)"/>
     <use xlink:href="#DejaVuSans-68" transform="translate(198.144531 0)"/>
     <use xlink:href="#DejaVuSans-6f" transform="translate(261.523438 0)"/>
     <use xlink:href="#DejaVuSans-64" transform="translate(322.705078 0)"/>
    </g>
   </g>
   <g id="line2d_33">
    <path d="M 848.033961 154.475625 
L 859.033961 154.475625 
L 870.033961 154.475625 
" style="fill: none; stroke: #4c72b0; stroke-width: 1.5; stroke-linecap: round"/>
   </g>
   <g id="text_17">
    <!-- DFT_CP2K -->
    <g style="fill: #262626" transform="translate(878.833961 158.325625) scale(0.11 -0.11)">
     <defs>
      <path id="DejaVuSans-44" d="M 1259 4147 
L 1259 519 
L 2022 519 
Q 2988 519 3436 956 
Q 3884 1394 3884 2338 
Q 3884 3275 3436 3711 
Q 2988 4147 2022 4147 
L 1259 4147 
z
M 628 4666 
L 1925 4666 
Q 3281 4666 3915 4102 
Q 4550 3538 4550 2338 
Q 4550 1131 3912 565 
Q 3275 0 1925 0 
L 628 0 
L 628 4666 
z
" transform="scale(0.015625)"/>
      <path id="DejaVuSans-5f" d="M 3263 -1063 
L 3263 -1509 
L -63 -1509 
L -63 -1063 
L 3263 -1063 
z
" transform="scale(0.015625)"/>
      <path id="DejaVuSans-43" d="M 4122 4306 
L 4122 3641 
Q 3803 3938 3442 4084 
Q 3081 4231 2675 4231 
Q 1875 4231 1450 3742 
Q 1025 3253 1025 2328 
Q 1025 1406 1450 917 
Q 1875 428 2675 428 
Q 3081 428 3442 575 
Q 3803 722 4122 1019 
L 4122 359 
Q 3791 134 3420 21 
Q 3050 -91 2638 -91 
Q 1578 -91 968 557 
Q 359 1206 359 2328 
Q 359 3453 968 4101 
Q 1578 4750 2638 4750 
Q 3056 4750 3426 4639 
Q 3797 4528 4122 4306 
z
" transform="scale(0.015625)"/>
      <path id="DejaVuSans-50" d="M 1259 4147 
L 1259 2394 
L 2053 2394 
Q 2494 2394 2734 2622 
Q 2975 2850 2975 3272 
Q 2975 3691 2734 3919 
Q 2494 4147 2053 4147 
L 1259 4147 
z
M 628 4666 
L 2053 4666 
Q 2838 4666 3239 4311 
Q 3641 3956 3641 3272 
Q 3641 2581 3239 2228 
Q 2838 1875 2053 1875 
L 1259 1875 
L 1259 0 
L 628 0 
L 628 4666 
z
" transform="scale(0.015625)"/>
      <path id="DejaVuSans-4b" d="M 628 4666 
L 1259 4666 
L 1259 2694 
L 3353 4666 
L 4166 4666 
L 1850 2491 
L 4331 0 
L 3500 0 
L 1259 2247 
L 1259 0 
L 628 0 
L 628 4666 
z
" transform="scale(0.015625)"/>
     </defs>
     <use xlink:href="#DejaVuSans-44"/>
     <use xlink:href="#DejaVuSans-46" transform="translate(77.001953 0)"/>
     <use xlink:href="#DejaVuSans-54" transform="translate(132.771484 0)"/>
     <use xlink:href="#DejaVuSans-5f" transform="translate(193.855469 0)"/>
     <use xlink:href="#DejaVuSans-43" transform="translate(243.855469 0)"/>
     <use xlink:href="#DejaVuSans-50" transform="translate(313.679688 0)"/>
     <use xlink:href="#DejaVuSans-32" transform="translate(373.982422 0)"/>
     <use xlink:href="#DejaVuSans-4b" transform="translate(437.605469 0)"/>
    </g>
   </g>
   <g id="line2d_34">
    <path d="M 848.033961 170.9275 
L 859.033961 170.9275 
L 870.033961 170.9275 
" style="fill: none; stroke: #dd8452; stroke-width: 1.5; stroke-linecap: round"/>
   </g>
   <g id="text_18">
    <!-- ML_MACE_MP_64 -->
    <g style="fill: #262626" transform="translate(878.833961 174.7775) scale(0.11 -0.11)">
     <defs>
      <path id="DejaVuSans-4c" d="M 628 4666 
L 1259 4666 
L 1259 531 
L 3531 531 
L 3531 0 
L 628 0 
L 628 4666 
z
" transform="scale(0.015625)"/>
      <path id="DejaVuSans-41" d="M 2188 4044 
L 1331 1722 
L 3047 1722 
L 2188 4044 
z
M 1831 4666 
L 2547 4666 
L 4325 0 
L 3669 0 
L 3244 1197 
L 1141 1197 
L 716 0 
L 50 0 
L 1831 4666 
z
" transform="scale(0.015625)"/>
      <path id="DejaVuSans-45" d="M 628 4666 
L 3578 4666 
L 3578 4134 
L 1259 4134 
L 1259 2753 
L 3481 2753 
L 3481 2222 
L 1259 2222 
L 1259 531 
L 3634 531 
L 3634 0 
L 628 0 
L 628 4666 
z
" transform="scale(0.015625)"/>
     </defs>
     <use xlink:href="#DejaVuSans-4d"/>
     <use xlink:href="#DejaVuSans-4c" transform="translate(86.279297 0)"/>
     <use xlink:href="#DejaVuSans-5f" transform="translate(141.992188 0)"/>
     <use xlink:href="#DejaVuSans-4d" transform="translate(191.992188 0)"/>
     <use xlink:href="#DejaVuSans-41" transform="translate(278.271484 0)"/>
     <use xlink:href="#DejaVuSans-43" transform="translate(344.929688 0)"/>
     <use xlink:href="#DejaVuSans-45" transform="translate(414.753906 0)"/>
     <use xlink:href="#DejaVuSans-5f" transform="translate(477.9375 0)"/>
     <use xlink:href="#DejaVuSans-4d" transform="translate(527.9375 0)"/>
     <use xlink:href="#DejaVuSans-50" transform="translate(614.216797 0)"/>
     <use xlink:href="#DejaVuSans-5f" transform="translate(674.519531 0)"/>
     <use xlink:href="#DejaVuSans-36" transform="translate(724.519531 0)"/>
     <use xlink:href="#DejaVuSans-34" transform="translate(788.142578 0)"/>
    </g>
   </g>
   <g id="line2d_35">
    <path d="M 848.033961 187.379375 
L 859.033961 187.379375 
L 870.033961 187.379375 
" style="fill: none; stroke: #55a868; stroke-width: 1.5; stroke-linecap: round"/>
   </g>
   <g id="text_19">
    <!-- ML_MACE_OMAT_64 -->
    <g style="fill: #262626" transform="translate(878.833961 191.229375) scale(0.11 -0.11)">
     <use xlink:href="#DejaVuSans-4d"/>
     <use xlink:href="#DejaVuSans-4c" transform="translate(86.279297 0)"/>
     <use xlink:href="#DejaVuSans-5f" transform="translate(141.992188 0)"/>
     <use xlink:href="#DejaVuSans-4d" transform="translate(191.992188 0)"/>
     <use xlink:href="#DejaVuSans-41" transform="translate(278.271484 0)"/>
     <use xlink:href="#DejaVuSans-43" transform="translate(344.929688 0)"/>
     <use xlink:href="#DejaVuSans-45" transform="translate(414.753906 0)"/>
     <use xlink:href="#DejaVuSans-5f" transform="translate(477.9375 0)"/>
     <use xlink:href="#DejaVuSans-4f" transform="translate(527.9375 0)"/>
     <use xlink:href="#DejaVuSans-4d" transform="translate(606.648438 0)"/>
     <use xlink:href="#DejaVuSans-41" transform="translate(692.927734 0)"/>
     <use xlink:href="#DejaVuSans-54" transform="translate(753.585938 0)"/>
     <use xlink:href="#DejaVuSans-5f" transform="translate(814.669922 0)"/>
     <use xlink:href="#DejaVuSans-36" transform="translate(864.669922 0)"/>
     <use xlink:href="#DejaVuSans-34" transform="translate(928.292969 0)"/>
    </g>
   </g>
   <g id="line2d_36">
    <path d="M 848.033961 203.83125 
L 859.033961 203.83125 
L 870.033961 203.83125 
" style="fill: none; stroke: #c44e52; stroke-width: 1.5; stroke-linecap: round"/>
   </g>
   <g id="text_20">
    <!-- ML_ORB_CONSERVATIVE -->
    <g style="fill: #262626" transform="translate(878.833961 207.68125) scale(0.11 -0.11)">
     <defs>
      <path id="DejaVuSans-52" d="M 2841 2188 
Q 3044 2119 3236 1894 
Q 3428 1669 3622 1275 
L 4263 0 
L 3584 0 
L 2988 1197 
Q 2756 1666 2539 1819 
Q 2322 1972 1947 1972 
L 1259 1972 
L 1259 0 
L 628 0 
L 628 4666 
L 2053 4666 
Q 2853 4666 3247 4331 
Q 3641 3997 3641 3322 
Q 3641 2881 3436 2590 
Q 3231 2300 2841 2188 
z
M 1259 4147 
L 1259 2491 
L 2053 2491 
Q 2509 2491 2742 2702 
Q 2975 2913 2975 3322 
Q 2975 3731 2742 3939 
Q 2509 4147 2053 4147 
L 1259 4147 
z
" transform="scale(0.015625)"/>
      <path id="DejaVuSans-42" d="M 1259 2228 
L 1259 519 
L 2272 519 
Q 2781 519 3026 730 
Q 3272 941 3272 1375 
Q 3272 1813 3026 2020 
Q 2781 2228 2272 2228 
L 1259 2228 
z
M 1259 4147 
L 1259 2741 
L 2194 2741 
Q 2656 2741 2882 2914 
Q 3109 3088 3109 3444 
Q 3109 3797 2882 3972 
Q 2656 4147 2194 4147 
L 1259 4147 
z
M 628 4666 
L 2241 4666 
Q 2963 4666 3353 4366 
Q 3744 4066 3744 3513 
Q 3744 3084 3544 2831 
Q 3344 2578 2956 2516 
Q 3422 2416 3680 2098 
Q 3938 1781 3938 1306 
Q 3938 681 3513 340 
Q 3088 0 2303 0 
L 628 0 
L 628 4666 
z
" transform="scale(0.015625)"/>
      <path id="DejaVuSans-4e" d="M 628 4666 
L 1478 4666 
L 3547 763 
L 3547 4666 
L 4159 4666 
L 4159 0 
L 3309 0 
L 1241 3903 
L 1241 0 
L 628 0 
L 628 4666 
z
" transform="scale(0.015625)"/>
      <path id="DejaVuSans-53" d="M 3425 4513 
L 3425 3897 
Q 3066 4069 2747 4153 
Q 2428 4238 2131 4238 
Q 1616 4238 1336 4038 
Q 1056 3838 1056 3469 
Q 1056 3159 1242 3001 
Q 1428 2844 1947 2747 
L 2328 2669 
Q 3034 2534 3370 2195 
Q 3706 1856 3706 1288 
Q 3706 609 3251 259 
Q 2797 -91 1919 -91 
Q 1588 -91 1214 -16 
Q 841 59 441 206 
L 441 856 
Q 825 641 1194 531 
Q 1563 422 1919 422 
Q 2459 422 2753 634 
Q 3047 847 3047 1241 
Q 3047 1584 2836 1778 
Q 2625 1972 2144 2069 
L 1759 2144 
Q 1053 2284 737 2584 
Q 422 2884 422 3419 
Q 422 4038 858 4394 
Q 1294 4750 2059 4750 
Q 2388 4750 2728 4690 
Q 3069 4631 3425 4513 
z
" transform="scale(0.015625)"/>
      <path id="DejaVuSans-49" d="M 628 4666 
L 1259 4666 
L 1259 0 
L 628 0 
L 628 4666 
z
" transform="scale(0.015625)"/>
     </defs>
     <use xlink:href="#DejaVuSans-4d"/>
     <use xlink:href="#DejaVuSans-4c" transform="translate(86.279297 0)"/>
     <use xlink:href="#DejaVuSans-5f" transform="translate(141.992188 0)"/>
     <use xlink:href="#DejaVuSans-4f" transform="translate(191.992188 0)"/>
     <use xlink:href="#DejaVuSans-52" transform="translate(270.703125 0)"/>
     <use xlink:href="#DejaVuSans-42" transform="translate(340.185547 0)"/>
     <use xlink:href="#DejaVuSans-5f" transform="translate(408.789062 0)"/>
     <use xlink:href="#DejaVuSans-43" transform="translate(458.789062 0)"/>
     <use xlink:href="#DejaVuSans-4f" transform="translate(528.613281 0)"/>
     <use xlink:href="#DejaVuSans-4e" transform="translate(607.324219 0)"/>
     <use xlink:href="#DejaVuSans-53" transform="translate(682.128906 0)"/>
     <use xlink:href="#DejaVuSans-45" transform="translate(745.605469 0)"/>
     <use xlink:href="#DejaVuSans-52" transform="translate(808.789062 0)"/>
     <use xlink:href="#DejaVuSans-56" transform="translate(872.771484 0)"/>
     <use xlink:href="#DejaVuSans-41" transform="translate(934.804688 0)"/>
     <use xlink:href="#DejaVuSans-54" transform="translate(995.462891 0)"/>
     <use xlink:href="#DejaVuSans-49" transform="translate(1056.546875 0)"/>
     <use xlink:href="#DejaVuSans-56" transform="translate(1086.039062 0)"/>
     <use xlink:href="#DejaVuSans-45" transform="translate(1154.447266 0)"/>
    </g>
   </g>
   <g id="line2d_37">
    <path d="M 848.033961 220.283125 
L 859.033961 220.283125 
L 870.033961 220.283125 
" style="fill: none; stroke: #8172b3; stroke-width: 1.5; stroke-linecap: round"/>
   </g>
   <g id="text_21">
    <!-- ML_ORB_DIRECT -->
    <g style="fill: #262626" transform="translate(878.833961 224.133125) scale(0.11 -0.11)">
     <use xlink:href="#DejaVuSans-4d"/>
     <use xlink:href="#DejaVuSans-4c" transform="translate(86.279297 0)"/>
     <use xlink:href="#DejaVuSans-5f" transform="translate(141.992188 0)"/>
     <use xlink:href="#DejaVuSans-4f" transform="translate(191.992188 0)"/>
     <use xlink:href="#DejaVuSans-52" transform="translate(270.703125 0)"/>
     <use xlink:href="#DejaVuSans-42" transform="translate(340.185547 0)"/>
     <use xlink:href="#DejaVuSans-5f" transform="translate(408.789062 0)"/>
     <use xlink:href="#DejaVuSans-44" transform="translate(458.789062 0)"/>
     <use xlink:href="#DejaVuSans-49" transform="translate(535.791016 0)"/>
     <use xlink:href="#DejaVuSans-52" transform="translate(565.283203 0)"/>
     <use xlink:href="#DejaVuSans-45" transform="translate(634.765625 0)"/>
     <use xlink:href="#DejaVuSans-43" transform="translate(697.949219 0)"/>
     <use xlink:href="#DejaVuSans-54" transform="translate(767.773438 0)"/>
    </g>
   </g>
   <g id="line2d_38">
    <path d="M 848.033961 236.735 
L 859.033961 236.735 
L 870.033961 236.735 
" style="fill: none; stroke: #937860; stroke-width: 1.5; stroke-linecap: round"/>
   </g>
   <g id="text_22">
    <!-- ML_MACE_MP -->
    <g style="fill: #262626" transform="translate(878.833961 240.585) scale(0.11 -0.11)">
     <use xlink:href="#DejaVuSans-4d"/>
     <use xlink:href="#DejaVuSans-4c" transform="translate(86.279297 0)"/>
     <use xlink:href="#DejaVuSans-5f" transform="translate(141.992188 0)"/>
     <use xlink:href="#DejaVuSans-4d" transform="translate(191.992188 0)"/>
     <use xlink:href="#DejaVuSans-41" transform="translate(278.271484 0)"/>
     <use xlink:href="#DejaVuSans-43" transform="translate(344.929688 0)"/>
     <use xlink:href="#DejaVuSans-45" transform="translate(414.753906 0)"/>
     <use xlink:href="#DejaVuSans-5f" transform="translate(477.9375 0)"/>
     <use xlink:href="#DejaVuSans-4d" transform="translate(527.9375 0)"/>
     <use xlink:href="#DejaVuSans-50" transform="translate(614.216797 0)"/>
    </g>
   </g>
   <g id="line2d_39">
    <path d="M 848.033961 253.186875 
L 859.033961 253.186875 
L 870.033961 253.186875 
" style="fill: none; stroke: #da8bc3; stroke-width: 1.5; stroke-linecap: round"/>
   </g>
   <g id="text_23">
    <!-- ML_MACE_OMAT -->
    <g style="fill: #262626" transform="translate(878.833961 257.036875) scale(0.11 -0.11)">
     <use xlink:href="#DejaVuSans-4d"/>
     <use xlink:href="#DejaVuSans-4c" transform="translate(86.279297 0)"/>
     <use xlink:href="#DejaVuSans-5f" transform="translate(141.992188 0)"/>
     <use xlink:href="#DejaVuSans-4d" transform="translate(191.992188 0)"/>
     <use xlink:href="#DejaVuSans-41" transform="translate(278.271484 0)"/>
     <use xlink:href="#DejaVuSans-43" transform="translate(344.929688 0)"/>
     <use xlink:href="#DejaVuSans-45" transform="translate(414.753906 0)"/>
     <use xlink:href="#DejaVuSans-5f" transform="translate(477.9375 0)"/>
     <use xlink:href="#DejaVuSans-4f" transform="translate(527.9375 0)"/>
     <use xlink:href="#DejaVuSans-4d" transform="translate(606.648438 0)"/>
     <use xlink:href="#DejaVuSans-41" transform="translate(692.927734 0)"/>
     <use xlink:href="#DejaVuSans-54" transform="translate(753.585938 0)"/>
    </g>
   </g>
   <g id="line2d_40">
    <path d="M 848.033961 269.63875 
L 859.033961 269.63875 
L 870.033961 269.63875 
" style="fill: none; stroke: #8c8c8c; stroke-width: 1.5; stroke-linecap: round"/>
   </g>
   <g id="text_24">
    <!-- ML_NeqIP_cuEq -->
    <g style="fill: #262626" transform="translate(878.833961 273.48875) scale(0.11 -0.11)">
     <defs>
      <path id="DejaVuSans-71" d="M 947 1747 
Q 947 1113 1208 752 
Q 1469 391 1925 391 
Q 2381 391 2643 752 
Q 2906 1113 2906 1747 
Q 2906 2381 2643 2742 
Q 2381 3103 1925 3103 
Q 1469 3103 1208 2742 
Q 947 2381 947 1747 
z
M 2906 525 
Q 2725 213 2448 61 
Q 2172 -91 1784 -91 
Q 1150 -91 751 415 
Q 353 922 353 1747 
Q 353 2572 751 3078 
Q 1150 3584 1784 3584 
Q 2172 3584 2448 3432 
Q 2725 3281 2906 2969 
L 2906 3500 
L 3481 3500 
L 3481 -1331 
L 2906 -1331 
L 2906 525 
z
" transform="scale(0.015625)"/>
     </defs>
     <use xlink:href="#DejaVuSans-4d"/>
     <use xlink:href="#DejaVuSans-4c" transform="translate(86.279297 0)"/>
     <use xlink:href="#DejaVuSans-5f" transform="translate(141.992188 0)"/>
     <use xlink:href="#DejaVuSans-4e" transform="translate(191.992188 0)"/>
     <use xlink:href="#DejaVuSans-65" transform="translate(266.796875 0)"/>
     <use xlink:href="#DejaVuSans-71" transform="translate(328.320312 0)"/>
     <use xlink:href="#DejaVuSans-49" transform="translate(391.796875 0)"/>
     <use xlink:href="#DejaVuSans-50" transform="translate(421.289062 0)"/>
     <use xlink:href="#DejaVuSans-5f" transform="translate(481.591797 0)"/>
     <use xlink:href="#DejaVuSans-63" transform="translate(531.591797 0)"/>
     <use xlink:href="#DejaVuSans-75" transform="translate(586.572266 0)"/>
     <use xlink:href="#DejaVuSans-45" transform="translate(649.951172 0)"/>
     <use xlink:href="#DejaVuSans-71" transform="translate(713.134766 0)"/>
    </g>
   </g>
   <g id="line2d_41">
    <path d="M 848.033961 286.090625 
L 859.033961 286.090625 
L 870.033961 286.090625 
" style="fill: none; stroke: #ccb974; stroke-width: 1.5; stroke-linecap: round"/>
   </g>
   <g id="text_25">
    <!-- ML_MatterSim_1M -->
    <g style="fill: #262626" transform="translate(878.833961 289.940625) scale(0.11 -0.11)">
     <use xlink:href="#DejaVuSans-4d"/>
     <use xlink:href="#DejaVuSans-4c" transform="translate(86.279297 0)"/>
     <use xlink:href="#DejaVuSans-5f" transform="translate(141.992188 0)"/>
     <use xlink:href="#DejaVuSans-4d" transform="translate(191.992188 0)"/>
     <use xlink:href="#DejaVuSans-61" transform="translate(278.271484 0)"/>
     <use xlink:href="#DejaVuSans-74" transform="translate(339.550781 0)"/>
     <use xlink:href="#DejaVuSans-74" transform="translate(378.759766 0)"/>
     <use xlink:href="#DejaVuSans-65" transform="translate(417.96875 0)"/>
     <use xlink:href="#DejaVuSans-72" transform="translate(479.492188 0)"/>
     <use xlink:href="#DejaVuSans-53" transform="translate(520.605469 0)"/>
     <use xlink:href="#DejaVuSans-69" transform="translate(584.082031 0)"/>
     <use xlink:href="#DejaVuSans-6d" transform="translate(611.865234 0)"/>
     <use xlink:href="#DejaVuSans-5f" transform="translate(709.277344 0)"/>
     <use xlink:href="#DejaVuSans-31" transform="translate(759.277344 0)"/>
     <use xlink:href="#DejaVuSans-4d" transform="translate(822.900391 0)"/>
    </g>
   </g>
   <g id="line2d_42">
    <path d="M 848.033961 302.5425 
L 859.033961 302.5425 
L 870.033961 302.5425 
" style="fill: none; stroke: #64b5cd; stroke-width: 1.5; stroke-linecap: round"/>
   </g>
   <g id="text_26">
    <!-- ML_MatterSim_5M -->
    <g style="fill: #262626" transform="translate(878.833961 306.3925) scale(0.11 -0.11)">
     <use xlink:href="#DejaVuSans-4d"/>
     <use xlink:href="#DejaVuSans-4c" transform="translate(86.279297 0)"/>
     <use xlink:href="#DejaVuSans-5f" transform="translate(141.992188 0)"/>
     <use xlink:href="#DejaVuSans-4d" transform="translate(191.992188 0)"/>
     <use xlink:href="#DejaVuSans-61" transform="translate(278.271484 0)"/>
     <use xlink:href="#DejaVuSans-74" transform="translate(339.550781 0)"/>
     <use xlink:href="#DejaVuSans-74" transform="translate(378.759766 0)"/>
     <use xlink:href="#DejaVuSans-65" transform="translate(417.96875 0)"/>
     <use xlink:href="#DejaVuSans-72" transform="translate(479.492188 0)"/>
     <use xlink:href="#DejaVuSans-53" transform="translate(520.605469 0)"/>
     <use xlink:href="#DejaVuSans-69" transform="translate(584.082031 0)"/>
     <use xlink:href="#DejaVuSans-6d" transform="translate(611.865234 0)"/>
     <use xlink:href="#DejaVuSans-5f" transform="translate(709.277344 0)"/>
     <use xlink:href="#DejaVuSans-35" transform="translate(759.277344 0)"/>
     <use xlink:href="#DejaVuSans-4d" transform="translate(822.900391 0)"/>
    </g>
   </g>
  </g>
 </g>
 <defs>
  <clipPath id="pc13f33670a">
   <rect x="58.827188" y="28.8" width="778.211748" height="370.08"/>
  </clipPath>
 </defs>
</svg>
